<svg width="47" height="47" viewBox="0 0 47 47" fill="none" xmlns="http://www.w3.org/2000/svg">
<path d="M10.6034 19.4928C10.2114 20.7578 10.0114 22.0758 10.0014 23.4128C9.99637 23.4428 9.98438 23.4688 9.98438 23.4998C9.98438 23.5308 9.99637 23.5568 10.0014 23.5858C10.0214 27.2468 11.5064 30.5658 13.8994 32.9878C13.9144 33.0068 13.9214 33.0298 13.9394 33.0468C13.9554 33.0628 13.9764 33.0698 13.9944 33.0828C16.4334 35.5028 19.7874 37.0018 23.4864 37.0018C30.9394 37.0018 37.0024 30.9508 37.0024 23.5128C37.0024 19.7868 35.4864 16.4078 33.0394 13.9608C33.0374 13.9578 33.0364 13.9548 33.0344 13.9518C33.0304 13.9488 33.0244 13.9478 33.0204 13.9438C30.5744 11.5068 27.2044 9.99683 23.4864 9.99683C19.9284 9.99683 16.5674 11.4208 14.0694 13.8658C14.0234 13.8888 13.9784 13.9138 13.9394 13.9518C13.9004 13.9908 13.8764 14.0358 13.8534 14.0818C13.3214 14.6268 12.8164 15.2018 12.3774 15.8398C12.2204 16.0678 12.2774 16.3788 12.5054 16.5348C12.7344 16.6948 13.0454 16.6348 13.2004 16.4078C13.5384 15.9168 13.9164 15.4648 14.3134 15.0338L15.4024 16.1228C15.5004 16.2208 15.6284 16.2688 15.7564 16.2688C15.8844 16.2688 16.0124 16.2208 16.1094 16.1228C16.3054 15.9278 16.3054 15.6108 16.1094 15.4158L15.0204 14.3258C17.1844 12.3268 19.9984 11.1488 22.9864 11.0278V12.5668C22.9864 12.8438 23.2104 13.0668 23.4864 13.0668C23.7634 13.0668 23.9864 12.8438 23.9864 12.5668V11.0228C27.0564 11.1448 29.8394 12.3718 31.9554 14.3238L30.8634 15.4158C30.6684 15.6108 30.6684 15.9278 30.8634 16.1228C30.9614 16.2208 31.0894 16.2688 31.2174 16.2688C31.3454 16.2688 31.4734 16.2208 31.5704 16.1228L32.6634 15.0308C34.6194 17.1448 35.8514 19.9288 35.9764 22.9998H34.4184C34.1424 22.9998 33.9184 23.2228 33.9184 23.4998C33.9184 23.7758 34.1424 23.9998 34.4184 23.9998H35.9774C35.8574 27.0718 34.6264 29.8568 32.6664 31.9728L31.5704 30.8768C31.3754 30.6808 31.0594 30.6808 30.8634 30.8768C30.6684 31.0718 30.6684 31.3888 30.8634 31.5838L31.9584 32.6788C29.8424 34.6278 27.0584 35.8548 23.9864 35.9758V34.4318C23.9864 34.1558 23.7634 33.9318 23.4864 33.9318C23.2104 33.9318 22.9864 34.1558 22.9864 34.4318V35.9758C19.9184 35.8538 17.1364 34.6238 15.0234 32.6698L16.1094 31.5838C16.3054 31.3888 16.3054 31.0718 16.1094 30.8768C15.9144 30.6808 15.5984 30.6808 15.4024 30.8768L14.3164 31.9618C12.3674 29.8478 11.1414 27.0668 11.0224 23.9998H12.5544C12.8304 23.9998 13.0544 23.7758 13.0544 23.4998C13.0544 23.2228 12.8304 22.9998 12.5544 22.9998H11.0174C11.0614 21.9058 11.2364 20.8268 11.5584 19.7888C11.6404 19.5248 11.4924 19.2448 11.2284 19.1628C10.9654 19.0808 10.6854 19.2288 10.6034 19.4928Z" fill="#F83908"/>
<path d="M20.0751 27.2716L23.8231 23.8696C23.9271 23.7746 23.9871 23.6406 23.9871 23.4996V16.9796C23.9871 16.7036 23.7631 16.4796 23.4871 16.4796C23.2101 16.4796 22.9871 16.7036 22.9871 16.9796V23.2786L19.4031 26.5316C19.1991 26.7166 19.1831 27.0336 19.3691 27.2376C19.4681 27.3466 19.6031 27.4016 19.7391 27.4016C19.8591 27.4016 19.9791 27.3586 20.0751 27.2716Z" fill="#F83908"/>
<path d="M41.1523 8.28975L38.3983 5.47676C37.7143 4.79076 36.6503 4.70175 35.8633 5.26476L32.4603 7.72076C31.0813 6.90576 29.6173 6.28775 28.0983 5.87675L27.3803 1.66876C27.2223 0.701752 26.4093 -0.000244141 25.4473 -0.000244141C25.1713 -0.000244141 24.9473 0.223755 24.9473 0.499756C24.9473 0.775757 25.1713 0.999756 25.4473 0.999756C25.9173 0.999756 26.3143 1.34875 26.3943 1.83376L27.1673 6.36375C27.2003 6.55975 27.3463 6.71675 27.5393 6.76476C29.1773 7.17375 30.7533 7.83975 32.2233 8.74576C32.3953 8.85176 32.6143 8.84276 32.7773 8.72476L36.4463 6.07675C36.8303 5.80075 37.3533 5.84576 37.6873 6.17876L40.4343 8.98576C40.7713 9.33676 40.8153 9.88376 40.5403 10.2858L37.9463 14.0458C37.8353 14.2068 37.8283 14.4168 37.9283 14.5848C38.8233 16.0868 39.4763 17.6978 39.8673 19.3728C39.9133 19.5677 40.0703 19.7178 40.2683 19.7518L44.7133 20.5328C45.1683 20.6108 45.5113 21.0358 45.5113 21.5198V25.4898C45.5113 25.9748 45.1733 26.3908 44.7113 26.4768L40.2683 27.2568C40.0713 27.2918 39.9143 27.4398 39.8683 27.6338C39.4613 29.3368 38.8083 30.9478 37.9283 32.4238C37.8283 32.5918 37.8353 32.8027 37.9463 32.9628L40.5413 36.7258C40.8153 37.1178 40.7703 37.6698 40.4373 38.0098C40.2443 38.2068 40.2483 38.5238 40.4453 38.7168C40.5423 38.8118 40.6693 38.8598 40.7953 38.8598C40.9243 38.8598 41.0543 38.8098 41.1523 38.7088C41.8153 38.0318 41.9053 36.9328 41.3633 36.1558L38.9493 32.6568C39.7463 31.2658 40.3543 29.7638 40.7613 28.1858L44.8893 27.4608C45.8293 27.2858 46.5113 26.4568 46.5113 25.4898V21.5198C46.5113 20.5548 45.8113 19.7068 44.8843 19.5468L40.7623 18.8238C40.3673 17.2668 39.7593 15.7648 38.9503 14.3518L41.3643 10.8528C41.9063 10.0608 41.8193 8.98375 41.1523 8.28975Z" fill="black"/>
<path d="M5.84827 38.7091L8.59827 41.5191C9.28026 42.2151 10.3463 42.3111 11.1383 41.7451L14.5483 39.2801C15.8983 40.0881 17.3603 40.7071 18.9023 41.1221L19.6203 45.3391C19.7773 46.3011 20.5893 47.0001 21.5523 47.0001H25.4483C26.4103 47.0001 27.2233 46.3021 27.3793 45.3431L28.0983 41.1221C29.6413 40.7071 31.1033 40.0881 32.4523 39.2801L35.8653 41.7461C36.6533 42.3101 37.7203 42.2151 38.4023 41.5191C38.5953 41.3221 38.5913 41.0051 38.3943 40.8121C38.1973 40.6191 37.8803 40.6231 37.6873 40.8201C37.3543 41.1611 36.8333 41.2091 36.4493 40.9341L32.7683 38.2741C32.6033 38.1551 32.3833 38.1471 32.2103 38.2551C30.7793 39.1521 29.2073 39.8181 27.5393 40.2341C27.3473 40.2821 27.2013 40.4391 27.1673 40.6351L26.3933 45.1791C26.3153 45.6541 25.9183 46.0001 25.4483 46.0001H21.5523C21.0823 46.0001 20.6843 45.6541 20.6063 45.1751L19.8333 40.6351C19.8003 40.4391 19.6543 40.2821 19.4613 40.2341C17.7933 39.8181 16.2223 39.1521 14.7903 38.2551C14.6183 38.1471 14.3973 38.1551 14.2323 38.2741L10.5543 40.9331C10.1693 41.2071 9.64726 41.1611 9.31326 40.8201L6.56326 38.0101C6.23026 37.6691 6.18526 37.1181 6.46027 36.7231L9.05426 32.9631C9.16525 32.8021 9.17226 32.5911 9.07227 32.4231C8.19226 30.9481 7.53926 29.3361 7.13226 27.6331C7.08626 27.4391 6.92926 27.2921 6.73225 27.2571L2.29427 26.4781C1.82726 26.3911 1.48926 25.9751 1.48926 25.4891V21.5201C1.48926 21.0351 1.83226 20.6111 2.28825 20.5321L6.73225 19.7521C6.93025 19.7171 7.08727 19.5681 7.13326 19.3731C7.52426 17.6981 8.17726 16.0871 9.07227 14.5851C9.17226 14.4171 9.16525 14.2061 9.05426 14.0451L6.46126 10.2871C6.18526 9.88412 6.22926 9.33614 6.56326 8.98914L9.31026 6.18213C9.64626 5.84613 10.1673 5.80113 10.5523 6.07513L14.2233 8.72513C14.3863 8.84312 14.6053 8.85213 14.7773 8.74513C16.2473 7.84013 17.8233 7.17313 19.4613 6.76413C19.6543 6.71613 19.8003 6.55913 19.8333 6.36313L20.6073 1.83012C20.6853 1.34912 21.0833 1.00012 21.5523 1.00012C21.8283 1.00012 22.0523 0.776123 22.0523 0.500122C22.0523 0.223129 21.8283 0.00012207 21.5523 0.00012207C20.5903 0.00012207 19.7783 0.702133 19.6213 1.66612L18.9023 5.87613C17.3843 6.28712 15.9193 6.90613 14.5403 7.72113L11.1363 5.26312C10.3503 4.70213 9.28426 4.79112 8.59827 5.48013L5.84526 8.29312C5.18126 8.98413 5.09425 10.0601 5.63725 10.8531L8.05026 14.3521C7.24126 15.7651 6.63326 17.2661 6.23827 18.8231L2.11726 19.5471C1.18925 19.7071 0.489258 20.5551 0.489258 21.5201V25.4891C0.489258 26.4561 1.17126 27.2851 2.11626 27.4621L6.23926 28.1861C6.64626 29.7641 7.25426 31.2651 8.05125 32.6571L5.63925 36.1531C5.09526 36.9331 5.18526 38.0311 5.84827 38.7091Z" fill="black"/>
</svg>
