<svg width="49" height="52" viewBox="0 0 49 52" fill="none" xmlns="http://www.w3.org/2000/svg">
<g clip-path="url(#clip0_125_2662)">
<path d="M2.73535 15.4121V48.4529C2.73535 50.1342 4.05968 51.4653 5.73251 51.4653H42.7526C44.4254 51.4653 45.7498 50.1342 45.7498 48.4529V15.4121H2.73535Z" fill="#FEEFE6"/>
<path d="M8.81736 2.75C9.69734 2.75 10.4902 3.45933 10.4902 4.43137C10.4902 5.31585 9.78447 6.11275 8.81736 6.11275C7.85026 6.11275 7.14453 5.40342 7.14453 4.43137C7.14453 3.45933 7.93738 2.75 8.81736 2.75Z" fill="#FEEFE6"/>
<path d="M39.3983 0.53418C40.8098 0.53418 41.864 1.68137 41.864 3.01246C41.864 4.43112 40.7226 5.49073 39.3983 5.49073C38.074 5.49073 36.9326 4.33479 36.9326 3.01246C36.9326 1.5938 37.9869 0.53418 39.3983 0.53418Z" fill="#FEEFE6"/>
<path d="M45.7413 12.1377H20.3613V15.5004H45.7413V12.1377Z" fill="#FEEFE6"/>
<path d="M45.7413 11.7781V12.1284H20.3613V8.76562H42.7442C44.417 8.76562 45.7413 10.0967 45.7413 11.7781Z" fill="#FEEFE6"/>
<path d="M20.3611 15.4123H2.73535V11.7781C2.73535 10.0967 4.05968 8.76562 5.73251 8.76562H20.3611V15.4123Z" fill="#FEEFE6"/>
<path d="M41.3329 19.8438V46.9559H7.13574V19.8438H41.3329Z" fill="#FEEFE6"/>
<path d="M33.0475 37.2094C34.0146 38.1815 34.2847 39.6877 33.7532 40.8436L31.9061 38.9871L30.2333 40.6685L32.0804 42.525C30.8432 43.0592 29.4404 42.8753 28.4646 41.8157C27.4975 40.8436 27.2274 39.3374 27.7589 38.1815L24.7617 35.2566L26.4345 33.5752L29.4317 36.5877C30.5731 35.9659 32.0716 36.2374 33.0475 37.2094Z" fill="#FEEFE6"/>
<path d="M24.7704 31.8937L23.0976 33.5751L20.1005 30.5626C18.8633 31.0968 17.4605 30.9129 16.4847 29.8533C15.5176 28.8812 15.2475 27.375 15.779 26.219L17.6261 28.0756L19.2989 26.3942L17.4518 24.5377C18.689 24.0035 20.0917 24.1786 21.0676 25.247C22.0347 26.219 22.3048 27.7253 21.7733 28.8812L24.7704 31.8937Z" fill="#FEEFE6"/>
<path d="M33.6662 26.2186C34.1976 27.4621 34.0147 28.872 32.9604 29.8528C31.9933 30.8248 30.4948 31.0963 29.3447 30.5621L26.3475 33.5746L24.7618 35.2559L21.7647 38.2684C22.2961 39.5119 22.1132 40.9218 21.0589 41.9026C20.0918 42.8747 18.5933 43.1461 17.4432 42.6119L19.2903 40.7554L17.6174 39.0741L15.7704 40.9306C15.2389 39.6871 15.4218 38.2772 16.4761 37.2964C17.4432 36.3243 18.9418 36.0528 20.0918 36.587L23.089 33.5746L24.7618 31.8932L27.759 28.8807C27.2275 27.6372 27.4105 26.2273 28.4647 25.2465C29.4318 24.2745 30.9304 24.003 32.0805 24.5372L30.2334 26.3937L31.9062 28.0751L33.6662 26.2186Z" fill="#FEEFE6"/>
<path d="M48.2069 7.70605C48.6426 7.70605 48.9998 8.0651 48.9998 8.50296C48.9998 8.94081 48.6426 9.29986 48.2069 9.29986C47.7713 9.29986 47.4141 8.94081 47.4141 8.50296C47.4141 8.0651 47.7713 7.70605 48.2069 7.70605Z" fill="#F9853D"/>
<path d="M31.6444 3.27539C32.08 3.27539 32.4373 3.63443 32.4373 4.07229C32.4373 4.51015 32.08 4.86919 31.6444 4.86919C31.2088 4.86919 30.8516 4.51015 30.8516 4.07229C30.8516 3.63443 31.2088 3.27539 31.6444 3.27539Z" fill="#F9853D"/>
<path d="M21.7733 5.49121C22.209 5.49121 22.5662 5.85025 22.5662 6.28811C22.5662 6.72597 22.209 7.08501 21.7733 7.08501C21.3377 7.08501 20.9805 6.72597 20.9805 6.28811C20.9805 5.85025 21.3377 5.49121 21.7733 5.49121Z" fill="#F9853D"/>
<path d="M16.2147 2.21582C16.6504 2.21582 17.0076 2.57486 17.0076 3.01272C17.0076 3.45058 16.6504 3.80962 16.2147 3.80962C15.7791 3.80962 15.4219 3.45058 15.4219 3.01272C15.4219 2.57486 15.7791 2.21582 16.2147 2.21582Z" fill="#F9853D"/>
<path d="M13.7487 10.9814C14.3673 10.9814 14.8901 11.5156 14.8901 12.1286C14.8901 12.7416 14.3586 13.2846 13.7487 13.2846C13.1388 13.2846 12.5986 12.7504 12.5986 12.1286C12.5986 11.5069 13.1301 10.9814 13.7487 10.9814Z" fill="#F9853D"/>
<path d="M10.49 10.9814C11.1086 10.9814 11.6401 11.5156 11.6401 12.1286C11.6401 12.7416 11.1086 13.2846 10.49 13.2846C9.87139 13.2846 9.34863 12.7504 9.34863 12.1286C9.34863 11.5069 9.88011 10.9814 10.49 10.9814Z" fill="#F9853D"/>
<path d="M7.13542 10.9814C7.75402 10.9814 8.27678 11.5156 8.27678 12.1286C8.27678 12.7416 7.74531 13.2846 7.13542 13.2846C6.52554 13.2846 5.98535 12.7504 5.98535 12.1286C5.98535 11.5069 6.51682 10.9814 7.13542 10.9814Z" fill="#F9853D"/>
<path d="M0.792852 7.70605C1.22849 7.70605 1.5857 8.0651 1.5857 8.50296C1.5857 8.94081 1.22849 9.29986 0.792852 9.29986C0.357219 9.29986 0 8.94081 0 8.50296C0 8.0651 0.357219 7.70605 0.792852 7.70605Z" fill="#F9853D"/>
<path d="M23.0888 34.1087C22.9146 34.1087 22.8274 34.0211 22.7403 33.9335L20.0045 31.1838C18.6802 31.6304 17.0945 31.2714 16.1274 30.2117C14.9773 29.0646 14.716 27.3744 15.3346 25.9558C15.4217 25.7806 15.5959 25.6931 15.7789 25.6055C15.9532 25.6055 16.1274 25.6055 16.3104 25.7806L17.7218 27.1993L18.6018 26.3148L17.1904 24.8962C17.1032 24.8086 17.0161 24.5459 17.0161 24.362C17.0161 24.1781 17.1904 24.0117 17.3646 23.9241C18.7761 23.3024 20.536 23.5651 21.599 24.721C22.6532 25.7806 23.0104 27.2869 22.5661 28.6179L25.3018 31.3677C25.4761 31.5428 25.4761 31.9019 25.3018 32.1646C25.1276 32.3397 24.7704 32.3397 24.509 32.1646L21.4247 29.3273C21.2505 29.1521 21.2505 28.8807 21.3376 28.7055C21.7819 27.6459 21.599 26.49 20.8061 25.6931C20.1875 25.0713 19.3947 24.8086 18.6018 24.8962L19.7519 26.0521C19.9261 26.2272 19.9261 26.5863 19.7519 26.849L18.079 28.5304C17.9919 28.6179 17.8177 28.7055 17.7305 28.7055C17.6434 28.7055 17.4692 28.6179 17.382 28.5304L16.1448 27.2869C16.0577 28.0838 16.3191 28.8807 16.9377 29.5024C17.7305 30.2993 18.9677 30.562 19.9348 30.0366C20.1091 29.949 20.3792 29.949 20.5534 30.1242L23.5506 33.1366C23.7248 33.3118 23.7248 33.6708 23.5506 33.9335C23.4635 34.0211 23.2892 34.1087 23.1062 34.1087H23.0888Z" fill="#F9853D"/>
<path d="M30.7559 43.4096C29.7888 43.4096 28.7258 43.0506 28.0201 42.2537C26.9659 41.1941 26.6086 39.6879 27.053 38.3568L24.3172 35.607C24.143 35.4319 24.143 35.0728 24.3172 34.8101C24.4915 34.635 24.8487 34.635 25.1101 34.8101L28.1072 37.8226C28.2815 37.9977 28.2815 38.2692 28.1943 38.4443C27.75 39.504 27.933 40.6599 28.7258 41.4568C29.3444 42.0786 30.1373 42.3413 30.9301 42.2537L29.7801 41.0978C29.6929 41.0102 29.6058 40.835 29.6058 40.7475C29.6058 40.6599 29.6929 40.4848 29.7801 40.3972L31.4529 38.7158C31.54 38.6282 31.7143 38.5407 31.8014 38.5407C31.9756 38.5407 32.0628 38.6282 32.1499 38.7158L33.2913 39.863C33.3784 39.0661 33.117 38.2692 32.4984 37.6474C31.7055 36.8505 30.4684 36.5878 29.5012 37.1133C29.327 37.2008 29.0569 37.2008 28.8826 37.0257L25.8855 34.0132C25.7112 33.8381 25.7112 33.479 25.8855 33.2163C26.0597 33.0412 26.417 33.0412 26.6783 33.2163L29.4141 35.9661C30.7384 35.5195 32.3241 35.8785 33.2913 36.9381C34.4326 38.0853 34.7027 39.7754 34.0841 41.1941C33.997 41.3692 33.8227 41.4568 33.6398 41.5444C33.4655 41.5444 33.2913 41.5444 33.1083 41.3692L31.6968 39.9506L30.8169 40.835L32.2283 42.2537C32.3154 42.3413 32.4026 42.604 32.4026 42.7879C32.4026 42.9718 32.2283 43.1382 32.0541 43.2257C31.7927 43.2257 31.2612 43.4009 30.7297 43.4009L30.7559 43.4096Z" fill="#F9853D"/>
<path d="M18.8631 43.4087C18.3316 43.4087 17.8088 43.3212 17.2773 43.0497C17.1031 42.9621 17.016 42.787 16.9288 42.6031C16.9288 42.4279 16.9288 42.2528 17.1031 42.0689L18.5145 40.6502L17.6346 39.7658L16.2231 41.1844C16.136 41.3596 15.9617 41.4471 15.7788 41.4471C15.5958 41.4471 15.4303 41.272 15.3344 41.0881C14.7158 39.6694 14.9859 37.9005 16.1273 36.8321C16.833 36.1228 17.8001 35.6849 18.8631 35.6849C19.3074 35.6849 19.6559 35.7725 20.1003 35.8601L27.1488 28.7755C26.7044 27.4444 27.0617 25.8506 28.1159 24.8786C28.8216 24.1693 29.7887 23.7227 30.8517 23.7227C31.3831 23.7227 31.9059 23.8102 32.4374 24.0817C32.6116 24.1693 32.6988 24.3444 32.7859 24.5283C32.7859 24.7035 32.7859 24.8786 32.6116 25.0625L31.0259 26.3936L31.9059 27.2781L33.3174 25.8594C33.4045 25.7718 33.6659 25.6843 33.8488 25.6843C34.0318 25.6843 34.1973 25.8594 34.2932 26.0433C34.9118 27.462 34.6417 29.2309 33.5003 30.2993C32.7946 31.0086 31.8275 31.4465 30.7645 31.4465C30.3202 31.4465 29.9717 31.3589 29.5273 31.2713L22.4788 38.3559C22.9232 39.687 22.5659 41.2808 21.5117 42.2528C20.806 42.9621 19.8389 43.4087 18.8718 43.4087H18.8631ZM18.593 42.2528H18.8543C19.5601 42.2528 20.2658 41.9901 20.7973 41.4559C21.5901 40.659 21.8515 39.4155 21.3287 38.4434C21.2416 38.2683 21.2416 37.9968 21.4159 37.8217L28.9959 30.203C29.1701 30.0278 29.4402 30.0278 29.6145 30.1154C29.963 30.2905 30.3202 30.3781 30.7558 30.3781C31.4616 30.3781 32.1673 30.1154 32.6988 29.5812C33.3174 28.9594 33.5787 28.1625 33.4916 27.3656L32.3415 28.5216C32.1673 28.6967 31.8101 28.6967 31.5487 28.5216L29.8759 26.8402C29.7887 26.7526 29.7016 26.5775 29.7016 26.4899C29.7016 26.4023 29.7887 26.2272 29.8759 26.1309L31.0259 24.9837H30.7645C30.0588 24.9837 29.3531 25.2464 28.8216 25.7806C28.0288 26.5775 27.7674 27.821 28.2902 28.7931C28.3773 28.9682 28.3773 29.2397 28.203 29.4148L20.5359 36.946C20.3616 37.1211 20.0915 37.1211 19.9173 37.0335C19.5688 36.8584 19.2116 36.7708 18.7759 36.7708C18.0702 36.7708 17.3645 37.0335 16.833 37.5677C16.2144 38.1895 15.953 38.9864 16.0402 39.7833L17.1902 38.6273C17.2773 38.5398 17.4516 38.4522 17.5387 38.4522C17.6259 38.4522 17.8001 38.5398 17.8872 38.6273L19.5601 40.3087C19.7343 40.4839 19.7343 40.8429 19.5601 41.1056L18.593 42.2616V42.2528Z" fill="#F9853D"/>
<path d="M45.7413 16.0342H2.73557C2.47419 16.0342 2.2041 15.7715 2.2041 15.5C2.2041 15.2285 2.46548 14.9658 2.73557 14.9658H45.75C46.0114 14.9658 46.2814 15.2285 46.2814 15.5C46.2814 15.7715 46.0201 16.0342 45.75 16.0342H45.7413Z" fill="#F9853D"/>
<path d="M45.7415 12.6719H20.3616C20.1002 12.6719 19.8301 12.4092 19.8301 12.1377C19.8301 11.8662 20.0915 11.6035 20.3616 11.6035H45.7415C46.0029 11.6035 46.273 11.8662 46.273 12.1377C46.273 12.4092 46.0116 12.6719 45.7415 12.6719Z" fill="#F9853D"/>
<path d="M8.81758 6.55905C7.58039 6.55905 6.61328 5.58701 6.61328 4.34349C6.61328 3.09997 7.58039 2.12793 8.81758 2.12793C10.0548 2.12793 11.0219 3.09997 11.0219 4.34349C11.0219 5.58701 10.0548 6.55905 8.81758 6.55905ZM8.81758 3.27512C8.19899 3.27512 7.66751 3.8093 7.66751 4.42231C7.66751 5.03531 8.19899 5.57825 8.81758 5.57825C9.43618 5.57825 9.95894 5.04406 9.95894 4.42231C9.87182 3.71298 9.42747 3.27512 8.81758 3.27512Z" fill="#F9853D"/>
<path d="M39.3985 6.02492C37.7257 6.02492 36.4014 4.69384 36.4014 3.01246C36.4014 1.33109 37.7257 0 39.3985 0C41.0714 0 42.3957 1.33109 42.3957 3.01246C42.3957 4.69384 41.0714 6.02492 39.3985 6.02492ZM39.3985 1.05962C38.3443 1.05962 37.4556 1.94409 37.4556 3.01246C37.4556 4.08084 38.3356 4.96531 39.3985 4.96531C40.4615 4.96531 41.3414 4.08084 41.3414 3.01246C41.3414 1.94409 40.4615 1.05962 39.3985 1.05962Z" fill="#F9853D"/>
<path d="M20.3616 16.0344C20.1002 16.0344 19.8301 15.7717 19.8301 15.5002V8.85352C19.8301 8.59081 20.0915 8.31934 20.3616 8.31934C20.6316 8.31934 20.893 8.58205 20.893 8.85352V15.5002C20.893 15.7629 20.7188 16.0344 20.3616 16.0344Z" fill="#F9853D"/>
<path d="M42.7441 51.9997H5.73273C3.78981 51.9997 2.2041 50.4059 2.2041 48.4531V11.7781C2.2041 9.82525 3.78981 8.23145 5.73273 8.23145H42.7528C44.6957 8.23145 46.2814 9.82525 46.2814 11.7781V48.4531C46.2814 50.4059 44.6957 51.9997 42.7528 51.9997H42.7441ZM5.73273 9.38739C4.4084 9.38739 3.26705 10.447 3.26705 11.8657V48.5406C3.26705 49.8717 4.32128 51.0189 5.73273 51.0189H42.7528C44.0771 51.0189 45.2185 49.9593 45.2185 48.5406V11.7781C45.2185 10.447 44.1643 9.29982 42.7528 9.29982H5.73273V9.38739Z" fill="#F9853D"/>
<path d="M41.3332 47.5689H7.13596C6.87458 47.5689 6.60449 47.3062 6.60449 47.0347V19.835C6.60449 19.5723 6.86587 19.3008 7.13596 19.3008H41.3332C41.5945 19.3008 41.8646 19.5635 41.8646 19.835V46.9471C41.8646 47.2974 41.6032 47.5689 41.3332 47.5689ZM7.66744 46.4217H40.7146V20.4655H7.66744V46.4217Z" fill="#F9853D"/>
<path d="M2.73535 15.4121V48.4529C2.73535 50.1342 4.05968 51.4653 5.73251 51.4653H42.7526C44.4254 51.4653 45.7498 50.1342 45.7498 48.4529V15.4121H2.73535Z" fill="#FEEFE6"/>
<path d="M8.81736 2.75C9.69734 2.75 10.4902 3.45933 10.4902 4.43137C10.4902 5.31585 9.78447 6.11275 8.81736 6.11275C7.85026 6.11275 7.14453 5.40342 7.14453 4.43137C7.14453 3.45933 7.93738 2.75 8.81736 2.75Z" fill="#FEEFE6"/>
<path d="M39.3983 0.53418C40.8098 0.53418 41.864 1.68137 41.864 3.01246C41.864 4.43112 40.7226 5.49073 39.3983 5.49073C38.074 5.49073 36.9326 4.33479 36.9326 3.01246C36.9326 1.5938 37.9869 0.53418 39.3983 0.53418Z" fill="#FEEFE6"/>
<path d="M45.7413 12.1377H20.3613V15.5004H45.7413V12.1377Z" fill="#FCC19C"/>
<path d="M45.7413 11.7781V12.1284H20.3613V8.76562H42.7442C44.417 8.76562 45.7413 10.0967 45.7413 11.7781Z" fill="#FEEFE6"/>
<path d="M20.3611 15.4123H2.73535V11.7781C2.73535 10.0967 4.05968 8.76562 5.73251 8.76562H20.3611V15.4123Z" fill="#FEEFE6"/>
<path d="M41.3329 19.8438V46.9559H7.13574V19.8438H41.3329Z" fill="#FCC19C"/>
<path d="M33.0475 37.2094C34.0146 38.1815 34.2847 39.6877 33.7532 40.8436L31.9061 38.9871L30.2333 40.6685L32.0804 42.525C30.8432 43.0592 29.4404 42.8753 28.4646 41.8157C27.4975 40.8436 27.2274 39.3374 27.7589 38.1815L24.7617 35.2566L26.4345 33.5752L29.4317 36.5877C30.5731 35.9659 32.0716 36.2374 33.0475 37.2094Z" fill="#FEEFE6"/>
<path d="M24.7704 31.8937L23.0976 33.5751L20.1005 30.5626C18.8633 31.0968 17.4605 30.9129 16.4847 29.8533C15.5176 28.8812 15.2475 27.375 15.779 26.219L17.6261 28.0756L19.2989 26.3942L17.4518 24.5377C18.689 24.0035 20.0917 24.1786 21.0676 25.247C22.0347 26.219 22.3048 27.7253 21.7733 28.8812L24.7704 31.8937Z" fill="#FEEFE6"/>
<path d="M33.6662 26.2186C34.1976 27.4621 34.0147 28.872 32.9604 29.8528C31.9933 30.8248 30.4948 31.0963 29.3447 30.5621L26.3475 33.5746L24.7618 35.2559L21.7647 38.2684C22.2961 39.5119 22.1132 40.9218 21.0589 41.9026C20.0918 42.8747 18.5933 43.1461 17.4432 42.6119L19.2903 40.7554L17.6174 39.0741L15.7704 40.9306C15.2389 39.6871 15.4218 38.2772 16.4761 37.2964C17.4432 36.3243 18.9418 36.0528 20.0918 36.587L23.089 33.5746L24.7618 31.8932L27.759 28.8807C27.2275 27.6372 27.4105 26.2273 28.4647 25.2465C29.4318 24.2745 30.9304 24.003 32.0805 24.5372L30.2334 26.3937L31.9062 28.0751L33.6662 26.2186Z" fill="#FEEFE6"/>
<path d="M48.2069 7.70605C48.6426 7.70605 48.9998 8.0651 48.9998 8.50296C48.9998 8.94081 48.6426 9.29986 48.2069 9.29986C47.7713 9.29986 47.4141 8.94081 47.4141 8.50296C47.4141 8.0651 47.7713 7.70605 48.2069 7.70605Z" fill="#F9853D"/>
<path d="M31.6444 3.27539C32.08 3.27539 32.4373 3.63443 32.4373 4.07229C32.4373 4.51015 32.08 4.86919 31.6444 4.86919C31.2088 4.86919 30.8516 4.51015 30.8516 4.07229C30.8516 3.63443 31.2088 3.27539 31.6444 3.27539Z" fill="#F9853D"/>
<path d="M21.7733 5.49121C22.209 5.49121 22.5662 5.85025 22.5662 6.28811C22.5662 6.72597 22.209 7.08501 21.7733 7.08501C21.3377 7.08501 20.9805 6.72597 20.9805 6.28811C20.9805 5.85025 21.3377 5.49121 21.7733 5.49121Z" fill="#F9853D"/>
<path d="M16.2147 2.21582C16.6504 2.21582 17.0076 2.57486 17.0076 3.01272C17.0076 3.45058 16.6504 3.80962 16.2147 3.80962C15.7791 3.80962 15.4219 3.45058 15.4219 3.01272C15.4219 2.57486 15.7791 2.21582 16.2147 2.21582Z" fill="#F9853D"/>
<path d="M13.7487 10.9814C14.3673 10.9814 14.8901 11.5156 14.8901 12.1286C14.8901 12.7416 14.3586 13.2846 13.7487 13.2846C13.1388 13.2846 12.5986 12.7504 12.5986 12.1286C12.5986 11.5069 13.1301 10.9814 13.7487 10.9814Z" fill="#F9853D"/>
<path d="M10.49 10.9814C11.1086 10.9814 11.6401 11.5156 11.6401 12.1286C11.6401 12.7416 11.1086 13.2846 10.49 13.2846C9.87139 13.2846 9.34863 12.7504 9.34863 12.1286C9.34863 11.5069 9.88011 10.9814 10.49 10.9814Z" fill="#F9853D"/>
<path d="M7.13542 10.9814C7.75402 10.9814 8.27678 11.5156 8.27678 12.1286C8.27678 12.7416 7.74531 13.2846 7.13542 13.2846C6.52554 13.2846 5.98535 12.7504 5.98535 12.1286C5.98535 11.5069 6.51682 10.9814 7.13542 10.9814Z" fill="#F9853D"/>
<path d="M0.792852 7.70605C1.22849 7.70605 1.5857 8.0651 1.5857 8.50296C1.5857 8.94081 1.22849 9.29986 0.792852 9.29986C0.357219 9.29986 0 8.94081 0 8.50296C0 8.0651 0.357219 7.70605 0.792852 7.70605Z" fill="#F9853D"/>
<path d="M23.0888 34.1087C22.9146 34.1087 22.8274 34.0211 22.7403 33.9335L20.0045 31.1838C18.6802 31.6304 17.0945 31.2714 16.1274 30.2117C14.9773 29.0646 14.716 27.3744 15.3346 25.9558C15.4217 25.7806 15.5959 25.6931 15.7789 25.6055C15.9532 25.6055 16.1274 25.6055 16.3104 25.7806L17.7218 27.1993L18.6018 26.3148L17.1904 24.8962C17.1032 24.8086 17.0161 24.5459 17.0161 24.362C17.0161 24.1781 17.1904 24.0117 17.3646 23.9241C18.7761 23.3024 20.536 23.5651 21.599 24.721C22.6532 25.7806 23.0104 27.2869 22.5661 28.6179L25.3018 31.3677C25.4761 31.5428 25.4761 31.9019 25.3018 32.1646C25.1276 32.3397 24.7704 32.3397 24.509 32.1646L21.4247 29.3273C21.2505 29.1521 21.2505 28.8807 21.3376 28.7055C21.7819 27.6459 21.599 26.49 20.8061 25.6931C20.1875 25.0713 19.3947 24.8086 18.6018 24.8962L19.7519 26.0521C19.9261 26.2272 19.9261 26.5863 19.7519 26.849L18.079 28.5304C17.9919 28.6179 17.8177 28.7055 17.7305 28.7055C17.6434 28.7055 17.4692 28.6179 17.382 28.5304L16.1448 27.2869C16.0577 28.0838 16.3191 28.8807 16.9377 29.5024C17.7305 30.2993 18.9677 30.562 19.9348 30.0366C20.1091 29.949 20.3792 29.949 20.5534 30.1242L23.5506 33.1366C23.7248 33.3118 23.7248 33.6708 23.5506 33.9335C23.4635 34.0211 23.2892 34.1087 23.1062 34.1087H23.0888Z" fill="#F9853D"/>
<path d="M30.7559 43.4096C29.7888 43.4096 28.7258 43.0506 28.0201 42.2537C26.9659 41.1941 26.6086 39.6879 27.053 38.3568L24.3172 35.607C24.143 35.4319 24.143 35.0728 24.3172 34.8101C24.4915 34.635 24.8487 34.635 25.1101 34.8101L28.1072 37.8226C28.2815 37.9977 28.2815 38.2692 28.1943 38.4443C27.75 39.504 27.933 40.6599 28.7258 41.4568C29.3444 42.0786 30.1373 42.3413 30.9301 42.2537L29.7801 41.0978C29.6929 41.0102 29.6058 40.835 29.6058 40.7475C29.6058 40.6599 29.6929 40.4848 29.7801 40.3972L31.4529 38.7158C31.54 38.6282 31.7143 38.5407 31.8014 38.5407C31.9756 38.5407 32.0628 38.6282 32.1499 38.7158L33.2913 39.863C33.3784 39.0661 33.117 38.2692 32.4984 37.6474C31.7055 36.8505 30.4684 36.5878 29.5012 37.1133C29.327 37.2008 29.0569 37.2008 28.8826 37.0257L25.8855 34.0132C25.7112 33.8381 25.7112 33.479 25.8855 33.2163C26.0597 33.0412 26.417 33.0412 26.6783 33.2163L29.4141 35.9661C30.7384 35.5195 32.3241 35.8785 33.2913 36.9381C34.4326 38.0853 34.7027 39.7754 34.0841 41.1941C33.997 41.3692 33.8227 41.4568 33.6398 41.5444C33.4655 41.5444 33.2913 41.5444 33.1083 41.3692L31.6968 39.9506L30.8169 40.835L32.2283 42.2537C32.3154 42.3413 32.4026 42.604 32.4026 42.7879C32.4026 42.9718 32.2283 43.1382 32.0541 43.2257C31.7927 43.2257 31.2612 43.4009 30.7297 43.4009L30.7559 43.4096Z" fill="#F9853D"/>
<path d="M18.8631 43.4087C18.3316 43.4087 17.8088 43.3212 17.2773 43.0497C17.1031 42.9621 17.016 42.787 16.9288 42.6031C16.9288 42.4279 16.9288 42.2528 17.1031 42.0689L18.5145 40.6502L17.6346 39.7658L16.2231 41.1844C16.136 41.3596 15.9617 41.4471 15.7788 41.4471C15.5958 41.4471 15.4303 41.272 15.3344 41.0881C14.7158 39.6694 14.9859 37.9005 16.1273 36.8321C16.833 36.1228 17.8001 35.6849 18.8631 35.6849C19.3074 35.6849 19.6559 35.7725 20.1003 35.8601L27.1488 28.7755C26.7044 27.4444 27.0617 25.8506 28.1159 24.8786C28.8216 24.1693 29.7887 23.7227 30.8517 23.7227C31.3831 23.7227 31.9059 23.8102 32.4374 24.0817C32.6116 24.1693 32.6988 24.3444 32.7859 24.5283C32.7859 24.7035 32.7859 24.8786 32.6116 25.0625L31.0259 26.3936L31.9059 27.2781L33.3174 25.8594C33.4045 25.7718 33.6659 25.6843 33.8488 25.6843C34.0318 25.6843 34.1973 25.8594 34.2932 26.0433C34.9118 27.462 34.6417 29.2309 33.5003 30.2993C32.7946 31.0086 31.8275 31.4465 30.7645 31.4465C30.3202 31.4465 29.9717 31.3589 29.5273 31.2713L22.4788 38.3559C22.9232 39.687 22.5659 41.2808 21.5117 42.2528C20.806 42.9621 19.8389 43.4087 18.8718 43.4087H18.8631ZM18.593 42.2528H18.8543C19.5601 42.2528 20.2658 41.9901 20.7973 41.4559C21.5901 40.659 21.8515 39.4155 21.3287 38.4434C21.2416 38.2683 21.2416 37.9968 21.4159 37.8217L28.9959 30.203C29.1701 30.0278 29.4402 30.0278 29.6145 30.1154C29.963 30.2905 30.3202 30.3781 30.7558 30.3781C31.4616 30.3781 32.1673 30.1154 32.6988 29.5812C33.3174 28.9594 33.5787 28.1625 33.4916 27.3656L32.3415 28.5216C32.1673 28.6967 31.8101 28.6967 31.5487 28.5216L29.8759 26.8402C29.7887 26.7526 29.7016 26.5775 29.7016 26.4899C29.7016 26.4023 29.7887 26.2272 29.8759 26.1309L31.0259 24.9837H30.7645C30.0588 24.9837 29.3531 25.2464 28.8216 25.7806C28.0288 26.5775 27.7674 27.821 28.2902 28.7931C28.3773 28.9682 28.3773 29.2397 28.203 29.4148L20.5359 36.946C20.3616 37.1211 20.0915 37.1211 19.9173 37.0335C19.5688 36.8584 19.2116 36.7708 18.7759 36.7708C18.0702 36.7708 17.3645 37.0335 16.833 37.5677C16.2144 38.1895 15.953 38.9864 16.0402 39.7833L17.1902 38.6273C17.2773 38.5398 17.4516 38.4522 17.5387 38.4522C17.6259 38.4522 17.8001 38.5398 17.8872 38.6273L19.5601 40.3087C19.7343 40.4839 19.7343 40.8429 19.5601 41.1056L18.593 42.2616V42.2528Z" fill="#F9853D"/>
<path d="M45.7413 16.0342H2.73557C2.47419 16.0342 2.2041 15.7715 2.2041 15.5C2.2041 15.2285 2.46548 14.9658 2.73557 14.9658H45.75C46.0114 14.9658 46.2814 15.2285 46.2814 15.5C46.2814 15.7715 46.0201 16.0342 45.75 16.0342H45.7413Z" fill="#F9853D"/>
<path d="M45.7415 12.6719H20.3616C20.1002 12.6719 19.8301 12.4092 19.8301 12.1377C19.8301 11.8662 20.0915 11.6035 20.3616 11.6035H45.7415C46.0029 11.6035 46.273 11.8662 46.273 12.1377C46.273 12.4092 46.0116 12.6719 45.7415 12.6719Z" fill="#F9853D"/>
<path d="M8.81758 6.55905C7.58039 6.55905 6.61328 5.58701 6.61328 4.34349C6.61328 3.09997 7.58039 2.12793 8.81758 2.12793C10.0548 2.12793 11.0219 3.09997 11.0219 4.34349C11.0219 5.58701 10.0548 6.55905 8.81758 6.55905ZM8.81758 3.27512C8.19899 3.27512 7.66751 3.8093 7.66751 4.42231C7.66751 5.03531 8.19899 5.57825 8.81758 5.57825C9.43618 5.57825 9.95894 5.04406 9.95894 4.42231C9.87182 3.71298 9.42747 3.27512 8.81758 3.27512Z" fill="#F9853D"/>
<path d="M39.3985 6.02492C37.7257 6.02492 36.4014 4.69384 36.4014 3.01246C36.4014 1.33109 37.7257 0 39.3985 0C41.0714 0 42.3957 1.33109 42.3957 3.01246C42.3957 4.69384 41.0714 6.02492 39.3985 6.02492ZM39.3985 1.05962C38.3443 1.05962 37.4556 1.94409 37.4556 3.01246C37.4556 4.08084 38.3356 4.96531 39.3985 4.96531C40.4615 4.96531 41.3414 4.08084 41.3414 3.01246C41.3414 1.94409 40.4615 1.05962 39.3985 1.05962Z" fill="#F9853D"/>
<path d="M20.3616 16.0344C20.1002 16.0344 19.8301 15.7717 19.8301 15.5002V8.85352C19.8301 8.59081 20.0915 8.31934 20.3616 8.31934C20.6316 8.31934 20.893 8.58205 20.893 8.85352V15.5002C20.893 15.7629 20.7188 16.0344 20.3616 16.0344Z" fill="#F9853D"/>
<path d="M42.7441 51.9997H5.73273C3.78981 51.9997 2.2041 50.4059 2.2041 48.4531V11.7781C2.2041 9.82525 3.78981 8.23145 5.73273 8.23145H42.7528C44.6957 8.23145 46.2814 9.82525 46.2814 11.7781V48.4531C46.2814 50.4059 44.6957 51.9997 42.7528 51.9997H42.7441ZM5.73273 9.38739C4.4084 9.38739 3.26705 10.447 3.26705 11.8657V48.5406C3.26705 49.8717 4.32128 51.0189 5.73273 51.0189H42.7528C44.0771 51.0189 45.2185 49.9593 45.2185 48.5406V11.7781C45.2185 10.447 44.1643 9.29982 42.7528 9.29982H5.73273V9.38739Z" fill="#F9853D"/>
<path d="M41.3332 47.5689H7.13596C6.87458 47.5689 6.60449 47.3062 6.60449 47.0347V19.835C6.60449 19.5723 6.86587 19.3008 7.13596 19.3008H41.3332C41.5945 19.3008 41.8646 19.5635 41.8646 19.835V46.9471C41.8646 47.2974 41.6032 47.5689 41.3332 47.5689ZM7.66744 46.4217H40.7146V20.4655H7.66744V46.4217Z" fill="#F9853D"/>
</g>
<defs>
<clipPath id="clip0_125_2662">
<rect width="49" height="52" fill="white"/>
</clipPath>
</defs>
</svg>
