<svg width="51" height="55" viewBox="0 0 51 55" fill="none" xmlns="http://www.w3.org/2000/svg">
<g clip-path="url(#clip0_121_17213)">
<path d="M49.691 8.83691C50.1355 8.83691 50.5 9.2032 50.5 9.64989C50.5 10.0966 50.1355 10.4629 49.691 10.4629C49.2465 10.4629 48.882 10.0966 48.882 9.64989C48.882 9.2032 49.2465 8.83691 49.691 8.83691Z" fill="white"/>
<path d="M32.7902 4.31641C33.2348 4.31641 33.5993 4.68269 33.5993 5.12938C33.5993 5.57607 33.2348 5.94235 32.7902 5.94235C32.3457 5.94235 31.9812 5.57607 31.9812 5.12938C31.9812 4.68269 32.3457 4.31641 32.7902 4.31641Z" fill="white"/>
<path d="M22.7172 6.57715C23.1618 6.57715 23.5263 6.94343 23.5263 7.39012C23.5263 7.83681 23.1618 8.2031 22.7172 8.2031C22.2727 8.2031 21.9082 7.83681 21.9082 7.39012C21.9082 6.94343 22.2727 6.57715 22.7172 6.57715Z" fill="white"/>
<path d="M17.0451 3.23535C17.4896 3.23535 17.8541 3.60164 17.8541 4.04833C17.8541 4.49501 17.4896 4.8613 17.0451 4.8613C16.6006 4.8613 16.2361 4.49501 16.2361 4.04833C16.2361 3.60164 16.6006 3.23535 17.0451 3.23535Z" fill="white"/>
<path d="M14.5291 12.1787C15.1604 12.1787 15.6938 12.7237 15.6938 13.349C15.6938 13.9744 15.1515 14.5283 14.5291 14.5283C13.9068 14.5283 13.3556 13.9833 13.3556 13.349C13.3556 12.7147 13.8979 12.1787 14.5291 12.1787Z" fill="white"/>
<path d="M11.2041 12.1787C11.8353 12.1787 12.3776 12.7237 12.3776 13.349C12.3776 13.9744 11.8353 14.5283 11.2041 14.5283C10.5729 14.5283 10.0394 13.9833 10.0394 13.349C10.0394 12.7147 10.5817 12.1787 11.2041 12.1787Z" fill="white"/>
<path d="M7.78133 12.1787C8.41255 12.1787 8.94598 12.7237 8.94598 13.349C8.94598 13.9744 8.40366 14.5283 7.78133 14.5283C7.159 14.5283 6.60779 13.9833 6.60779 13.349C6.60779 12.7147 7.15011 12.1787 7.78133 12.1787Z" fill="white"/>
<path d="M1.30903 8.83691C1.75356 8.83691 2.11807 9.2032 2.11807 9.64989C2.11807 10.0966 1.75356 10.4629 1.30903 10.4629C0.864509 10.4629 0.5 10.0966 0.5 9.64989C0.5 9.2032 0.864509 8.83691 1.30903 8.83691Z" fill="white"/>
<path d="M24.0597 35.7728C23.8819 35.7728 23.793 35.6835 23.7041 35.5942L20.9125 32.789C19.5612 33.2446 17.9431 32.8783 16.9563 31.7973C15.7827 30.627 15.516 28.9028 16.1472 27.4555C16.2361 27.2768 16.4139 27.1875 16.6006 27.0981C16.7785 27.0981 16.9563 27.0981 17.143 27.2768L18.5832 28.7241L19.4812 27.8218L18.0409 26.3745C17.952 26.2852 17.8631 26.0172 17.8631 25.8295C17.8631 25.6419 18.0409 25.4722 18.2187 25.3829C19.659 24.7486 21.4548 25.0166 22.5395 26.1958C23.6152 27.2768 23.9797 28.8134 23.5263 30.1714L26.3179 32.9766C26.4957 33.1552 26.4957 33.5215 26.3179 33.7895C26.1401 33.9682 25.7756 33.9682 25.5089 33.7895L22.3617 30.895C22.1839 30.7163 22.1839 30.4394 22.2728 30.2607C22.7262 29.1797 22.5395 28.0005 21.7304 27.1875C21.0992 26.5532 20.2902 26.2852 19.4812 26.3745L20.6547 27.5538C20.8325 27.7324 20.8325 28.0987 20.6547 28.3667L18.9477 30.082C18.8588 30.1714 18.681 30.2607 18.5921 30.2607C18.5032 30.2607 18.3254 30.1714 18.2365 30.082L16.974 28.8134C16.8851 29.6264 17.1519 30.4394 17.7831 31.0737C18.5921 31.8867 19.8546 32.1547 20.8414 31.6186C21.0192 31.5293 21.2948 31.5293 21.4726 31.708L24.5309 34.7812C24.7088 34.9599 24.7088 35.3262 24.5309 35.5942C24.442 35.6835 24.2642 35.7728 24.0775 35.7728H24.0597Z" fill="white"/>
<path d="M31.8833 45.2605C30.8965 45.2605 29.8119 44.8942 29.0917 44.0812C28.016 43.0002 27.6515 41.4636 28.1049 40.1057L25.3133 37.3005C25.1355 37.1218 25.1355 36.7555 25.3133 36.4875C25.4911 36.3088 25.8556 36.3088 26.1223 36.4875L29.1806 39.5607C29.3585 39.7394 29.3585 40.0163 29.2695 40.195C28.8161 41.276 29.0028 42.4553 29.8119 43.2682C30.4431 43.9025 31.2521 44.1705 32.0612 44.0812L30.8876 42.9019C30.7987 42.8126 30.7098 42.6339 30.7098 42.5446C30.7098 42.4553 30.7987 42.2766 30.8876 42.1872L32.5946 40.472C32.6835 40.3826 32.8613 40.2933 32.9502 40.2933C33.128 40.2933 33.2169 40.3826 33.3058 40.472L34.4705 41.6423C34.5594 40.8293 34.2927 40.0163 33.6614 39.382C32.8524 38.5691 31.59 38.3011 30.6031 38.8371C30.4253 38.9264 30.1497 38.9264 29.9719 38.7477L26.9136 35.6745C26.7358 35.4958 26.7358 35.1296 26.9136 34.8615C27.0914 34.6829 27.4559 34.6829 27.7226 34.8615L30.5142 37.6668C31.8656 37.2111 33.4836 37.5774 34.4705 38.6584C35.6351 39.8287 35.9107 41.5529 35.2795 43.0002C35.1906 43.1789 35.0128 43.2682 34.8261 43.3576C34.6483 43.3576 34.4705 43.3576 34.2838 43.1789L32.8435 41.7316L31.9456 42.6339L33.3858 44.0812C33.4747 44.1705 33.5636 44.4386 33.5636 44.6262C33.5636 44.8138 33.3858 44.9835 33.208 45.0729C32.9413 45.0729 32.399 45.2515 31.8567 45.2515L31.8833 45.2605Z" fill="white"/>
<path d="M19.7478 45.2599C19.2055 45.2599 18.6721 45.1706 18.1298 44.8936C17.9519 44.8043 17.863 44.6256 17.7741 44.438C17.7741 44.2593 17.7741 44.0806 17.9519 43.893L19.3922 42.4457L18.4943 41.5434L17.054 42.9907C16.9651 43.1694 16.7873 43.2587 16.6006 43.2587C16.4139 43.2587 16.245 43.08 16.1472 42.8924C15.516 41.4452 15.7916 39.6405 16.9562 38.5506C17.6763 37.827 18.6632 37.3803 19.7478 37.3803C20.2012 37.3803 20.5569 37.4696 21.0103 37.559L28.2027 30.3315C27.7492 28.9736 28.1138 27.3477 29.1895 26.356C29.9096 25.6324 30.8965 25.1768 31.9811 25.1768C32.5234 25.1768 33.0569 25.2661 33.5992 25.543C33.777 25.6324 33.8659 25.8111 33.9548 25.9987C33.9548 26.1773 33.9548 26.356 33.777 26.5436L32.1589 27.9016L33.0569 28.8039L34.4971 27.3566C34.586 27.2673 34.8527 27.1779 35.0394 27.1779C35.2261 27.1779 35.3951 27.3566 35.4928 27.5442C36.1241 28.9915 35.8485 30.7961 34.6838 31.886C33.9637 32.6097 32.9768 33.0563 31.8922 33.0563C31.4388 33.0563 31.0832 32.967 30.6298 32.8777L23.4374 40.1051C23.8908 41.463 23.5263 43.089 22.4505 44.0806C21.7304 44.8043 20.7436 45.2599 19.7567 45.2599H19.7478ZM19.4722 44.0806H19.7389C20.4591 44.0806 21.1792 43.8126 21.7215 43.2677C22.5305 42.4547 22.7973 41.1861 22.2638 40.1944C22.1749 40.0158 22.1749 39.7388 22.3527 39.5601L30.0874 31.7878C30.2652 31.6091 30.5409 31.6091 30.7187 31.6984C31.0743 31.8771 31.4388 31.9664 31.8833 31.9664C32.6034 31.9664 33.3236 31.6984 33.8659 31.1535C34.4971 30.5192 34.7638 29.7062 34.6749 28.8932L33.5014 30.0725C33.3236 30.2511 32.9591 30.2511 32.6923 30.0725L30.9854 28.3572C30.8965 28.2678 30.8076 28.0892 30.8076 27.9998C30.8076 27.9105 30.8965 27.7318 30.9854 27.6335L32.1589 26.4632H31.8922C31.1721 26.4632 30.452 26.7312 29.9096 27.2762C29.1006 28.0892 28.8339 29.3578 29.3673 30.3494C29.4562 30.5281 29.4562 30.805 29.2784 30.9837L21.4548 38.6668C21.277 38.8454 21.0014 38.8454 20.8236 38.7561C20.468 38.5774 20.1034 38.4881 19.6589 38.4881C18.9388 38.4881 18.2187 38.7561 17.6763 39.3011C17.0451 39.9354 16.7784 40.7483 16.8673 41.5613L18.0409 40.382C18.1298 40.2927 18.3076 40.2034 18.3965 40.2034C18.4854 40.2034 18.6632 40.2927 18.7521 40.382L20.4591 42.0973C20.6369 42.276 20.6369 42.6423 20.4591 42.9103L19.4722 44.0896V44.0806Z" fill="white"/>
<path d="M47.1749 17.3331H3.29159C3.02487 17.3331 2.74927 17.0651 2.74927 16.7881C2.74927 16.5112 3.01598 16.2432 3.29159 16.2432H47.1838C47.4505 16.2432 47.7262 16.5112 47.7262 16.7881C47.7262 17.0651 47.4594 17.3331 47.1838 17.3331H47.1749Z" fill="white"/>
<path d="M47.175 13.9024H21.2771C21.0103 13.9024 20.7347 13.6344 20.7347 13.3575C20.7347 13.0805 21.0015 12.8125 21.2771 12.8125H47.175C47.4417 12.8125 47.7173 13.0805 47.7173 13.3575C47.7173 13.6344 47.4506 13.9024 47.175 13.9024Z" fill="white"/>
<path d="M9.49721 7.66698C8.23477 7.66698 7.24792 6.67533 7.24792 5.40673C7.24792 4.13813 8.23477 3.14648 9.49721 3.14648C10.7597 3.14648 11.7465 4.13813 11.7465 5.40673C11.7465 6.67533 10.7597 7.66698 9.49721 7.66698ZM9.49721 4.31681C8.86599 4.31681 8.32367 4.86177 8.32367 5.48713C8.32367 6.1125 8.86599 6.66639 9.49721 6.66639C10.1284 6.66639 10.6619 6.12143 10.6619 5.48713C10.573 4.7635 10.1195 4.31681 9.49721 4.31681Z" fill="white"/>
<path d="M40.7027 7.12203C38.9958 7.12203 37.6444 5.76409 37.6444 4.04881C37.6444 2.33352 38.9958 0.975586 40.7027 0.975586C42.4097 0.975586 43.7611 2.33352 43.7611 4.04881C43.7611 5.76409 42.4097 7.12203 40.7027 7.12203ZM40.7027 2.05657C39.627 2.05657 38.7202 2.95889 38.7202 4.04881C38.7202 5.13873 39.6181 6.04104 40.7027 6.04104C41.7874 6.04104 42.6853 5.13873 42.6853 4.04881C42.6853 2.95889 41.7874 2.05657 40.7027 2.05657Z" fill="white"/>
<path d="M21.2771 17.3335C21.0103 17.3335 20.7347 17.0655 20.7347 16.7886V10.0079C20.7347 9.73984 21.0015 9.46289 21.2771 9.46289C21.5527 9.46289 21.8194 9.7309 21.8194 10.0079V16.7886C21.8194 17.0566 21.6416 17.3335 21.2771 17.3335Z" fill="white"/>
<path d="M44.1166 54.0241H6.34991C4.36733 54.0241 2.74927 52.3981 2.74927 50.4059V12.9912C2.74927 10.999 4.36733 9.37305 6.34991 9.37305H44.1255C46.1081 9.37305 47.7262 10.999 47.7262 12.9912V50.4059C47.7262 52.3981 46.1081 54.0241 44.1255 54.0241H44.1166ZM6.34991 10.5523C4.99856 10.5523 3.8339 11.6333 3.8339 13.0806V50.4952C3.8339 51.8532 4.90965 53.0235 6.34991 53.0235H44.1255C45.4769 53.0235 46.6415 51.9425 46.6415 50.4952V12.9912C46.6415 11.6333 45.5658 10.463 44.1255 10.463H6.34991V10.5523Z" fill="white"/>
<path d="M42.6764 49.5043H7.78133C7.51462 49.5043 7.23901 49.2362 7.23901 48.9593V21.211C7.23901 20.943 7.50573 20.666 7.78133 20.666H42.6764C42.9431 20.666 43.2187 20.934 43.2187 21.211V48.87C43.2187 49.2273 42.952 49.5043 42.6764 49.5043ZM8.32365 48.3339H42.0452V21.8542H8.32365V48.3339Z" fill="white"/>
<path d="M49.691 8.83691C50.1355 8.83691 50.5 9.2032 50.5 9.64989C50.5 10.0966 50.1355 10.4629 49.691 10.4629C49.2465 10.4629 48.882 10.0966 48.882 9.64989C48.882 9.2032 49.2465 8.83691 49.691 8.83691Z" fill="white"/>
<path d="M32.7902 4.31641C33.2348 4.31641 33.5993 4.68269 33.5993 5.12938C33.5993 5.57607 33.2348 5.94235 32.7902 5.94235C32.3457 5.94235 31.9812 5.57607 31.9812 5.12938C31.9812 4.68269 32.3457 4.31641 32.7902 4.31641Z" fill="white"/>
<path d="M22.7172 6.57715C23.1618 6.57715 23.5263 6.94343 23.5263 7.39012C23.5263 7.83681 23.1618 8.2031 22.7172 8.2031C22.2727 8.2031 21.9082 7.83681 21.9082 7.39012C21.9082 6.94343 22.2727 6.57715 22.7172 6.57715Z" fill="white"/>
<path d="M17.0451 3.23535C17.4896 3.23535 17.8541 3.60164 17.8541 4.04833C17.8541 4.49501 17.4896 4.8613 17.0451 4.8613C16.6006 4.8613 16.2361 4.49501 16.2361 4.04833C16.2361 3.60164 16.6006 3.23535 17.0451 3.23535Z" fill="white"/>
<path d="M14.5291 12.1787C15.1604 12.1787 15.6938 12.7237 15.6938 13.349C15.6938 13.9744 15.1515 14.5283 14.5291 14.5283C13.9068 14.5283 13.3556 13.9833 13.3556 13.349C13.3556 12.7147 13.8979 12.1787 14.5291 12.1787Z" fill="white"/>
<path d="M11.2041 12.1787C11.8353 12.1787 12.3776 12.7237 12.3776 13.349C12.3776 13.9744 11.8353 14.5283 11.2041 14.5283C10.5729 14.5283 10.0394 13.9833 10.0394 13.349C10.0394 12.7147 10.5817 12.1787 11.2041 12.1787Z" fill="white"/>
<path d="M7.78133 12.1787C8.41255 12.1787 8.94598 12.7237 8.94598 13.349C8.94598 13.9744 8.40366 14.5283 7.78133 14.5283C7.159 14.5283 6.60779 13.9833 6.60779 13.349C6.60779 12.7147 7.15011 12.1787 7.78133 12.1787Z" fill="white"/>
<path d="M1.30903 8.83691C1.75356 8.83691 2.11807 9.2032 2.11807 9.64989C2.11807 10.0966 1.75356 10.4629 1.30903 10.4629C0.864509 10.4629 0.5 10.0966 0.5 9.64989C0.5 9.2032 0.864509 8.83691 1.30903 8.83691Z" fill="white"/>
<path d="M24.0597 35.7728C23.8819 35.7728 23.793 35.6835 23.7041 35.5942L20.9125 32.789C19.5612 33.2446 17.9431 32.8783 16.9563 31.7973C15.7827 30.627 15.516 28.9028 16.1472 27.4555C16.2361 27.2768 16.4139 27.1875 16.6006 27.0981C16.7785 27.0981 16.9563 27.0981 17.143 27.2768L18.5832 28.7241L19.4812 27.8218L18.0409 26.3745C17.952 26.2852 17.8631 26.0172 17.8631 25.8295C17.8631 25.6419 18.0409 25.4722 18.2187 25.3829C19.659 24.7486 21.4548 25.0166 22.5395 26.1958C23.6152 27.2768 23.9797 28.8134 23.5263 30.1714L26.3179 32.9766C26.4957 33.1552 26.4957 33.5215 26.3179 33.7895C26.1401 33.9682 25.7756 33.9682 25.5089 33.7895L22.3617 30.895C22.1839 30.7163 22.1839 30.4394 22.2728 30.2607C22.7262 29.1797 22.5395 28.0005 21.7304 27.1875C21.0992 26.5532 20.2902 26.2852 19.4812 26.3745L20.6547 27.5538C20.8325 27.7324 20.8325 28.0987 20.6547 28.3667L18.9477 30.082C18.8588 30.1714 18.681 30.2607 18.5921 30.2607C18.5032 30.2607 18.3254 30.1714 18.2365 30.082L16.974 28.8134C16.8851 29.6264 17.1519 30.4394 17.7831 31.0737C18.5921 31.8867 19.8546 32.1547 20.8414 31.6186C21.0192 31.5293 21.2948 31.5293 21.4726 31.708L24.5309 34.7812C24.7088 34.9599 24.7088 35.3262 24.5309 35.5942C24.442 35.6835 24.2642 35.7728 24.0775 35.7728H24.0597Z" fill="white"/>
<path d="M31.8833 45.2605C30.8965 45.2605 29.8119 44.8942 29.0917 44.0812C28.016 43.0002 27.6515 41.4636 28.1049 40.1057L25.3133 37.3005C25.1355 37.1218 25.1355 36.7555 25.3133 36.4875C25.4911 36.3088 25.8556 36.3088 26.1223 36.4875L29.1806 39.5607C29.3585 39.7394 29.3585 40.0163 29.2695 40.195C28.8161 41.276 29.0028 42.4553 29.8119 43.2682C30.4431 43.9025 31.2521 44.1705 32.0612 44.0812L30.8876 42.9019C30.7987 42.8126 30.7098 42.6339 30.7098 42.5446C30.7098 42.4553 30.7987 42.2766 30.8876 42.1872L32.5946 40.472C32.6835 40.3826 32.8613 40.2933 32.9502 40.2933C33.128 40.2933 33.2169 40.3826 33.3058 40.472L34.4705 41.6423C34.5594 40.8293 34.2927 40.0163 33.6614 39.382C32.8524 38.5691 31.59 38.3011 30.6031 38.8371C30.4253 38.9264 30.1497 38.9264 29.9719 38.7477L26.9136 35.6745C26.7358 35.4958 26.7358 35.1296 26.9136 34.8615C27.0914 34.6829 27.4559 34.6829 27.7226 34.8615L30.5142 37.6668C31.8656 37.2111 33.4836 37.5774 34.4705 38.6584C35.6351 39.8287 35.9107 41.5529 35.2795 43.0002C35.1906 43.1789 35.0128 43.2682 34.8261 43.3576C34.6483 43.3576 34.4705 43.3576 34.2838 43.1789L32.8435 41.7316L31.9456 42.6339L33.3858 44.0812C33.4747 44.1705 33.5636 44.4386 33.5636 44.6262C33.5636 44.8138 33.3858 44.9835 33.208 45.0729C32.9413 45.0729 32.399 45.2515 31.8567 45.2515L31.8833 45.2605Z" fill="white"/>
<path d="M19.7478 45.2599C19.2055 45.2599 18.6721 45.1706 18.1298 44.8936C17.9519 44.8043 17.863 44.6256 17.7741 44.438C17.7741 44.2593 17.7741 44.0806 17.9519 43.893L19.3922 42.4457L18.4943 41.5434L17.054 42.9907C16.9651 43.1694 16.7873 43.2587 16.6006 43.2587C16.4139 43.2587 16.245 43.08 16.1472 42.8924C15.516 41.4452 15.7916 39.6405 16.9562 38.5506C17.6763 37.827 18.6632 37.3803 19.7478 37.3803C20.2012 37.3803 20.5569 37.4696 21.0103 37.559L28.2027 30.3315C27.7492 28.9736 28.1138 27.3477 29.1895 26.356C29.9096 25.6324 30.8965 25.1768 31.9811 25.1768C32.5234 25.1768 33.0569 25.2661 33.5992 25.543C33.777 25.6324 33.8659 25.8111 33.9548 25.9987C33.9548 26.1773 33.9548 26.356 33.777 26.5436L32.1589 27.9016L33.0569 28.8039L34.4971 27.3566C34.586 27.2673 34.8527 27.1779 35.0394 27.1779C35.2261 27.1779 35.3951 27.3566 35.4928 27.5442C36.1241 28.9915 35.8485 30.7961 34.6838 31.886C33.9637 32.6097 32.9768 33.0563 31.8922 33.0563C31.4388 33.0563 31.0832 32.967 30.6298 32.8777L23.4374 40.1051C23.8908 41.463 23.5263 43.089 22.4505 44.0806C21.7304 44.8043 20.7436 45.2599 19.7567 45.2599H19.7478ZM19.4722 44.0806H19.7389C20.4591 44.0806 21.1792 43.8126 21.7215 43.2677C22.5305 42.4547 22.7973 41.1861 22.2638 40.1944C22.1749 40.0158 22.1749 39.7388 22.3527 39.5601L30.0874 31.7878C30.2652 31.6091 30.5409 31.6091 30.7187 31.6984C31.0743 31.8771 31.4388 31.9664 31.8833 31.9664C32.6034 31.9664 33.3236 31.6984 33.8659 31.1535C34.4971 30.5192 34.7638 29.7062 34.6749 28.8932L33.5014 30.0725C33.3236 30.2511 32.9591 30.2511 32.6923 30.0725L30.9854 28.3572C30.8965 28.2678 30.8076 28.0892 30.8076 27.9998C30.8076 27.9105 30.8965 27.7318 30.9854 27.6335L32.1589 26.4632H31.8922C31.1721 26.4632 30.452 26.7312 29.9096 27.2762C29.1006 28.0892 28.8339 29.3578 29.3673 30.3494C29.4562 30.5281 29.4562 30.805 29.2784 30.9837L21.4548 38.6668C21.277 38.8454 21.0014 38.8454 20.8236 38.7561C20.468 38.5774 20.1034 38.4881 19.6589 38.4881C18.9388 38.4881 18.2187 38.7561 17.6763 39.3011C17.0451 39.9354 16.7784 40.7483 16.8673 41.5613L18.0409 40.382C18.1298 40.2927 18.3076 40.2034 18.3965 40.2034C18.4854 40.2034 18.6632 40.2927 18.7521 40.382L20.4591 42.0973C20.6369 42.276 20.6369 42.6423 20.4591 42.9103L19.4722 44.0896V44.0806Z" fill="white"/>
<path d="M47.1749 17.3331H3.29159C3.02487 17.3331 2.74927 17.0651 2.74927 16.7881C2.74927 16.5112 3.01598 16.2432 3.29159 16.2432H47.1838C47.4505 16.2432 47.7262 16.5112 47.7262 16.7881C47.7262 17.0651 47.4594 17.3331 47.1838 17.3331H47.1749Z" fill="white"/>
<path d="M47.175 13.9024H21.2771C21.0103 13.9024 20.7347 13.6344 20.7347 13.3575C20.7347 13.0805 21.0015 12.8125 21.2771 12.8125H47.175C47.4417 12.8125 47.7173 13.0805 47.7173 13.3575C47.7173 13.6344 47.4506 13.9024 47.175 13.9024Z" fill="white"/>
<path d="M9.49721 7.66698C8.23477 7.66698 7.24792 6.67533 7.24792 5.40673C7.24792 4.13813 8.23477 3.14648 9.49721 3.14648C10.7597 3.14648 11.7465 4.13813 11.7465 5.40673C11.7465 6.67533 10.7597 7.66698 9.49721 7.66698ZM9.49721 4.31681C8.86599 4.31681 8.32367 4.86177 8.32367 5.48713C8.32367 6.1125 8.86599 6.66639 9.49721 6.66639C10.1284 6.66639 10.6619 6.12143 10.6619 5.48713C10.573 4.7635 10.1195 4.31681 9.49721 4.31681Z" fill="white"/>
<path d="M40.7027 7.12203C38.9958 7.12203 37.6444 5.76409 37.6444 4.04881C37.6444 2.33352 38.9958 0.975586 40.7027 0.975586C42.4097 0.975586 43.7611 2.33352 43.7611 4.04881C43.7611 5.76409 42.4097 7.12203 40.7027 7.12203ZM40.7027 2.05657C39.627 2.05657 38.7202 2.95889 38.7202 4.04881C38.7202 5.13873 39.6181 6.04104 40.7027 6.04104C41.7874 6.04104 42.6853 5.13873 42.6853 4.04881C42.6853 2.95889 41.7874 2.05657 40.7027 2.05657Z" fill="white"/>
<path d="M21.2771 17.3335C21.0103 17.3335 20.7347 17.0655 20.7347 16.7886V10.0079C20.7347 9.73984 21.0015 9.46289 21.2771 9.46289C21.5527 9.46289 21.8194 9.7309 21.8194 10.0079V16.7886C21.8194 17.0566 21.6416 17.3335 21.2771 17.3335Z" fill="white"/>
<path d="M44.1166 54.0241H6.34991C4.36733 54.0241 2.74927 52.3981 2.74927 50.4059V12.9912C2.74927 10.999 4.36733 9.37305 6.34991 9.37305H44.1255C46.1081 9.37305 47.7262 10.999 47.7262 12.9912V50.4059C47.7262 52.3981 46.1081 54.0241 44.1255 54.0241H44.1166ZM6.34991 10.5523C4.99856 10.5523 3.8339 11.6333 3.8339 13.0806V50.4952C3.8339 51.8532 4.90965 53.0235 6.34991 53.0235H44.1255C45.4769 53.0235 46.6415 51.9425 46.6415 50.4952V12.9912C46.6415 11.6333 45.5658 10.463 44.1255 10.463H6.34991V10.5523Z" fill="white"/>
<path d="M42.6764 49.5043H7.78133C7.51462 49.5043 7.23901 49.2362 7.23901 48.9593V21.211C7.23901 20.943 7.50573 20.666 7.78133 20.666H42.6764C42.9431 20.666 43.2187 20.934 43.2187 21.211V48.87C43.2187 49.2273 42.952 49.5043 42.6764 49.5043ZM8.32365 48.3339H42.0452V21.8542H8.32365V48.3339Z" fill="white"/>
</g>
<defs>
<clipPath id="clip0_121_17213">
<rect width="50" height="53.0488" fill="white" transform="translate(0.5 0.975586)"/>
</clipPath>
</defs>
</svg>
