<svg width="1440" height="225" viewBox="0 0 1440 225" fill="none" xmlns="http://www.w3.org/2000/svg">
<path d="M-12.2614 222H-76.1818L-4.16477 3.81818H76.8011L148.818 222H84.8977L37.1705 63.9034H35.4659L-12.2614 222ZM-24.1932 135.92H95.9773V180.239H-24.1932V135.92ZM169.832 222V3.81818H229.065V174.273H317.275V222H169.832ZM400.984 222V3.81818H495.161C511.354 3.81818 525.523 7.0142 537.668 13.4062C549.813 19.7983 559.259 28.7827 566.006 40.3594C572.753 51.9361 576.126 65.4659 576.126 80.9489C576.126 96.5739 572.646 110.104 565.686 121.538C558.797 132.973 549.102 141.78 536.602 147.959C524.173 154.138 509.649 157.227 493.03 157.227H436.78V111.205H481.098C488.058 111.205 493.989 109.997 498.889 107.582C503.861 105.097 507.661 101.581 510.288 97.0355C512.987 92.4901 514.337 87.1278 514.337 80.9489C514.337 74.6989 512.987 69.3722 510.288 64.9688C507.661 60.4943 503.861 57.0852 498.889 54.7415C493.989 52.3267 488.058 51.1193 481.098 51.1193H460.217V222H400.984ZM809.223 112.909C809.223 137.199 804.5 157.689 795.054 174.379C785.608 190.999 772.859 203.605 756.808 212.199C740.757 220.722 722.859 224.983 703.115 224.983C683.229 224.983 665.26 220.686 649.209 212.092C633.229 203.428 620.516 190.786 611.07 174.166C601.695 157.476 597.007 137.057 597.007 112.909C597.007 88.6193 601.695 68.1648 611.07 51.5455C620.516 34.8551 633.229 22.2486 649.209 13.7258C665.26 5.13209 683.229 0.835219 703.115 0.835219C722.859 0.835219 740.757 5.13209 756.808 13.7258C772.859 22.2486 785.608 34.8551 795.054 51.5455C804.5 68.1648 809.223 88.6193 809.223 112.909ZM748.286 112.909C748.286 99.8409 746.545 88.8324 743.065 79.8835C739.656 70.8636 734.578 64.0454 727.831 59.429C721.155 54.7415 712.916 52.3977 703.115 52.3977C693.314 52.3977 685.04 54.7415 678.293 59.429C671.616 64.0454 666.538 70.8636 663.058 79.8835C659.649 88.8324 657.945 99.8409 657.945 112.909C657.945 125.977 659.649 137.021 663.058 146.041C666.538 154.99 671.616 161.808 678.293 166.496C685.04 171.112 693.314 173.42 703.115 173.42C712.916 173.42 721.155 171.112 727.831 166.496C734.578 161.808 739.656 154.99 743.065 146.041C746.545 137.021 748.286 125.977 748.286 112.909ZM878.257 222L813.911 3.81818H879.962L909.791 138.051H911.496L946.865 3.81818H998.854L1034.22 138.477H1035.93L1065.76 3.81818H1131.81L1067.46 222H1010.79L973.712 100.125H972.007L934.933 222H878.257ZM1150.98 222V3.81818H1308.23V51.5455H1210.22V89.0454H1300.13V136.773H1210.22V174.273H1307.8V222H1150.98ZM1337.61 222V3.81818H1431.78C1447.97 3.81818 1462.14 6.76562 1474.29 12.6605C1486.43 18.5554 1495.88 27.0426 1502.63 38.1222C1509.37 49.2017 1512.75 62.4829 1512.75 77.9659C1512.75 93.5909 1509.27 106.766 1502.31 117.49C1495.42 128.214 1485.72 136.311 1473.22 141.78C1460.79 147.249 1446.27 149.983 1429.65 149.983H1373.4V103.96H1417.72C1424.68 103.96 1430.61 103.108 1435.51 101.403C1440.48 99.6278 1444.28 96.8224 1446.91 92.9872C1449.61 89.152 1450.96 84.1449 1450.96 77.9659C1450.96 71.7159 1449.61 66.6378 1446.91 62.7315C1444.28 58.7543 1440.48 55.8423 1435.51 53.9957C1430.61 52.0781 1424.68 51.1193 1417.72 51.1193H1396.84V222H1337.61ZM1465.45 121.858L1519.99 222H1455.65L1402.38 121.858H1465.45Z" fill="url(#paint0_linear_221_93)"/>
<defs>
<linearGradient id="paint0_linear_221_93" x1="720.5" y1="-69" x2="720.5" y2="294" gradientUnits="userSpaceOnUse">
<stop stop-color="#FDE0CE"/>
<stop offset="0.635" stop-color="#F9FCFF" stop-opacity="0"/>
</linearGradient>
</defs>
</svg>
