<svg width="285" height="290" viewBox="0 0 285 290" fill="none" xmlns="http://www.w3.org/2000/svg">
<path fill-rule="evenodd" clip-rule="evenodd" d="M0 259.926C0 276.494 13.4315 289.926 30 289.926H175.532C186.577 289.926 195.532 280.971 195.532 269.926V225.833C195.532 209.264 208.963 195.833 225.532 195.833H265C276.046 195.833 285 186.878 285 175.833V30.9258C285 14.3572 271.569 0.925781 255 0.925781H30C13.4315 0.925781 0 14.3572 0 30.9258V259.926Z" fill="url(#paint0_linear_47_12694)"/>
<g style="mix-blend-mode:soft-light">
<path d="M60.9815 157.955C55.6179 157.955 50.8565 157.011 46.6974 155.125C42.5611 153.216 39.2997 150.591 36.9134 147.25C34.5497 143.909 33.3452 140.068 33.2997 135.727H51.7088C51.777 138.136 52.7088 140.057 54.5043 141.489C56.3224 142.92 58.4815 143.636 60.9815 143.636C62.9134 143.636 64.6179 143.227 66.0952 142.409C67.5724 141.568 68.7315 140.386 69.5724 138.864C70.4134 137.341 70.8224 135.568 70.7997 133.545C70.8224 131.5 70.4134 129.727 69.5724 128.227C68.7315 126.705 67.5724 125.534 66.0952 124.716C64.6179 123.875 62.9134 123.455 60.9815 123.455C58.9815 123.455 57.1293 123.943 55.4247 124.92C53.7429 125.875 52.5043 127.205 51.7088 128.909L35.0724 125.636L37.7997 87.1818H84.7088V102.318H53.3452L51.9815 117.727H52.3906C53.4815 115.614 55.3679 113.864 58.0497 112.477C60.7315 111.068 63.8452 110.364 67.3906 110.364C71.5497 110.364 75.2543 111.33 78.5043 113.261C81.777 115.193 84.3565 117.864 86.2429 121.273C88.152 124.659 89.0952 128.568 89.0724 133C89.0952 137.864 87.9361 142.182 85.5952 145.955C83.277 149.705 80.0156 152.648 75.8111 154.784C71.6065 156.898 66.6634 157.955 60.9815 157.955Z" fill="#FEEFE6"/>
</g>
<defs>
<linearGradient id="paint0_linear_47_12694" x1="256.115" y1="285.121" x2="-42" y2="-227.574" gradientUnits="userSpaceOnUse">
<stop stop-color="#F19358"/>
<stop offset="1" stop-color="#E64A62"/>
</linearGradient>
</defs>
</svg>
