<svg width="387" height="290" viewBox="0 0 387 290" fill="none" xmlns="http://www.w3.org/2000/svg">
<rect y="290" width="290" height="387" rx="30" transform="rotate(-90 0 290)" fill="url(#paint0_linear_47_12697)"/>
<g style="mix-blend-mode:multiply">
<path d="M75.1051 177V163.364L101.151 141.818C102.878 140.386 104.355 139.045 105.582 137.795C106.832 136.523 107.787 135.216 108.446 133.875C109.128 132.534 109.469 131.045 109.469 129.409C109.469 127.614 109.082 126.08 108.31 124.807C107.56 123.534 106.514 122.557 105.173 121.875C103.832 121.17 102.287 120.818 100.537 120.818C98.7869 120.818 97.2415 121.17 95.9006 121.875C94.5824 122.58 93.5597 123.614 92.8324 124.977C92.1051 126.341 91.7415 128 91.7415 129.955H73.7415C73.7415 125.045 74.8438 120.818 77.0483 117.273C79.2528 113.727 82.3665 111 86.3892 109.091C90.4119 107.182 95.1278 106.227 100.537 106.227C106.128 106.227 110.969 107.125 115.06 108.92C119.173 110.693 122.344 113.193 124.571 116.42C126.821 119.648 127.946 123.432 127.946 127.773C127.946 130.455 127.389 133.125 126.276 135.784C125.162 138.42 123.162 141.341 120.276 144.545C117.389 147.75 113.287 151.568 107.969 156L101.423 161.455V161.864H128.696V177H75.1051Z" fill="#FEEFE6"/>
</g>
<defs>
<linearGradient id="paint0_linear_47_12697" x1="-104" y1="538.5" x2="490.235" y2="331.344" gradientUnits="userSpaceOnUse">
<stop stop-color="#FEEFE6"/>
<stop offset="0.47338" stop-color="#FCDACB"/>
<stop offset="1" stop-color="#F3A5B1"/>
</linearGradient>
</defs>
</svg>
