<svg width="385" height="289" viewBox="0 0 385 289" fill="none" xmlns="http://www.w3.org/2000/svg">
<path fill-rule="evenodd" clip-rule="evenodd" d="M255 289H355C371.569 289 385 275.569 385 259V124.093C385 107.525 371.569 94.093 355 94.093H325.532C308.963 94.093 295.532 80.6616 295.532 64.093V30C295.532 13.4315 282.1 0 265.532 0H255H130H119.468C102.9 0 89.4683 13.4315 89.4683 30V64.093C89.4683 80.6616 76.0368 94.093 59.4683 94.093H30C13.4315 94.093 0 107.525 0 124.093V259C0 275.569 13.4315 289 30 289H130H255Z" fill="url(#paint0_linear_47_12696)"/>
<g style="mix-blend-mode:soft-light">
<path d="M102.018 182.955C96.5185 182.955 91.6321 182.011 87.3594 180.125C83.1094 178.216 79.7685 175.591 77.3366 172.25C74.9048 168.909 73.6776 165.068 73.6548 160.727H92.7457C92.7685 162.068 93.1776 163.273 93.973 164.341C94.7912 165.386 95.9048 166.205 97.3139 166.795C98.723 167.386 100.337 167.682 102.155 167.682C103.905 167.682 105.45 167.375 106.791 166.761C108.132 166.125 109.178 165.25 109.928 164.136C110.678 163.023 111.041 161.75 111.018 160.318C111.041 158.909 110.609 157.659 109.723 156.568C108.859 155.477 107.643 154.625 106.075 154.011C104.507 153.398 102.7 153.091 100.655 153.091H93.5639V140H100.655C102.541 140 104.2 139.693 105.632 139.08C107.087 138.466 108.212 137.614 109.007 136.523C109.825 135.432 110.223 134.182 110.2 132.773C110.223 131.409 109.893 130.205 109.212 129.159C108.53 128.114 107.575 127.295 106.348 126.705C105.143 126.114 103.746 125.818 102.155 125.818C100.428 125.818 98.8821 126.125 97.5185 126.739C96.1776 127.352 95.1207 128.205 94.348 129.295C93.5753 130.386 93.1776 131.636 93.1548 133.045H75.0185C75.0412 128.773 76.2116 125 78.5298 121.727C80.8707 118.455 84.0753 115.886 88.1435 114.023C92.2116 112.159 96.8821 111.227 102.155 111.227C107.314 111.227 111.871 112.102 115.825 113.852C119.803 115.602 122.905 118.011 125.132 121.08C127.382 124.125 128.496 127.614 128.473 131.545C128.518 135.455 127.178 138.659 124.45 141.159C121.746 143.659 118.314 145.136 114.155 145.591V146.136C119.791 146.75 124.03 148.477 126.871 151.318C129.712 154.136 131.109 157.682 131.064 161.955C131.087 166.045 129.859 169.67 127.382 172.83C124.928 175.989 121.507 178.466 117.121 180.261C112.757 182.057 107.723 182.955 102.018 182.955Z" fill="#FEEFE6"/>
</g>
<defs>
<linearGradient id="paint0_linear_47_12696" x1="192.5" y1="-4.83582e-09" x2="192.5" y2="485.5" gradientUnits="userSpaceOnUse">
<stop stop-color="#F19358"/>
<stop offset="1" stop-color="#E64A62"/>
</linearGradient>
</defs>
</svg>
