<svg width="66" height="69" viewBox="0 0 66 69" fill="none" xmlns="http://www.w3.org/2000/svg">
<g clip-path="url(#clip0_364_573)">
<path d="M57.8769 26.4073C57.8769 37.6215 50.6134 47.268 40.4493 50.6443V54.9852H23.8607V50.6443C13.6966 47.1474 6.43304 37.6215 6.43304 26.4073C6.43304 12.2993 17.9276 0.723389 32.2149 0.723389C46.3823 0.843971 57.8769 12.2993 57.8769 26.4073Z" fill="#FEEFE6"/>
<path d="M61.7484 0.843994C63.4384 0.843994 64.7808 2.1704 64.7808 3.85854C64.7808 5.54669 63.4504 6.87309 61.7484 6.87309C60.0464 6.87309 58.7279 5.54669 58.7279 3.85854C58.7279 2.1704 60.0583 0.843994 61.7484 0.843994Z" fill="#FCC19C"/>
<path d="M60.1782 49.8003C61.8683 49.8003 63.1987 51.1267 63.1987 52.8148C63.1987 54.503 61.8683 55.8294 60.1782 55.8294C58.4882 55.8294 57.1578 54.503 57.1578 52.8148C57.1578 51.1267 58.4882 49.8003 60.1782 49.8003Z" fill="#FCC19C"/>
<path d="M6.43308 52.9355C8.90219 52.9355 10.9158 54.9372 10.9158 57.3971C10.9158 59.8569 8.91418 61.8586 6.43308 61.8586C3.95198 61.8586 1.95032 59.8569 1.95032 57.3971C1.95032 54.9372 3.95198 52.9355 6.43308 52.9355Z" fill="#FCC19C"/>
<path d="M40.5691 59.5674V64.1495H35.9665H28.4633H23.8607V59.5674H40.5691Z" fill="#FEEFE6"/>
<path d="M36.0864 64.1497H28.4633V67.8877H36.0864V64.1497Z" fill="#FCC19C"/>
<path d="M40.5691 55.106H23.8607V59.6881H40.5691V55.106Z" fill="#FCC19C"/>
<path d="M37.297 32.1953L40.3175 35.2098L35.8347 39.6714C33.893 41.6007 30.8725 41.6007 28.9308 39.6714L24.0884 34.8481L26.7493 32.1953C26.6295 32.0747 26.3897 32.0747 26.2699 31.9541C25.6586 31.4718 25.299 30.8689 25.299 30.1454C25.1792 28.9396 26.0302 27.8543 27.2408 27.6132C27.9719 27.4926 28.8109 27.7337 29.4222 28.3367L29.5421 28.4572C29.6619 28.6984 29.9016 28.819 29.9016 29.0601L31.9632 27.0103L34.0248 29.0601C33.7851 29.1807 33.5454 29.3013 33.2937 29.5425C32.3228 30.5071 32.3228 31.9541 33.2937 32.9188C34.5043 34.1246 36.5659 33.7628 37.285 32.1953C37.285 32.2757 37.285 32.2757 37.285 32.1953H37.297Z" fill="#FEEFE6"/>
<path d="M39.7182 19.2932L44.5605 24.1165C46.5022 26.0458 46.5022 29.0603 44.5605 30.9897L40.3294 35.21L37.309 32.1955V32.3161C36.5778 33.763 34.5282 34.0042 33.4375 32.919C32.4666 31.9543 32.4666 30.5073 33.4375 29.5427C33.6772 29.3015 33.9169 29.1809 34.1686 29.0603L32.1071 27.0105L34.2885 24.84C34.4084 25.2017 34.6481 25.5635 34.8878 25.8046C35.8587 26.7693 37.4288 26.7693 38.3997 25.8046C39.3706 24.84 39.3706 23.2724 38.3997 22.3078C38.16 22.0666 37.8004 21.8254 37.4288 21.7049L39.7301 19.2932H39.7182Z" fill="#FCC19C"/>
<path d="M35.3672 15.0727L39.7301 19.4137L37.3089 21.8253C37.6685 21.9459 38.0401 22.187 38.2798 22.4282C39.2507 23.3929 39.2507 24.9604 38.2798 25.9251C37.3089 26.8897 35.7388 26.8897 34.7679 25.9251C34.5282 25.6839 34.2885 25.3222 34.1686 24.9604L31.9872 27.1309L29.9256 25.081C30.1653 24.9604 30.405 24.8398 30.6567 24.5987C31.6276 23.634 31.6276 22.187 30.6567 21.2224C29.6859 20.2577 28.2355 20.2577 27.2647 21.2224C27.025 21.4636 26.9051 21.7047 26.7852 21.9459L24.3641 19.5342L28.5951 15.3139C30.417 13.1434 33.5573 13.1434 35.3792 15.0727H35.3672Z" fill="#FEEFE6"/>
<path d="M32.095 27.0104L30.0334 29.0603C29.9136 28.8192 29.7937 28.578 29.554 28.4574L29.4341 28.3368C28.8349 27.7339 27.9838 27.4928 27.2527 27.6133C26.0421 27.8545 25.1911 28.9397 25.311 30.1456C25.311 30.8691 25.6706 31.472 26.2818 31.9543C26.4017 32.0749 26.6414 32.1955 26.7613 32.1955L24.1004 34.8483L19.7375 30.5073C17.7958 28.578 17.7958 25.5634 19.7375 23.6341L24.2202 19.1726L26.6414 21.5842C26.7613 21.3431 26.8811 21.1019 27.1209 20.8608C28.0917 19.8961 29.542 19.8961 30.5129 20.8608C31.4838 21.8254 31.4838 23.2724 30.5129 24.237C30.2732 24.4782 30.0335 24.5988 29.7817 24.7194L32.0831 27.0104H32.095Z" fill="#FCC19C"/>
<path d="M63.5703 35.5718C64.1696 35.5718 64.661 36.0541 64.661 36.657C64.661 37.2599 64.1696 37.7423 63.5703 37.7423C62.971 37.7423 62.4796 37.2599 62.4796 36.657C62.4796 36.0541 62.971 35.5718 63.5703 35.5718Z" fill="#F9853D"/>
<path d="M53.7657 1.68823C54.365 1.68823 54.8564 2.17056 54.8564 2.77347C54.8564 3.37638 54.365 3.85871 53.7657 3.85871C53.1664 3.85871 52.675 3.37638 52.675 2.77347C52.675 2.17056 53.1664 1.68823 53.7657 1.68823Z" fill="#F9853D"/>
<path d="M50.0141 58.1206C50.6134 58.1206 51.1049 58.6029 51.1049 59.2058C51.1049 59.8087 50.6134 60.2911 50.0141 60.2911C49.4148 60.2911 48.9234 59.8087 48.9234 59.2058C48.9234 58.6029 49.4148 58.1206 50.0141 58.1206Z" fill="#F9853D"/>
<path d="M18.8985 62.7026C19.4978 62.7026 19.9892 63.185 19.9892 63.7879C19.9892 64.3908 19.4978 64.8731 18.8985 64.8731C18.2992 64.8731 17.8077 64.3908 17.8077 63.7879C17.8077 63.185 18.2992 62.7026 18.8985 62.7026Z" fill="#F9853D"/>
<path d="M11.3953 0.120605C11.9946 0.120605 12.486 0.602933 12.486 1.20584C12.486 1.80875 11.9946 2.29108 11.3953 2.29108C10.796 2.29108 10.3046 1.80875 10.3046 1.20584C10.3046 0.602933 10.796 0.120605 11.3953 0.120605Z" fill="#F9853D"/>
<path d="M6.79263 43.8918C7.39193 43.8918 7.88335 44.3742 7.88335 44.9771C7.88335 45.58 7.39193 46.0623 6.79263 46.0623C6.19333 46.0623 5.7019 45.58 5.7019 44.9771C5.7019 44.3742 6.19333 43.8918 6.79263 43.8918Z" fill="#F9853D"/>
<path d="M1.59072 15.9167C2.19002 15.9167 2.68145 16.3991 2.68145 17.002C2.68145 17.6049 2.19002 18.0872 1.59072 18.0872C0.991425 18.0872 0.5 17.6049 0.5 17.002C0.5 16.3991 0.991425 15.9167 1.59072 15.9167Z" fill="#F9853D"/>
<path d="M40.3294 35.9334C40.0897 35.9334 39.9698 35.8128 39.85 35.6923L37.5487 33.4012C37.0692 33.8835 36.4579 34.2453 35.7388 34.3659C34.7679 34.4864 33.6772 34.2453 32.958 33.5218C32.3587 32.9189 31.9872 32.0748 31.9872 31.2307C31.9872 30.3867 32.3467 29.5426 32.958 28.9397L33.0779 28.8191L32.2269 27.975L30.5369 29.5426C30.417 29.6632 30.0574 29.7838 29.8057 29.7838C29.554 29.7838 29.3263 29.5426 29.1944 29.3014C29.0746 29.1808 29.0746 28.9397 28.9547 28.8191C28.5951 28.4574 27.9839 28.2162 27.5044 28.3368C26.6534 28.4574 26.174 29.3014 26.174 30.0249C26.174 30.5072 26.4137 30.9896 26.7733 31.2307C26.8931 31.3513 27.013 31.3513 27.1328 31.4719C27.3726 31.5925 27.4924 31.8336 27.6123 32.0748C27.7321 32.316 27.6123 32.5571 27.3726 32.7983L24.7117 35.4511C24.472 35.6923 23.9805 35.6923 23.621 35.4511C23.3812 35.2099 23.3812 34.7276 23.621 34.3659L25.5627 32.4366C24.9634 31.8336 24.5918 31.1102 24.5918 30.2661C24.472 28.6985 25.5627 27.2515 27.1328 27.0104C28.2236 26.7692 29.1944 27.131 29.9136 27.8544L30.0335 27.975L31.4838 26.528C31.7235 26.2869 32.2149 26.2869 32.5745 26.528L34.6361 28.5779C34.7559 28.6985 34.8758 29.0603 34.8758 29.3014C34.8758 29.5426 34.6361 29.7838 34.3964 29.9043C34.1566 30.0249 34.0368 30.1455 33.9169 30.2661C33.5573 30.6278 33.4375 30.9896 33.4375 31.4719C33.4375 31.9542 33.5573 32.316 33.9169 32.6777C34.2765 33.0395 34.7679 33.16 35.3672 33.16C35.8467 33.0395 36.3381 32.7983 36.5778 32.316C36.6977 32.0748 36.8175 31.9542 37.1891 31.8336C37.4288 31.8336 37.6685 31.8336 37.9202 32.0748L40.9527 35.0894C41.1924 35.3305 41.1924 35.8128 40.9527 36.1746C40.713 35.9334 40.5931 35.9334 40.3534 35.9334H40.3294Z" fill="#F9853D"/>
<path d="M32.095 27.7338C31.8553 27.7338 31.7355 27.6132 31.6156 27.4926L29.554 25.4427C29.4341 25.3221 29.3143 24.9604 29.3143 24.7192C29.3143 24.4781 29.554 24.2369 29.7937 24.1163C30.0334 23.9957 30.1533 23.8752 30.2732 23.7546C30.6327 23.3928 30.7526 23.0311 30.7526 22.5487C30.7526 22.0664 30.6327 21.7047 30.2732 21.3429C29.6739 20.74 28.5831 20.74 27.9719 21.3429C27.852 21.4635 27.7321 21.7047 27.6123 21.8253C27.4924 22.0664 27.2527 22.187 27.001 22.3076C26.7613 22.3076 26.5215 22.3076 26.2698 22.0664L23.8487 19.6548C23.609 19.4136 23.609 18.9313 23.8487 18.5695C24.0884 18.3284 24.5798 18.3284 24.9394 18.5695L26.7613 20.3783L26.8811 20.2577C28.0917 19.0519 30.1533 19.0519 31.3639 20.2577C31.9632 20.8606 32.3348 21.7047 32.3348 22.5487C32.3348 23.3928 31.9752 24.2369 31.3639 24.8398L31.244 24.9604L32.095 25.8045L33.6652 24.2369C33.9049 23.9957 34.1446 23.9957 34.3963 23.9957C34.6361 24.1163 34.8758 24.2369 34.8758 24.4781C34.9956 24.7192 35.1155 24.9604 35.2354 25.2016C35.8347 25.8045 36.9254 25.8045 37.6565 25.2016C38.3877 24.4781 38.3877 23.5134 37.6565 22.7899C37.4168 22.5487 37.1771 22.4282 36.9254 22.4282C36.6857 22.3076 36.4459 22.187 36.4459 21.9458C36.3261 21.7047 36.4459 21.4635 36.6857 21.2223L39.1068 18.8107C39.3466 18.5695 39.838 18.5695 40.1976 18.8107C40.4373 19.0519 40.4373 19.5342 40.1976 19.8959L38.5075 21.5841C38.6274 21.7047 38.7473 21.7047 38.7473 21.8253C39.9578 23.0311 39.9578 25.081 38.7473 26.2868C37.5367 27.4926 35.4751 27.6132 34.2645 26.2868C34.1446 26.1662 34.1446 26.0456 34.0248 26.0456L32.5745 27.4926C32.4546 27.6132 32.2149 27.7338 32.095 27.7338Z" fill="#F9853D"/>
<path d="M32.3348 41.842C30.8845 41.842 29.4342 41.2391 28.3434 40.1538L19.2701 31.1102C17.0886 28.9397 17.0886 25.3223 19.2701 23.1518L27.9839 14.4699C29.0746 13.3846 30.405 12.7817 31.9752 12.7817C33.4255 12.7817 34.8758 13.3846 35.9665 14.4699L45.0399 23.5135C47.2214 25.684 47.2214 29.3015 45.0399 31.4719L36.3261 40.1538C35.3552 41.2391 33.9049 41.842 32.3348 41.842ZM31.9752 14.3493C30.8845 14.3493 29.7938 14.8316 29.0746 15.5551L20.3608 24.237C18.7906 25.8046 18.7906 28.4574 20.3608 30.025L29.4342 39.0686C30.1653 39.7921 31.256 40.2744 32.3348 40.2744C33.4135 40.2744 34.5162 39.7921 35.2354 39.0686L43.9492 30.3867C45.5194 28.8191 45.5194 26.1663 43.9492 24.5988L34.8758 15.5551C34.1447 14.8316 33.0539 14.3493 31.9752 14.3493Z" fill="#F9853D"/>
<path d="M40.5692 55.8294C40.2096 55.8294 39.838 55.4677 39.838 55.1059V50.765C39.838 50.4032 40.0777 50.1621 40.3175 50.0415C50.3617 46.5446 57.2656 37.1392 57.2656 26.528C57.2656 12.7817 46.0108 1.68815 32.3348 1.68815C18.6588 1.68815 7.40394 12.9023 7.40394 26.528C7.40394 37.1392 14.188 46.6652 24.3521 50.0415C24.7117 50.1621 24.8316 50.4032 24.8316 50.765V55.1059C24.8316 55.4677 24.472 55.8294 24.1004 55.8294C23.7289 55.8294 23.3693 55.4677 23.3693 55.1059V51.2473C12.9535 47.5093 5.94165 37.6216 5.94165 26.4074C5.94165 11.817 17.8078 0 32.4547 0C47.1015 0 58.9677 11.817 58.9677 26.4074C58.9677 37.501 51.9439 47.3887 41.54 51.2473V55.1059C41.3003 55.4677 40.9407 55.8294 40.5692 55.8294Z" fill="#F9853D"/>
<path d="M51.824 27.2515C51.4644 27.2515 51.0929 26.8897 51.0929 26.528C51.0929 16.158 42.6188 7.71722 32.203 7.71722C21.7871 7.71722 13.325 16.158 13.325 26.528C13.325 26.8897 12.9654 27.2515 12.5939 27.2515C12.2223 27.2515 11.8627 26.8897 11.8627 26.528C11.8627 15.3139 21.068 6.14966 32.3228 6.14966C43.5777 6.14966 52.7829 15.3139 52.7829 26.528C52.663 26.8897 52.3035 27.2515 51.812 27.2515H51.824Z" fill="#F9853D"/>
<path d="M40.5691 60.4114C40.2096 60.4114 39.838 60.0497 39.838 59.6879V55.9499H24.5798V59.6879C24.5798 60.0497 24.2203 60.4114 23.8487 60.4114C23.4771 60.4114 23.1176 60.0497 23.1176 59.6879V55.1058C23.1176 54.7441 23.4771 54.3823 23.8487 54.3823H40.5572C40.9167 54.3823 41.2883 54.7441 41.2883 55.1058V59.6879C41.2883 60.0497 40.9287 60.4114 40.5572 60.4114H40.5691Z" fill="#F9853D"/>
<path d="M40.5692 64.8731H35.9666C35.607 64.8731 35.2354 64.5113 35.2354 64.1496C35.2354 63.7879 35.595 63.4261 35.9666 63.4261H39.7182V60.4116H24.5919V63.4261H28.3435C28.703 63.4261 29.0746 63.7879 29.0746 64.1496C29.0746 64.5113 28.715 64.8731 28.3435 64.8731H23.7408C23.3813 64.8731 23.0097 64.5113 23.0097 64.1496V59.5675C23.0097 59.2057 23.3693 58.844 23.7408 58.844H40.4493C40.8089 58.844 41.1805 59.2057 41.1805 59.5675V64.1496C41.3003 64.5113 40.9407 64.8731 40.5812 64.8731H40.5692Z" fill="#F9853D"/>
<path d="M35.9665 68.6111H28.3434C27.9839 68.6111 27.6123 68.2493 27.6123 67.8876V64.1495C27.6123 63.7878 27.9719 63.426 28.3434 63.426H35.9665C36.3261 63.426 36.6977 63.7878 36.6977 64.1495V67.8876C36.6977 68.3699 36.3381 68.6111 35.9665 68.6111ZM29.1825 67.1641H35.2354V64.873H29.1825V67.1641Z" fill="#F9853D"/>
<path d="M60.1783 56.553C58.1167 56.553 56.4266 54.8648 56.4266 52.8149C56.4266 50.765 58.1167 49.0769 60.1783 49.0769C62.2398 49.0769 63.9299 50.765 63.9299 52.8149C63.9299 54.8648 62.2398 56.553 60.1783 56.553ZM60.1783 50.5239C58.9677 50.5239 57.8769 51.4885 57.8769 52.8149C57.8769 54.0208 58.8478 55.106 60.1783 55.106C61.3888 55.106 62.4796 54.1413 62.4796 52.8149C62.4796 51.4885 61.3888 50.5239 60.1783 50.5239Z" fill="#F9853D"/>
<path d="M6.43304 62.5819C3.53244 62.5819 1.11127 60.1703 1.11127 57.2763C1.11127 54.3823 3.53244 51.9707 6.43304 51.9707C9.33365 51.9707 11.7548 54.3823 11.7548 57.2763C11.7548 60.1703 9.33365 62.5819 6.43304 62.5819ZM6.43304 53.5383C4.37145 53.5383 2.68143 55.2264 2.68143 57.2763C2.68143 59.3262 4.37145 61.0143 6.43304 61.0143C8.49463 61.0143 10.1847 59.3262 10.1847 57.2763C10.1847 55.2264 8.49463 53.5383 6.43304 53.5383Z" fill="#F9853D"/>
<path d="M61.7484 7.59668C59.6868 7.59668 57.9968 5.90854 57.9968 3.85864C57.9968 1.80875 59.6988 0.120605 61.7484 0.120605C63.798 0.120605 65.5 1.80875 65.5 3.85864C65.5 5.90854 63.81 7.59668 61.7484 7.59668ZM61.7484 1.56759C60.5378 1.56759 59.4471 2.53224 59.4471 3.85864C59.4471 5.06446 60.4179 6.1497 61.7484 6.1497C62.959 6.1497 64.0497 5.18505 64.0497 3.85864C64.0497 2.53224 62.959 1.56759 61.7484 1.56759Z" fill="#F9853D"/>
</g>
<defs>
<clipPath id="clip0_364_573">
<rect width="65" height="68.6111" fill="white" transform="translate(0.5)"/>
</clipPath>
</defs>
</svg>
