<svg width="1440" height="225" viewBox="0 0 1440 225" fill="none" xmlns="http://www.w3.org/2000/svg">
<path d="M172.756 85.6364H112.67C112.244 80.6648 111.108 76.1548 109.261 72.1065C107.486 68.0582 105 64.5781 101.804 61.6662C98.679 58.6832 94.8793 56.4105 90.4048 54.848C85.9304 53.2145 80.8523 52.3977 75.1705 52.3977C65.2273 52.3977 56.8111 54.8125 49.9219 59.642C43.1037 64.4716 37.919 71.3963 34.3679 80.4162C30.8878 89.4361 29.1477 100.267 29.1477 112.909C29.1477 126.261 30.9233 137.447 34.4744 146.467C38.0966 155.416 43.3168 162.163 50.1349 166.709C56.9531 171.183 65.1563 173.42 74.7443 173.42C80.2131 173.42 85.1136 172.746 89.446 171.396C93.7784 169.976 97.5426 167.952 100.739 165.324C103.935 162.696 106.527 159.536 108.516 155.842C110.575 152.078 111.96 147.852 112.67 143.165L172.756 143.591C172.045 152.824 169.453 162.234 164.979 171.822C160.504 181.339 154.148 190.146 145.909 198.243C137.741 206.268 127.621 212.732 115.547 217.632C103.473 222.533 89.446 224.983 73.4659 224.983C53.4375 224.983 35.4688 220.686 19.5597 212.092C3.72159 203.499 -8.81392 190.857 -18.0469 174.166C-27.2088 157.476 -31.7898 137.057 -31.7898 112.909C-31.7898 88.6193 -27.1023 68.1648 -17.7273 51.5455C-8.35227 34.8551 4.28977 22.2486 20.1989 13.7258C36.108 5.13209 53.8636 0.835219 73.4659 0.835219C87.2443 0.835219 99.9219 2.71732 111.499 6.48152C123.075 10.2457 133.232 15.75 141.967 22.9943C150.703 30.1676 157.734 39.0099 163.061 49.5213C168.388 60.0327 171.619 72.071 172.756 85.6364ZM410.993 112.909C410.993 137.199 406.27 157.689 396.824 174.379C387.377 190.999 374.629 203.605 358.578 212.199C342.527 220.722 324.629 224.983 304.885 224.983C284.998 224.983 267.029 220.686 250.978 212.092C234.998 203.428 222.285 190.786 212.839 174.166C203.464 157.476 198.777 137.057 198.777 112.909C198.777 88.6193 203.464 68.1648 212.839 51.5455C222.285 34.8551 234.998 22.2486 250.978 13.7258C267.029 5.13209 284.998 0.835219 304.885 0.835219C324.629 0.835219 342.527 5.13209 358.578 13.7258C374.629 22.2486 387.377 34.8551 396.824 51.5455C406.27 68.1648 410.993 88.6193 410.993 112.909ZM350.055 112.909C350.055 99.8409 348.315 88.8324 344.835 79.8835C341.426 70.8636 336.348 64.0454 329.601 59.429C322.924 54.7415 314.686 52.3977 304.885 52.3977C295.083 52.3977 286.809 54.7415 280.062 59.429C273.386 64.0454 268.308 70.8636 264.828 79.8835C261.419 88.8324 259.714 99.8409 259.714 112.909C259.714 125.977 261.419 137.021 264.828 146.041C268.308 154.99 273.386 161.808 280.062 166.496C286.809 171.112 295.083 173.42 304.885 173.42C314.686 173.42 322.924 171.112 329.601 166.496C336.348 161.808 341.426 154.99 344.835 146.041C348.315 137.021 350.055 125.977 350.055 112.909ZM627.177 3.81818V222H577.745L498.91 107.369H497.631V222H438.398V3.81818H488.683L566.239 118.023H567.944V3.81818H627.177ZM649.229 51.5455V3.81818H838.86V51.5455H773.235V222H714.854V51.5455H649.229ZM890.289 222H826.369L898.386 3.81818H979.352L1051.37 222H987.449L939.721 63.9034H938.017L890.289 222ZM878.358 135.92H998.528V180.239H878.358V135.92ZM1265.82 85.6364H1205.74C1205.31 80.6648 1204.17 76.1548 1202.33 72.1065C1200.55 68.0582 1198.07 64.5781 1194.87 61.6662C1191.75 58.6832 1187.95 56.4105 1183.47 54.848C1179 53.2145 1173.92 52.3977 1168.24 52.3977C1158.29 52.3977 1149.88 54.8125 1142.99 59.642C1136.17 64.4716 1130.99 71.3963 1127.43 80.4162C1123.95 89.4361 1122.21 100.267 1122.21 112.909C1122.21 126.261 1123.99 137.447 1127.54 146.467C1131.16 155.416 1136.38 162.163 1143.2 166.709C1150.02 171.183 1158.22 173.42 1167.81 173.42C1173.28 173.42 1178.18 172.746 1182.51 171.396C1186.84 169.976 1190.61 167.952 1193.81 165.324C1197 162.696 1199.59 159.536 1201.58 155.842C1203.64 152.078 1205.03 147.852 1205.74 143.165L1265.82 143.591C1265.11 152.824 1262.52 162.234 1258.05 171.822C1253.57 181.339 1247.21 190.146 1238.98 198.243C1230.81 206.268 1220.69 212.732 1208.61 217.632C1196.54 222.533 1182.51 224.983 1166.53 224.983C1146.5 224.983 1128.54 220.686 1112.63 212.092C1096.79 203.499 1084.25 190.857 1075.02 174.166C1065.86 157.476 1061.28 137.057 1061.28 112.909C1061.28 88.6193 1065.96 68.1648 1075.34 51.5455C1084.71 34.8551 1097.36 22.2486 1113.27 13.7258C1129.17 5.13209 1146.93 0.835219 1166.53 0.835219C1180.31 0.835219 1192.99 2.71732 1204.56 6.48152C1216.14 10.2457 1226.3 15.75 1235.03 22.9943C1243.77 30.1676 1250.8 39.0099 1256.13 49.5213C1261.45 60.0327 1264.69 72.071 1265.82 85.6364ZM1286.73 51.5455V3.81818H1476.36V51.5455H1410.74V222H1352.35V51.5455H1286.73Z" fill="url(#paint0_linear_46_60)"/>
<defs>
<linearGradient id="paint0_linear_46_60" x1="720" y1="-69" x2="720" y2="294" gradientUnits="userSpaceOnUse">
<stop stop-color="#FDE0CE"/>
<stop offset="0.635" stop-color="#F9FCFF" stop-opacity="0"/>
</linearGradient>
</defs>
</svg>
