<svg width="63" height="52" viewBox="0 0 63 52" fill="none" xmlns="http://www.w3.org/2000/svg">
<path d="M48.5213 45.4122H15.2285V0.816406H48.6269C48.5213 5.32845 48.5213 40.3755 48.5213 45.4122Z" fill="#B0F3FF"/>
<path d="M7.22018 0.816406C9.03749 0.816406 10.5273 2.28544 10.5273 4.06928C10.5273 5.85311 9.03749 7.32215 7.22018 7.32215C5.40286 7.32215 3.91309 5.85311 3.91309 4.06928C3.91309 2.28544 5.41343 0.816406 7.22018 0.816406Z" fill="#E1F7FB"/>
<path d="M61.8551 45.4121C61.8551 48.665 59.1926 51.2883 55.8749 51.2883H7.21949C3.9124 51.2883 1.23926 48.665 1.23926 45.4121H61.8446H61.8551Z" fill="#E1F7FB"/>
<path d="M57.9037 16.1361V45.4119H48.5107V10.6797H52.251C55.3468 10.6797 57.9037 13.0931 57.9037 16.1361Z" fill="#E1F7FB"/>
<path d="M15.2289 10.6801V45.4124H5.19141V16.1366C5.19141 13.0935 7.64267 10.5752 10.8441 10.5752H15.2183V10.6801H15.2289Z" fill="#E1F7FB"/>
<path d="M42.1189 13.4081V16.4511L39.1288 16.7659C38.9175 17.3955 38.7061 18.13 38.2729 18.6546L40.1959 20.9631L37.956 23.1667L35.6104 21.2779C34.9658 21.5927 34.3319 21.9075 33.6874 22.0124L33.3704 24.9505H30.2746L29.9577 22.1174C29.3132 21.9075 28.5736 21.6976 28.0347 21.3829L25.6891 23.1667L23.5548 20.9631L25.4778 18.6546C25.1608 18.0251 24.8333 17.3955 24.622 16.7659L21.6318 16.4511V13.4081L24.622 13.0933C24.8333 12.4637 25.0446 11.8341 25.4778 11.2045L23.5548 8.89603L25.6891 6.69247L28.0347 8.58124C28.6792 8.26644 29.3132 7.95165 29.9577 7.74179L30.2746 4.80371H33.3704L33.6874 7.74179C34.3319 7.95165 35.0715 8.16151 35.6104 8.58124L37.956 6.69247L40.1959 8.89603L38.2729 11.2045C38.5899 11.8341 38.9175 12.4637 39.1288 13.0933L42.1189 13.4081ZM36.2443 14.982C36.2443 12.6736 34.3213 10.6799 31.8701 10.6799C29.4188 10.6799 27.4958 12.5686 27.4958 14.982C27.4958 17.3955 29.4188 19.2842 31.8701 19.2842C34.3213 19.1793 36.2443 17.2905 36.2443 14.982Z" fill="#E1F7FB"/>
<path d="M61.5386 21.1729C62.0669 21.1729 62.5001 21.5926 62.5001 22.1172C62.5001 22.6419 62.0669 23.0616 61.5386 23.0616C61.0103 23.0616 60.5771 22.6419 60.5771 22.1172C60.5771 21.5926 61.0103 21.1729 61.5386 21.1729Z" fill="#00AAC8"/>
<path d="M58.8658 0.186523C59.3941 0.186523 59.8273 0.606249 59.8273 1.13091C59.8273 1.65556 59.3941 2.07529 58.8658 2.07529C58.3375 2.07529 57.9043 1.65556 57.9043 1.13091C57.9043 0.606249 58.3375 0.186523 58.8658 0.186523Z" fill="#00AAC8"/>
<path d="M52.8961 5.9581C53.4271 5.9581 53.8575 5.53528 53.8575 5.01372C53.8575 4.49215 53.4271 4.06934 52.8961 4.06934C52.365 4.06934 51.9346 4.49215 51.9346 5.01372C51.9346 5.53528 52.365 5.9581 52.8961 5.9581Z" fill="#00AAC8"/>
<path d="M2.21149 10.0508C2.73978 10.0508 3.17297 10.4705 3.17297 10.9952C3.17297 11.5198 2.73978 11.9395 2.21149 11.9395C1.6832 11.9395 1.25 11.5198 1.25 10.9952C1.25 10.4705 1.6832 10.0508 2.21149 10.0508Z" fill="#00AAC8"/>
<path d="M33.4762 25.6857H30.3805C30.0635 25.6857 29.736 25.4759 29.736 25.0561L29.5246 22.5378C29.102 22.4329 28.6688 22.223 28.2462 22.0131L26.2176 23.5871C26.0062 23.797 25.573 23.797 25.3617 23.5871L23.1218 21.3835C22.9105 21.1737 22.9105 20.754 23.1218 20.5441L24.7172 18.5504C24.5059 18.1307 24.2946 17.7109 24.1889 17.2912L21.5263 17.1863C21.2094 17.1863 20.8818 16.8715 20.8818 16.5567V13.5137C20.8818 13.1989 21.0932 12.8841 21.5263 12.8841L24.0833 12.5693C24.1889 12.1496 24.4002 11.7299 24.6116 11.3101L23.0056 9.31644C22.7942 9.10658 22.7942 8.68685 23.0056 8.47699L25.2455 6.27343C25.4568 6.06357 25.89 6.06357 26.1013 6.27343L28.13 7.8474C28.5526 7.63754 28.9858 7.42768 29.4084 7.32274L29.6197 4.80439C29.6197 4.4896 29.9367 4.1748 30.2642 4.1748H33.36C33.677 4.1748 34.0045 4.38467 34.0045 4.80439L34.2158 7.32274C34.6385 7.42768 35.0717 7.63754 35.4943 7.8474L37.5229 6.27343C37.7343 6.06357 38.1675 6.06357 38.3788 6.27343L40.6187 8.47699C40.83 8.68685 40.83 9.10658 40.6187 9.31644L39.0233 11.3101C39.2346 11.7299 39.4459 12.1496 39.5516 12.5693L42.1085 12.8841C42.4255 12.8841 42.753 13.1989 42.753 13.5137V16.5567C42.753 16.8715 42.5417 17.1863 42.1085 17.1863L39.5516 17.5011C39.4459 17.9208 39.2346 18.3405 39.0233 18.7603L40.6187 20.754C40.83 20.9638 40.83 21.3835 40.6187 21.5934L38.4844 23.692C38.2731 23.9019 37.8399 23.9019 37.6286 23.692L35.6 22.1181C35.1773 22.3279 34.7441 22.5378 34.3215 22.6427L34.1102 25.1611C34.1102 25.4759 33.7932 25.6857 33.4657 25.6857H33.4762ZM30.9088 24.4265H32.8317L33.043 22.1181C33.043 21.8033 33.2544 21.5934 33.5713 21.5934C34.2158 21.4885 34.7441 21.1737 35.283 20.8589C35.4943 20.754 35.8113 20.754 36.0332 20.9638L37.9561 22.4329L39.3403 21.0687L37.8505 19.18C37.6392 18.9701 37.6392 18.6553 37.7448 18.4455C38.0618 17.9208 38.2731 17.2912 38.495 16.7666C38.6006 16.4518 38.812 16.3468 39.0233 16.2419L41.4745 16.032V14.0383L39.0233 13.8285C38.7063 13.8285 38.495 13.6186 38.495 13.3038C38.3893 12.6742 38.0724 12.1496 37.7448 11.6249C37.6392 11.4151 37.6392 11.1003 37.8505 10.8904L39.3403 9.00164L37.9561 7.63754L36.0332 9.10658C35.8218 9.31644 35.5049 9.31644 35.283 9.21151C34.7547 8.89671 34.1102 8.68685 33.5713 8.47699C33.2544 8.37206 33.1487 8.16219 33.043 7.95233L32.8317 5.64384H30.9088L30.6974 7.95233C30.6974 8.26713 30.4861 8.47699 30.1692 8.47699C29.5246 8.58192 28.9964 8.89671 28.4575 9.21151C28.2462 9.31644 27.9292 9.31644 27.7073 9.10658L25.7844 7.63754L24.4002 9.00164L25.89 10.8904C26.1013 11.1003 26.1013 11.4151 25.9957 11.6249C25.6787 12.1496 25.4674 12.7792 25.2455 13.3038C25.1398 13.6186 24.9285 13.7236 24.7172 13.8285L22.266 14.0383V15.9271L24.6116 16.137C24.9285 16.137 25.1398 16.3468 25.1398 16.6616C25.2455 17.2912 25.5625 17.8159 25.89 18.3405C25.9957 18.5504 25.9957 18.8652 25.7844 19.0751L24.2946 20.9638L25.6787 22.3279L27.6017 20.8589C27.813 20.649 28.13 20.649 28.3518 20.754C28.8801 21.0687 29.5246 21.2786 30.0635 21.4885C30.3805 21.5934 30.4861 21.8033 30.5918 22.0131L30.9088 24.4265Z" fill="#00AAC8"/>
<path d="M31.8693 19.9143C29.0905 19.9143 26.8506 17.7108 26.8506 14.9826C26.8506 12.2543 29.0905 10.0508 31.8693 10.0508C34.6481 10.0508 36.8881 12.2543 36.8881 14.9826C36.8881 17.7108 34.6481 19.9143 31.8693 19.9143ZM31.8693 11.31C29.8407 11.31 28.2453 12.8839 28.2453 14.8776C28.2453 16.8713 29.8407 18.4453 31.8693 18.4453C33.898 18.4453 35.4934 16.8713 35.4934 14.8776C35.599 12.9889 33.898 11.31 31.8693 11.31Z" fill="#00AAC8"/>
<path d="M48.5211 46.0415C48.2041 46.0415 47.8766 45.7267 47.8766 45.4119V1.4457H15.8623V45.4119C15.8623 45.7267 15.5453 46.0415 15.2178 46.0415C14.8902 46.0415 14.5732 45.7267 14.5732 45.4119V0.816111C14.5732 0.501317 14.8902 0.186523 15.2178 0.186523H48.6162C48.9332 0.186523 49.2607 0.501317 49.2607 0.816111V45.4119C49.2607 45.7267 48.9437 46.0415 48.5105 46.0415H48.5211Z" fill="#00AAC8"/>
<path d="M55.8858 51.918H7.21984C3.59577 51.918 0.5 48.9799 0.5 45.3073C0.5 44.9925 0.816973 44.6777 1.14451 44.6777H5.20177C5.51874 44.6777 5.84628 44.9925 5.84628 45.3073C5.84628 45.6221 5.52931 45.9369 5.20177 45.9369H1.88412C2.20109 48.5602 4.44104 50.5539 7.21984 50.5539H55.8752C57.2594 50.5539 58.654 50.0292 59.605 48.9799C60.4608 48.1405 60.9891 47.0912 61.0947 45.9369H57.7877C57.4707 45.9369 57.1431 45.6221 57.1431 45.3073C57.1431 44.9925 57.4601 44.6777 57.7877 44.6777H61.8449C62.1619 44.6777 62.4894 44.9925 62.4894 45.3073C62.4894 47.0912 61.7393 48.6651 60.5665 49.9243C59.3937 51.2884 57.682 51.918 55.8752 51.918H55.8858Z" fill="#00AAC8"/>
<path d="M57.9041 46.0417H5.19139C4.87441 46.0417 4.54688 45.7269 4.54688 45.4121V16.1363C4.54688 12.7785 7.32568 9.94531 10.8441 9.94531H15.2183C15.5353 9.94531 15.8628 10.2601 15.8628 10.5749C15.8628 10.8897 15.5459 11.2045 15.2183 11.2045H10.8441C8.06528 11.2045 5.93099 13.408 5.93099 16.0313V44.6776H57.2596V16.1363C57.2596 13.408 55.0196 11.3094 52.3465 11.3094H48.6167C48.2998 11.3094 47.9722 10.9946 47.9722 10.6798C47.9722 10.365 48.2892 10.0502 48.6167 10.0502H52.3465C55.7592 10.0502 58.6437 12.7785 58.6437 16.2412V45.517C58.538 45.7269 58.221 46.0417 57.8935 46.0417H57.9041Z" fill="#00AAC8"/>
<path d="M7.21937 8.05681C4.97942 8.05681 3.16211 6.27298 3.16211 4.06942C3.16211 1.86586 4.97942 0.0820312 7.21937 0.0820312C9.45931 0.0820312 11.2766 1.86586 11.2766 4.06942C11.2766 6.27298 9.45931 8.05681 7.21937 8.05681ZM7.21937 1.44614C5.72959 1.44614 4.54623 2.60038 4.54623 4.06942C4.54623 5.53846 5.71903 6.6927 7.21937 6.6927C8.71971 6.6927 9.88195 5.53846 9.88195 4.06942C9.88195 2.60038 8.70914 1.44614 7.21937 1.44614Z" fill="#00AAC8"/>
<path d="M43.9254 34.2894H19.9199C19.6029 34.2894 19.2754 33.9747 19.2754 33.6599C19.2754 33.3451 19.5924 33.0303 19.9199 33.0303H43.9254C44.2423 33.0303 44.5699 33.3451 44.5699 33.6599C44.5699 33.9747 44.2529 34.2894 43.9254 34.2894Z" fill="#00AAC8"/>
<path d="M43.9254 30.932H19.9199C19.6029 30.932 19.2754 30.6172 19.2754 30.3024C19.2754 29.9876 19.5924 29.6729 19.9199 29.6729H43.9254C44.2423 29.6729 44.5699 29.9876 44.5699 30.3024C44.5699 30.6172 44.2529 30.932 43.9254 30.932Z" fill="#00AAC8"/>
<path d="M43.9254 37.5424H19.9199C19.6029 37.5424 19.2754 37.2276 19.2754 36.9128C19.2754 36.598 19.5924 36.2832 19.9199 36.2832H43.9254C44.2423 36.2832 44.5699 36.598 44.5699 36.9128C44.5699 37.2276 44.2529 37.5424 43.9254 37.5424Z" fill="#00AAC8"/>
<path d="M43.9254 40.7953H19.9199C19.6029 40.7953 19.2754 40.4805 19.2754 40.1657C19.2754 39.8509 19.5924 39.5361 19.9199 39.5361H43.9254C44.2423 39.5361 44.5699 39.8509 44.5699 40.1657C44.5699 40.4805 44.2529 40.7953 43.9254 40.7953Z" fill="#00AAC8"/>
</svg>
