<svg width="63" height="52" viewBox="0 0 63 52" fill="none" xmlns="http://www.w3.org/2000/svg">
<path d="M61.5385 21.1729C62.0668 21.1729 62.5 21.5926 62.5 22.1172C62.5 22.6419 62.0668 23.0616 61.5385 23.0616C61.0102 23.0616 60.577 22.6419 60.577 22.1172C60.577 21.5926 61.0102 21.1729 61.5385 21.1729Z" fill="white"/>
<path d="M58.8654 0.186523C59.3937 0.186523 59.8269 0.606249 59.8269 1.13091C59.8269 1.65556 59.3937 2.07529 58.8654 2.07529C58.3371 2.07529 57.9039 1.65556 57.9039 1.13091C57.9039 0.606249 58.3371 0.186523 58.8654 0.186523Z" fill="white"/>
<path d="M52.8957 5.9581C53.4267 5.9581 53.8572 5.53528 53.8572 5.01372C53.8572 4.49215 53.4267 4.06934 52.8957 4.06934C52.3647 4.06934 51.9342 4.49215 51.9342 5.01372C51.9342 5.53528 52.3647 5.9581 52.8957 5.9581Z" fill="white"/>
<path d="M2.21161 10.0508C2.7399 10.0508 3.17309 10.4705 3.17309 10.9952C3.17309 11.5198 2.7399 11.9395 2.21161 11.9395C1.68332 11.9395 1.25012 11.5198 1.25012 10.9952C1.25012 10.4705 1.68332 10.0508 2.21161 10.0508Z" fill="white"/>
<path d="M33.4758 25.6857H30.38C30.063 25.6857 29.7355 25.4759 29.7355 25.0561L29.5242 22.5378C29.1015 22.4329 28.6683 22.223 28.2457 22.0131L26.2171 23.5871C26.0058 23.797 25.5726 23.797 25.3612 23.5871L23.1213 21.3835C22.91 21.1737 22.91 20.754 23.1213 20.5441L24.7167 18.5504C24.5054 18.1307 24.2941 17.7109 24.1884 17.2912L21.5259 17.1863C21.2089 17.1863 20.8813 16.8715 20.8813 16.5567V13.5137C20.8813 13.1989 21.0927 12.8841 21.5259 12.8841L24.0828 12.5693C24.1884 12.1496 24.3998 11.7299 24.6111 11.3101L23.0051 9.31644C22.7938 9.10658 22.7938 8.68685 23.0051 8.47699L25.245 6.27343C25.4563 6.06357 25.8895 6.06357 26.1008 6.27343L28.1295 7.8474C28.5521 7.63754 28.9853 7.42768 29.4079 7.32274L29.6192 4.80439C29.6192 4.4896 29.9362 4.1748 30.2638 4.1748H33.3595C33.6765 4.1748 34.004 4.38467 34.004 4.80439L34.2154 7.32274C34.638 7.42768 35.0712 7.63754 35.4938 7.8474L37.5225 6.27343C37.7338 6.06357 38.167 6.06357 38.3783 6.27343L40.6182 8.47699C40.8295 8.68685 40.8295 9.10658 40.6182 9.31644L39.0228 11.3101C39.2341 11.7299 39.4454 12.1496 39.5511 12.5693L42.108 12.8841C42.425 12.8841 42.7525 13.1989 42.7525 13.5137V16.5567C42.7525 16.8715 42.5412 17.1863 42.108 17.1863L39.5511 17.5011C39.4454 17.9208 39.2341 18.3405 39.0228 18.7603L40.6182 20.754C40.8295 20.9638 40.8295 21.3835 40.6182 21.5934L38.4839 23.692C38.2726 23.9019 37.8394 23.9019 37.6281 23.692L35.5995 22.1181C35.1768 22.3279 34.7436 22.5378 34.321 22.6427L34.1097 25.1611C34.1097 25.4759 33.7927 25.6857 33.4652 25.6857H33.4758ZM30.9083 24.4265H32.8312L33.0426 22.1181C33.0426 21.8033 33.2539 21.5934 33.5708 21.5934C34.2154 21.4885 34.7436 21.1737 35.2825 20.8589C35.4938 20.754 35.8108 20.754 36.0327 20.9638L37.9556 22.4329L39.3398 21.0687L37.85 19.18C37.6387 18.9701 37.6387 18.6553 37.7443 18.4455C38.0613 17.9208 38.2726 17.2912 38.4945 16.7666C38.6002 16.4518 38.8115 16.3468 39.0228 16.2419L41.4741 16.032V14.0383L39.0228 13.8285C38.7058 13.8285 38.4945 13.6186 38.4945 13.3038C38.3888 12.6742 38.0719 12.1496 37.7443 11.6249C37.6387 11.4151 37.6387 11.1003 37.85 10.8904L39.3398 9.00164L37.9556 7.63754L36.0327 9.10658C35.8214 9.31644 35.5044 9.31644 35.2825 9.21151C34.7542 8.89671 34.1097 8.68685 33.5708 8.47699C33.2539 8.37206 33.1482 8.16219 33.0426 7.95233L32.8312 5.64384H30.9083L30.697 7.95233C30.697 8.26713 30.4856 8.47699 30.1687 8.47699C29.5242 8.58192 28.9959 8.89671 28.457 9.21151C28.2457 9.31644 27.9287 9.31644 27.7068 9.10658L25.7839 7.63754L24.3998 9.00164L25.8895 10.8904C26.1008 11.1003 26.1008 11.4151 25.9952 11.6249C25.6782 12.1496 25.4669 12.7792 25.245 13.3038C25.1394 13.6186 24.928 13.7236 24.7167 13.8285L22.2655 14.0383V15.9271L24.6111 16.137C24.928 16.137 25.1394 16.3468 25.1394 16.6616C25.245 17.2912 25.562 17.8159 25.8895 18.3405C25.9952 18.5504 25.9952 18.8652 25.7839 19.0751L24.2941 20.9638L25.6782 22.3279L27.6012 20.8589C27.8125 20.649 28.1295 20.649 28.3514 20.754C28.8796 21.0687 29.5242 21.2786 30.063 21.4885C30.38 21.5934 30.4856 21.8033 30.5913 22.0131L30.9083 24.4265Z" fill="white"/>
<path d="M31.8698 19.9143C29.091 19.9143 26.8511 17.7108 26.8511 14.9826C26.8511 12.2543 29.091 10.0508 31.8698 10.0508C34.6486 10.0508 36.8886 12.2543 36.8886 14.9826C36.8886 17.7108 34.6486 19.9143 31.8698 19.9143ZM31.8698 11.31C29.8412 11.31 28.2458 12.8839 28.2458 14.8776C28.2458 16.8713 29.8412 18.4453 31.8698 18.4453C33.8984 18.4453 35.4939 16.8713 35.4939 14.8776C35.5995 12.9889 33.8984 11.31 31.8698 11.31Z" fill="white"/>
<path d="M48.5215 46.0415C48.2045 46.0415 47.8769 45.7267 47.8769 45.4119V1.4457H15.8626V45.4119C15.8626 45.7267 15.5457 46.0415 15.2181 46.0415C14.8906 46.0415 14.5736 45.7267 14.5736 45.4119V0.816111C14.5736 0.501317 14.8906 0.186523 15.2181 0.186523H48.6166C48.9335 0.186523 49.2611 0.501317 49.2611 0.816111V45.4119C49.2611 45.7267 48.9441 46.0415 48.5109 46.0415H48.5215Z" fill="white"/>
<path d="M55.8858 51.918H7.21984C3.59577 51.918 0.5 48.9799 0.5 45.3073C0.5 44.9925 0.816973 44.6777 1.14451 44.6777H5.20177C5.51874 44.6777 5.84628 44.9925 5.84628 45.3073C5.84628 45.6221 5.52931 45.9369 5.20177 45.9369H1.88412C2.20109 48.5602 4.44104 50.5539 7.21984 50.5539H55.8752C57.2594 50.5539 58.654 50.0292 59.605 48.9799C60.4608 48.1405 60.9891 47.0912 61.0947 45.9369H57.7877C57.4707 45.9369 57.1431 45.6221 57.1431 45.3073C57.1431 44.9925 57.4601 44.6777 57.7877 44.6777H61.8449C62.1619 44.6777 62.4894 44.9925 62.4894 45.3073C62.4894 47.0912 61.7393 48.6651 60.5665 49.9243C59.3937 51.2884 57.682 51.918 55.8752 51.918H55.8858Z" fill="white"/>
<path d="M57.9039 46.0417H5.19127C4.87429 46.0417 4.54675 45.7269 4.54675 45.4121V16.1363C4.54675 12.7785 7.32555 9.94531 10.844 9.94531H15.2182C15.5352 9.94531 15.8627 10.2601 15.8627 10.5749C15.8627 10.8897 15.5457 11.2045 15.2182 11.2045H10.844C8.06516 11.2045 5.93087 13.408 5.93087 16.0313V44.6776H57.2594V16.1363C57.2594 13.408 55.0195 11.3094 52.3463 11.3094H48.6166C48.2996 11.3094 47.9721 10.9946 47.9721 10.6798C47.9721 10.365 48.2891 10.0502 48.6166 10.0502H52.3463C55.7591 10.0502 58.6435 12.7785 58.6435 16.2412V45.517C58.5379 45.7269 58.2209 46.0417 57.8934 46.0417H57.9039Z" fill="white"/>
<path d="M7.21986 8.05681C4.97991 8.05681 3.1626 6.27298 3.1626 4.06942C3.1626 1.86586 4.97991 0.0820312 7.21986 0.0820312C9.4598 0.0820312 11.2771 1.86586 11.2771 4.06942C11.2771 6.27298 9.4598 8.05681 7.21986 8.05681ZM7.21986 1.44614C5.73008 1.44614 4.54671 2.60038 4.54671 4.06942C4.54671 5.53846 5.71952 6.6927 7.21986 6.6927C8.7202 6.6927 9.88243 5.53846 9.88243 4.06942C9.88243 2.60038 8.70963 1.44614 7.21986 1.44614Z" fill="white"/>
<path d="M43.9254 34.2894H19.9199C19.6029 34.2894 19.2754 33.9747 19.2754 33.6599C19.2754 33.3451 19.5924 33.0303 19.9199 33.0303H43.9254C44.2423 33.0303 44.5699 33.3451 44.5699 33.6599C44.5699 33.9747 44.2529 34.2894 43.9254 34.2894Z" fill="white"/>
<path d="M43.9254 30.932H19.9199C19.6029 30.932 19.2754 30.6172 19.2754 30.3024C19.2754 29.9876 19.5924 29.6729 19.9199 29.6729H43.9254C44.2423 29.6729 44.5699 29.9876 44.5699 30.3024C44.5699 30.6172 44.2529 30.932 43.9254 30.932Z" fill="white"/>
<path d="M43.9254 37.5424H19.9199C19.6029 37.5424 19.2754 37.2276 19.2754 36.9128C19.2754 36.598 19.5924 36.2832 19.9199 36.2832H43.9254C44.2423 36.2832 44.5699 36.598 44.5699 36.9128C44.5699 37.2276 44.2529 37.5424 43.9254 37.5424Z" fill="white"/>
<path d="M43.9254 40.7953H19.9199C19.6029 40.7953 19.2754 40.4805 19.2754 40.1657C19.2754 39.8509 19.5924 39.5361 19.9199 39.5361H43.9254C44.2423 39.5361 44.5699 39.8509 44.5699 40.1657C44.5699 40.4805 44.2529 40.7953 43.9254 40.7953Z" fill="white"/>
</svg>
