<svg width="78" height="70" viewBox="0 0 78 70" fill="none" xmlns="http://www.w3.org/2000/svg">
<g clip-path="url(#clip0_366_774)">
<path d="M71.3317 25.0814V26.9836H7.5V25.0814C7.5 21.8205 10.1614 19.239 13.5158 19.239C40.8089 19.239 -20.5 19.239 65.4545 19.239C68.6703 19.239 71.3317 21.8205 71.3317 25.0814Z" fill="#E5F4FF"/>
<path d="M71.3317 1.44019C73.2861 1.44019 74.8248 2.93475 74.8248 4.83693C74.8248 6.7391 73.2861 8.23366 71.3317 8.23366C69.3772 8.23366 67.8386 6.7391 67.8386 4.83693C67.8386 2.93475 69.3772 1.44019 71.3317 1.44019Z" fill="#99D1FF"/>
<path d="M6.65446 4.02173C9.03861 4.02173 10.9931 5.9239 10.9931 8.23369C10.9931 10.5435 9.03861 12.4456 6.65446 12.4456C4.2703 12.4456 2.31584 10.5435 2.31584 8.23369C2.31584 5.9239 4.13168 4.02173 6.65446 4.02173Z" fill="#99D1FF"/>
<path d="M63.5 19.2392V20.4621C63.5 22.0925 62.1 23.4512 60.4228 23.4512C58.7455 23.4512 57.3455 22.0925 57.3455 20.4621V16.2501C57.3455 14.6197 58.7455 13.261 60.4228 13.261C61.2683 13.261 62.1 13.5327 62.5297 14.0762C63.0842 14.6197 63.3752 15.299 63.3752 16.1142L63.5139 19.2392H63.5Z" fill="#99D1FF"/>
<path d="M52.9931 19.2392V20.4621C52.9931 22.0925 51.5931 23.4512 49.9158 23.4512C48.2386 23.4512 46.8386 22.0925 46.8386 20.4621V16.2501C46.8386 14.6197 48.2386 13.261 49.9158 13.261C50.7614 13.261 51.5931 13.5327 52.0089 14.0762C52.5634 14.6197 52.8544 15.299 52.8544 16.1142L52.9931 19.2392Z" fill="#99D1FF"/>
<path d="M42.5 19.2392V20.4621C42.5 22.0925 41.1 23.4512 39.4228 23.4512C37.7455 23.4512 36.3456 22.0925 36.3456 20.4621V16.2501C36.3456 14.6197 37.7455 13.261 39.4228 13.261C40.2683 13.261 41.1 13.5327 41.5297 14.0762C42.0842 14.6197 42.3753 15.299 42.3753 16.1142L42.5139 19.2392H42.5Z" fill="#99D1FF"/>
<path d="M31.9931 19.2392V20.4621C31.9931 22.0925 30.5931 23.4512 28.9158 23.4512C27.2386 23.4512 25.8386 22.0925 25.8386 20.4621V16.2501C25.8386 14.6197 27.2386 13.261 28.9158 13.261C29.7614 13.261 30.5931 13.5327 31.0089 14.0762C31.5634 14.6197 31.8545 15.299 31.8545 16.1142L31.9931 19.2392Z" fill="#99D1FF"/>
<path d="M21.5 19.2392V20.4621C21.5 22.0925 20.1 23.4512 18.4228 23.4512C16.7455 23.4512 15.3455 22.0925 15.3455 20.4621V16.2501C15.3455 14.6197 16.7455 13.261 18.4228 13.261C19.2683 13.261 20.1 13.5327 20.5297 14.0762C21.0842 14.6197 21.3752 15.299 21.3752 16.1142L21.5139 19.2392H21.5Z" fill="#99D1FF"/>
<path d="M71.3317 26.9836V31.1956H68.8089H10.1614H7.5V26.9836H71.3317Z" fill="#99D1FF"/>
<path d="M68.8089 31.1956V63.2608C68.8089 66.2499 66.4247 68.5597 63.3475 68.5597H15.6228C12.5455 68.5597 10.1614 66.2499 10.1614 63.2608V31.1956H68.8228H68.8089Z" fill="#E5F4FF"/>
<path d="M56.5 34.5923C58.4545 34.5923 59.9931 36.0869 59.9931 37.989C59.9931 39.8912 58.4545 41.3858 56.5 41.3858C54.5455 41.3858 53.0069 39.8912 53.0069 37.989C53.0069 36.0869 54.5455 34.5923 56.5 34.5923Z" fill="#99D1FF"/>
<path d="M56.5 44.7827C58.4545 44.7827 59.9931 46.2773 59.9931 48.1795C59.9931 50.0816 58.4545 51.5762 56.5 51.5762C54.5455 51.5762 53.0069 50.0816 53.0069 48.1795C53.0069 46.2773 54.5455 44.7827 56.5 44.7827Z" fill="#99D1FF"/>
<path d="M45.1614 54.9729C47.1158 54.9729 48.6545 56.4675 48.6545 58.3696C48.6545 60.2718 47.1158 61.7664 45.1614 61.7664C43.2069 61.7664 41.6683 60.2718 41.6683 58.3696C41.6683 56.4675 43.2069 54.9729 45.1614 54.9729Z" fill="#99D1FF"/>
<path d="M45.1614 44.7827C47.1158 44.7827 48.6545 46.2773 48.6545 48.1795C48.6545 50.0816 47.1158 51.5762 45.1614 51.5762C43.2069 51.5762 41.6683 50.0816 41.6683 48.1795C41.6683 46.2773 43.2069 44.7827 45.1614 44.7827Z" fill="#99D1FF"/>
<path d="M45.1614 34.5923C47.1158 34.5923 48.6545 36.0869 48.6545 37.989C48.6545 39.8912 47.1158 41.3858 45.1614 41.3858C43.2069 41.3858 41.6683 39.8912 41.6683 37.989C41.6683 36.0869 43.2069 34.5923 45.1614 34.5923Z" fill="#99D1FF"/>
<path d="M33.8228 34.5923C35.7772 34.5923 37.3158 36.0869 37.3158 37.989C37.3158 39.8912 35.7772 41.3858 33.8228 41.3858C31.8683 41.3858 30.3297 39.8912 30.3297 37.989C30.3297 36.0869 31.8683 34.5923 33.8228 34.5923Z" fill="#99D1FF"/>
<path d="M33.8228 54.9729C35.7772 54.9729 37.3158 56.4675 37.3158 58.3696C37.3158 60.2718 35.7772 61.7664 33.8228 61.7664C31.8683 61.7664 30.3297 60.2718 30.3297 58.3696C30.3297 56.4675 31.8683 54.9729 33.8228 54.9729Z" fill="#99D1FF"/>
<path d="M22.3317 54.9729C24.2861 54.9729 25.8248 56.4675 25.8248 58.3696C25.8248 60.2718 24.2861 61.7664 22.3317 61.7664C20.3772 61.7664 18.8386 60.2718 18.8386 58.3696C18.8386 56.4675 20.3772 54.9729 22.3317 54.9729Z" fill="#99D1FF"/>
<path d="M22.3317 44.7827C24.2861 44.7827 25.8248 46.2773 25.8248 48.1795C25.8248 50.0816 24.2861 51.5762 22.3317 51.5762C20.3772 51.5762 18.8386 50.0816 18.8386 48.1795C18.8386 46.2773 20.3772 44.7827 22.3317 44.7827Z" fill="#99D1FF"/>
<path d="M56.5 61.7664C58.4292 61.7664 59.9931 60.2456 59.9931 58.3696C59.9931 56.4937 58.4292 54.9729 56.5 54.9729C54.5708 54.9729 53.0069 56.4937 53.0069 58.3696C53.0069 60.2456 54.5708 61.7664 56.5 61.7664Z" fill="#99D1FF"/>
<path d="M33.6842 51.5762C35.6133 51.5762 37.1772 50.0554 37.1772 48.1795C37.1772 46.3035 35.6133 44.7827 33.6842 44.7827C31.755 44.7827 30.1911 46.3035 30.1911 48.1795C30.1911 50.0554 31.755 51.5762 33.6842 51.5762Z" fill="#99D1FF"/>
<path d="M22.3317 34.5923C24.2861 34.5923 25.8248 36.0869 25.8248 37.989C25.8248 39.8912 24.2861 41.3858 22.3317 41.3858C20.3772 41.3858 18.8386 39.8912 18.8386 37.989C18.8386 36.0869 20.3772 34.5923 22.3317 34.5923Z" fill="#99D1FF"/>
<path d="M76.2386 14.2119C76.9317 14.2119 77.5 14.7554 77.5 15.4347C77.5 16.1141 76.9317 16.6576 76.2386 16.6576C75.5455 16.6576 74.9772 16.1141 74.9772 15.4347C74.9772 14.7554 75.5455 14.2119 76.2386 14.2119Z" fill="#006DC6"/>
<path d="M75.2545 39.7554C75.9475 39.7554 76.5158 40.2989 76.5158 40.9782C76.5158 41.6575 75.9475 42.201 75.2545 42.201C74.5614 42.201 73.9931 41.6575 73.9931 40.9782C73.9931 40.2989 74.5614 39.7554 75.2545 39.7554Z" fill="#006DC6"/>
<path d="M56.9158 2.39136C57.6089 2.39136 58.1772 2.93484 58.1772 3.61418C58.1772 4.29353 57.6089 4.83701 56.9158 4.83701C56.2228 4.83701 55.6545 4.29353 55.6545 3.61418C55.6545 2.93484 56.2228 2.39136 56.9158 2.39136Z" fill="#006DC6"/>
<path d="M43.7614 6.60327C44.4545 6.60327 45.0228 7.14675 45.0228 7.8261C45.0228 8.50545 44.4545 9.04892 43.7614 9.04892C43.0683 9.04892 42.5 8.50545 42.5 7.8261C42.5 7.14675 43.0683 6.60327 43.7614 6.60327Z" fill="#006DC6"/>
<path d="M19.2545 2.39136C19.9475 2.39136 20.5158 2.93484 20.5158 3.61418C20.5158 4.29353 19.9475 4.83701 19.2545 4.83701C18.5614 4.83701 17.9931 4.29353 17.9931 3.61418C17.9931 2.93484 18.5614 2.39136 19.2545 2.39136Z" fill="#006DC6"/>
<path d="M4.42277 58.3696C5.11584 58.3696 5.68416 58.9131 5.68416 59.5925C5.68416 60.2718 5.11584 60.8153 4.42277 60.8153C3.7297 60.8153 3.16138 60.2718 3.16138 59.5925C3.16138 58.9131 3.7297 58.3696 4.42277 58.3696Z" fill="#006DC6"/>
<path d="M1.76139 36.3586C2.45446 36.3586 3.02277 36.9021 3.02277 37.5815C3.02277 38.2608 2.45446 38.8043 1.76139 38.8043C1.06832 38.8043 0.5 38.2608 0.5 37.5815C0.5 36.9021 1.06832 36.3586 1.76139 36.3586Z" fill="#006DC6"/>
<path d="M63.3614 69.3749H15.6228C12.1297 69.3749 9.3297 66.6575 9.3297 63.2608V31.1956C9.3297 30.788 9.74555 30.3804 10.1752 30.3804C10.605 30.3804 11.0208 30.788 11.0208 31.1956V63.2608C11.0208 65.7065 13.1139 67.7445 15.6366 67.7445H63.3753C65.898 67.7445 67.9911 65.7065 67.9911 63.2608V31.1956C67.9911 30.788 68.4069 30.3804 68.8366 30.3804C69.2663 30.3804 69.6822 30.788 69.6822 31.1956V63.2608C69.6822 66.6575 66.7436 69.3749 63.3891 69.3749H63.3614Z" fill="#006DC6"/>
<path d="M71.3317 27.7989H7.5C7.08416 27.7989 6.65446 27.3913 6.65446 26.9837C6.65446 26.5761 7.0703 26.1685 7.5 26.1685H71.3317C71.7475 26.1685 72.1772 26.5761 72.1772 26.9837C72.3158 27.3913 71.9 27.7989 71.3317 27.7989Z" fill="#006DC6"/>
<path d="M71.3317 32.0108H7.5C7.08416 32.0108 6.65446 31.6032 6.65446 31.1956V25.0814C6.65446 21.413 9.73169 18.4238 13.5158 18.4238H15.4703C15.8861 18.4238 16.3158 18.8314 16.3158 19.239C16.3158 19.6467 15.9 20.0543 15.4703 20.0543H13.5158C10.7158 20.0543 8.4703 22.2282 8.4703 24.9456V30.2445H70.6248V24.9456C70.6248 22.2282 68.3792 20.0543 65.5792 20.0543H63.6248C63.2089 20.0543 62.7792 19.6467 62.7792 19.239C62.7792 18.8314 63.1951 18.4238 63.6248 18.4238H65.5792C69.3634 18.4238 72.4406 21.413 72.4406 25.0814V31.1956C72.302 31.6032 71.8861 32.0108 71.3178 32.0108H71.3317Z" fill="#006DC6"/>
<path d="M25.8386 20.1902H21.5C21.0842 20.1902 20.6545 19.7826 20.6545 19.375C20.6545 18.9674 21.0703 18.5598 21.5 18.5598H25.8386C26.2545 18.5598 26.6842 18.9674 26.6842 19.375C26.8228 19.7826 26.4069 20.1902 25.8386 20.1902Z" fill="#006DC6"/>
<path d="M36.3317 20.1902H31.9931C31.5772 20.1902 31.1475 19.7826 31.1475 19.375C31.1475 18.9674 31.5634 18.5598 31.9931 18.5598H36.3317C36.7475 18.5598 37.1772 18.9674 37.1772 19.375C37.3158 19.7826 36.9 20.1902 36.3317 20.1902Z" fill="#006DC6"/>
<path d="M46.8386 20.1902H42.5C42.0842 20.1902 41.6545 19.7826 41.6545 19.375C41.6545 18.9674 42.0703 18.5598 42.5 18.5598H46.8386C47.2545 18.5598 47.6842 18.9674 47.6842 19.375C47.8228 19.7826 47.4069 20.1902 46.8386 20.1902Z" fill="#006DC6"/>
<path d="M57.3317 20.1902H52.9931C52.5772 20.1902 52.1475 19.7826 52.1475 19.375C52.1475 18.9674 52.5634 18.5598 52.9931 18.5598H57.3317C57.7475 18.5598 58.1772 18.9674 58.1772 19.375C58.3158 19.7826 57.9 20.1902 57.3317 20.1902Z" fill="#006DC6"/>
<path d="M18.4228 24.4022C16.1772 24.4022 14.5 22.6359 14.5 20.5978V16.3859C14.5 14.212 16.3158 12.5815 18.4228 12.5815C19.5455 12.5815 20.5297 12.9892 21.2228 13.6685C21.9158 14.3478 22.3455 15.2989 22.3455 16.3859V20.5978C22.3455 22.6359 20.6683 24.4022 18.4228 24.4022ZM18.4228 14.212C17.1614 14.212 16.1772 15.1631 16.1772 16.3859V20.5978C16.1772 21.8207 17.1614 22.7718 18.4228 22.7718C19.6842 22.7718 20.6683 21.8207 20.6683 20.5978V16.3859C20.6683 15.8424 20.3911 15.2989 19.9752 14.8913C19.5594 14.3478 18.9911 14.212 18.4366 14.212H18.4228Z" fill="#006DC6"/>
<path d="M28.9158 24.4022C26.6703 24.4022 24.9931 22.6359 24.9931 20.5978V16.3859C24.9931 14.212 26.8089 12.5815 28.9158 12.5815C30.0386 12.5815 31.0089 12.9892 31.7158 13.6685C32.4228 14.3478 32.8386 15.2989 32.8386 16.3859V20.5978C32.8386 22.6359 31.1614 24.4022 28.9158 24.4022ZM28.9158 14.212C27.6545 14.212 26.6703 15.1631 26.6703 16.3859V20.5978C26.6703 21.8207 27.6545 22.7718 28.9158 22.7718C30.1772 22.7718 31.1614 21.8207 31.1614 20.5978V16.3859C31.1614 15.8424 30.8842 15.2989 30.4683 14.8913C30.0525 14.3478 29.4842 14.212 28.9297 14.212H28.9158Z" fill="#006DC6"/>
<path d="M39.4228 24.4022C37.1772 24.4022 35.5 22.6359 35.5 20.5978V16.3859C35.5 14.212 37.3158 12.5815 39.4228 12.5815C40.5455 12.5815 41.5297 12.9892 42.2228 13.6685C42.9158 14.3478 43.3455 15.2989 43.3455 16.3859V20.5978C43.3455 22.6359 41.6683 24.4022 39.4228 24.4022ZM39.4228 14.212C38.1614 14.212 37.1772 15.1631 37.1772 16.3859V20.5978C37.1772 21.8207 38.1614 22.7718 39.4228 22.7718C40.6842 22.7718 41.6683 21.8207 41.6683 20.5978V16.3859C41.6683 15.8424 41.3911 15.2989 40.9752 14.8913C40.5594 14.3478 39.9911 14.212 39.4366 14.212H39.4228Z" fill="#006DC6"/>
<path d="M49.9158 24.4022C47.6703 24.4022 45.9931 22.6359 45.9931 20.5978V16.3859C45.9931 14.212 47.8089 12.5815 49.9158 12.5815C51.0386 12.5815 52.0089 12.9892 52.7158 13.6685C53.4228 14.3478 53.8386 15.2989 53.8386 16.3859V20.5978C53.8386 22.6359 52.1614 24.4022 49.9158 24.4022ZM49.9158 14.212C48.6545 14.212 47.6703 15.1631 47.6703 16.3859V20.5978C47.6703 21.8207 48.6545 22.7718 49.9158 22.7718C51.1772 22.7718 52.1614 21.8207 52.1614 20.5978V16.3859C52.1614 15.8424 51.8842 15.2989 51.4683 14.8913C51.0525 14.3478 50.4842 14.212 49.9297 14.212H49.9158Z" fill="#006DC6"/>
<path d="M60.4228 24.4022C58.1772 24.4022 56.5 22.6359 56.5 20.5978V16.3859C56.5 14.212 58.3158 12.5815 60.4228 12.5815C61.5455 12.5815 62.5297 12.9892 63.2228 13.6685C63.9158 14.3478 64.3455 15.2989 64.3455 16.3859V20.5978C64.3455 22.6359 62.6683 24.4022 60.4228 24.4022ZM60.4228 14.212C59.1614 14.212 58.1772 15.1631 58.1772 16.3859V20.5978C58.1772 21.8207 59.1614 22.7718 60.4228 22.7718C61.6842 22.7718 62.6683 21.8207 62.6683 20.5978V16.3859C62.6683 15.8424 62.3911 15.2989 61.9614 14.8913C61.5455 14.3478 60.9772 14.212 60.4228 14.212Z" fill="#006DC6"/>
<path d="M71.3317 9.04891C68.9475 9.04891 66.9931 7.14674 66.9931 4.83696C66.9931 2.52717 68.9475 0.625 71.3317 0.625C73.7158 0.625 75.6703 2.52717 75.6703 4.83696C75.6703 7.14674 73.7158 9.04891 71.3317 9.04891ZM71.3317 2.25543C69.9317 2.25543 68.6703 3.34239 68.6703 4.83696C68.6703 6.19565 69.7931 7.41848 71.3317 7.41848C72.7317 7.41848 73.9931 6.33152 73.9931 4.83696C73.9931 3.34239 72.8703 2.25543 71.3317 2.25543Z" fill="#006DC6"/>
<path d="M6.65445 13.3966C3.71584 13.3966 1.33168 11.0869 1.33168 8.2336C1.33168 5.38034 3.71584 3.07056 6.65445 3.07056C9.59307 3.07056 11.9772 5.38034 11.9772 8.2336C11.9772 11.0869 9.45445 13.3966 6.65445 13.3966ZM6.65445 4.83686C4.7 4.83686 3.16138 6.33143 3.16138 8.2336C3.16138 10.1358 4.7 11.6303 6.65445 11.6303C8.60891 11.6303 10.1475 10.1358 10.1475 8.2336C10.1475 6.33143 8.60891 4.83686 6.65445 4.83686Z" fill="#006DC6"/>
<path d="M22.3317 42.201C19.9475 42.201 17.9931 40.2988 17.9931 37.9891C17.9931 35.6793 19.9475 33.7771 22.3317 33.7771C24.7158 33.7771 26.6703 35.6793 26.6703 37.9891C26.6703 40.2988 24.7158 42.201 22.3317 42.201ZM22.3317 35.4075C20.9317 35.4075 19.6703 36.4945 19.6703 37.9891C19.6703 39.4836 20.7931 40.5706 22.3317 40.5706C23.7317 40.5706 24.9931 39.4836 24.9931 37.9891C24.9931 36.4945 23.8703 35.4075 22.3317 35.4075Z" fill="#006DC6"/>
<path d="M33.8228 42.201C31.4386 42.201 29.4842 40.2988 29.4842 37.9891C29.4842 35.6793 31.4386 33.7771 33.8228 33.7771C36.2069 33.7771 38.1614 35.6793 38.1614 37.9891C38.1614 40.2988 36.2069 42.201 33.8228 42.201ZM33.8228 35.4075C32.4228 35.4075 31.1614 36.4945 31.1614 37.9891C31.1614 39.4836 32.2842 40.5706 33.8228 40.5706C35.2228 40.5706 36.4842 39.4836 36.4842 37.9891C36.4842 36.4945 35.2228 35.4075 33.8228 35.4075Z" fill="#006DC6"/>
<path d="M45.1614 42.201C42.7772 42.201 40.8228 40.2988 40.8228 37.9891C40.8228 35.6793 42.7772 33.7771 45.1614 33.7771C47.5455 33.7771 49.5 35.6793 49.5 37.9891C49.5 40.2988 47.5455 42.201 45.1614 42.201ZM45.1614 35.4075C43.7614 35.4075 42.5 36.4945 42.5 37.9891C42.5 39.4836 43.6228 40.5706 45.1614 40.5706C46.5614 40.5706 47.8228 39.4836 47.8228 37.9891C47.8228 36.4945 46.5614 35.4075 45.1614 35.4075Z" fill="#006DC6"/>
<path d="M56.5 42.201C54.1158 42.201 52.1614 40.2988 52.1614 37.9891C52.1614 35.6793 54.1158 33.7771 56.5 33.7771C58.8842 33.7771 60.8386 35.6793 60.8386 37.9891C60.8386 40.2988 58.8842 42.201 56.5 42.201ZM56.5 35.4075C55.1 35.4075 53.8386 36.4945 53.8386 37.9891C53.8386 39.4836 54.9614 40.5706 56.5 40.5706C57.9 40.5706 59.1614 39.4836 59.1614 37.9891C59.1614 36.4945 57.9 35.4075 56.5 35.4075Z" fill="#006DC6"/>
<path d="M22.3317 52.3912C19.9475 52.3912 17.9931 50.489 17.9931 48.1792C17.9931 45.8695 19.9475 43.9673 22.3317 43.9673C24.7158 43.9673 26.6703 45.8695 26.6703 48.1792C26.6703 50.489 24.7158 52.3912 22.3317 52.3912ZM22.3317 45.5977C20.9317 45.5977 19.6703 46.6847 19.6703 48.1792C19.6703 49.6738 20.7931 50.7608 22.3317 50.7608C23.7317 50.7608 24.9931 49.6738 24.9931 48.1792C24.9931 46.6847 23.8703 45.5977 22.3317 45.5977Z" fill="#006DC6"/>
<path d="M33.8228 52.3912C32.7 52.3912 31.5772 51.9836 30.7455 51.1684C29.9 50.3532 29.4842 49.2662 29.4842 48.1792C29.4842 47.0923 29.9 46.0053 30.7455 45.1901C31.5911 44.3749 32.7 43.9673 33.8228 43.9673C34.9455 43.9673 36.0683 44.3749 36.9 45.1901C37.7455 46.0053 38.1614 47.0923 38.1614 48.1792C38.1614 49.2662 37.7455 50.3532 36.9 51.1684C36.0545 51.9836 34.9455 52.3912 33.8228 52.3912ZM33.8228 45.5977C33.1297 45.5977 32.4228 45.8695 32.0069 46.2771C31.4525 46.8205 31.3139 47.364 31.3139 48.0434C31.3139 48.7227 31.5911 49.4021 32.0069 49.8097C32.5614 50.3532 33.1297 50.489 33.8228 50.489C34.5158 50.489 35.2228 50.2173 35.6386 49.8097C36.1931 49.2662 36.3317 48.7227 36.3317 48.0434C36.3317 47.364 36.0545 46.6847 35.6386 46.2771C35.0842 45.8695 34.5158 45.5977 33.8228 45.5977Z" fill="#006DC6"/>
<path d="M45.1614 52.3912C42.7772 52.3912 40.8228 50.489 40.8228 48.1792C40.8228 45.8695 42.7772 43.9673 45.1614 43.9673C47.5455 43.9673 49.5 45.8695 49.5 48.1792C49.5 50.489 47.5455 52.3912 45.1614 52.3912ZM45.1614 45.5977C43.7614 45.5977 42.5 46.6847 42.5 48.1792C42.5 49.6738 43.6228 50.7608 45.1614 50.7608C46.5614 50.7608 47.8228 49.6738 47.8228 48.1792C47.8228 46.6847 46.5614 45.5977 45.1614 45.5977Z" fill="#006DC6"/>
<path d="M56.5 52.3912C54.1158 52.3912 52.1614 50.489 52.1614 48.1792C52.1614 45.8695 54.1158 43.9673 56.5 43.9673C58.8842 43.9673 60.8386 45.8695 60.8386 48.1792C60.8386 50.489 58.8842 52.3912 56.5 52.3912ZM56.5 45.5977C55.1 45.5977 53.8386 46.6847 53.8386 48.1792C53.8386 49.6738 54.9614 50.7608 56.5 50.7608C57.9 50.7608 59.1614 49.6738 59.1614 48.1792C59.1614 46.6847 57.9 45.5977 56.5 45.5977Z" fill="#006DC6"/>
<path d="M22.3317 62.5816C19.9475 62.5816 17.9931 60.6795 17.9931 58.3697C17.9931 56.0599 19.9475 54.1577 22.3317 54.1577C24.7158 54.1577 26.6703 56.0599 26.6703 58.3697C26.8089 60.6795 24.7158 62.5816 22.3317 62.5816ZM22.3317 55.7881C20.9317 55.7881 19.6703 56.8751 19.6703 58.3697C19.6703 59.7284 20.7931 60.9512 22.3317 60.9512C23.7317 60.9512 24.9931 59.8642 24.9931 58.3697C24.9931 56.8751 23.8703 55.7881 22.3317 55.7881Z" fill="#006DC6"/>
<path d="M33.8228 62.5816C31.4386 62.5816 29.4842 60.6795 29.4842 58.3697C29.4842 56.0599 31.4386 54.1577 33.8228 54.1577C36.2069 54.1577 38.1614 56.0599 38.1614 58.3697C38.1614 60.6795 36.2069 62.5816 33.8228 62.5816ZM33.8228 55.7881C32.4228 55.7881 31.1614 56.8751 31.1614 58.3697C31.1614 59.7284 32.2842 60.9512 33.8228 60.9512C35.2228 60.9512 36.4842 59.8642 36.4842 58.3697C36.4842 56.8751 35.2228 55.7881 33.8228 55.7881Z" fill="#006DC6"/>
<path d="M45.1614 62.5816C42.7772 62.5816 40.8228 60.6795 40.8228 58.3697C40.8228 56.0599 42.7772 54.1577 45.1614 54.1577C47.5455 54.1577 49.5 56.0599 49.5 58.3697C49.5 60.6795 47.5455 62.5816 45.1614 62.5816ZM45.1614 55.7881C43.7614 55.7881 42.5 56.8751 42.5 58.3697C42.5 59.7284 43.6228 60.9512 45.1614 60.9512C46.5614 60.9512 47.8228 59.8642 47.8228 58.3697C47.8228 56.8751 46.5614 55.7881 45.1614 55.7881Z" fill="#006DC6"/>
<path d="M33.8228 48.9946C33.5455 48.9946 33.4069 48.8587 33.2683 48.7228C32.9911 48.4511 32.9911 47.9076 33.2683 47.5L37.6069 43.288C37.8842 43.0163 38.4525 43.0163 38.8683 43.288C39.1455 43.5598 39.1455 44.1032 38.8683 44.5109L34.5297 48.7228C34.2525 48.9946 33.9752 48.9946 33.8366 48.9946H33.8228Z" fill="#006DC6"/>
<path d="M56.5 62.5816C55.3772 62.5816 54.2545 62.174 53.4228 61.3588C52.5911 60.5436 52.1614 59.4566 52.1614 58.3697C52.1614 57.2827 52.5772 56.1958 53.4228 55.3805C54.2683 54.5653 55.3772 54.1577 56.5 54.1577C57.6228 54.1577 58.7455 54.5653 59.5772 55.3805C60.4089 56.1958 60.8386 57.2827 60.8386 58.3697C60.8386 59.4566 60.4228 60.5436 59.5772 61.3588C58.7317 62.174 57.6228 62.5816 56.5 62.5816ZM56.5 55.7881C55.8069 55.7881 55.1 56.0599 54.6842 56.4675C54.1297 57.011 53.9911 57.5545 53.9911 58.2338C53.9911 58.9131 54.2683 59.5925 54.6842 60.0001C55.2386 60.5436 55.8069 60.6795 56.5 60.6795C57.1931 60.6795 57.9 60.4077 58.3158 60.0001C58.7317 59.5925 59.0089 58.9131 59.0089 58.2338C59.0089 57.5545 58.7317 56.8751 58.3158 56.4675C57.9 56.0599 57.1931 55.7881 56.5 55.7881Z" fill="#006DC6"/>
<path d="M56.5 59.1847C56.2228 59.1847 56.0842 59.0489 55.9455 58.913C55.6683 58.6413 55.6683 58.0978 55.9455 57.6902L60.2842 53.4782C60.5614 53.2065 61.1297 53.2065 61.5455 53.4782C61.8228 53.75 61.8228 54.2934 61.5455 54.701L57.2069 58.913C56.9297 59.1847 56.7911 59.1847 56.5139 59.1847H56.5Z" fill="#006DC6"/>
</g>
<defs>
<clipPath id="clip0_366_774">
<rect width="77" height="68.75" fill="white" transform="translate(0.5 0.625)"/>
</clipPath>
</defs>
</svg>
