<svg width="69" height="69" viewBox="0 0 69 69" fill="none" xmlns="http://www.w3.org/2000/svg">
<g clip-path="url(#clip0_366_739)">
<path d="M56.4064 12.8176H12.5936C9.26586 12.8176 6.65543 15.453 6.65543 18.8072V47.3176H62.3563V18.8072C62.3563 15.453 59.7459 12.8176 56.4182 12.8176H56.4064Z" fill="#E1F7FB"/>
<path d="M62.3446 36.0574H40.8497V9.823H62.3446V36.0574Z" fill="#B0F3FF"/>
<path d="M62.4739 47.198H6.77301V51.7501H62.4739V47.198Z" fill="#E1F7FB"/>
<path d="M52.726 62.1719C54.384 62.1719 55.7009 63.4896 55.7009 65.1667C55.7009 66.8438 54.3957 68.1615 52.726 68.1615C51.0562 68.1615 49.7628 66.8438 49.7628 65.1667C49.7628 63.4896 51.068 62.1719 52.726 62.1719Z" fill="#E1F7FB"/>
<path d="M68.2827 51.75C68.2827 55.4635 65.3195 58.4583 61.6273 58.4583H7.47854C3.79807 58.4583 0.82312 55.4635 0.82312 51.75H68.271H68.2827Z" fill="#B0F3FF"/>
<path d="M12.7111 0.838623C14.7336 0.838623 16.3916 2.51571 16.3916 4.55216C16.3916 6.58862 14.7336 8.26571 12.7111 8.26571C10.6886 8.26571 9.03067 6.58862 9.03067 4.55216C9.03067 2.51571 10.5711 0.838623 12.7111 0.838623Z" fill="#E1F7FB"/>
<path d="M62.3446 36.0574V38.4532C62.3446 40.0105 61.0394 41.3282 59.499 41.3282H43.7071C42.1667 41.3282 40.8615 40.0105 40.8615 38.4532V36.0574H62.3563H62.3446Z" fill="#E1F7FB"/>
<path d="M62.3446 7.427V9.82283H40.8497V7.427C40.8497 5.86971 42.1549 4.552 43.6953 4.552H59.4872C61.1452 4.552 62.3328 5.86971 62.3328 7.427H62.3446Z" fill="#E1F7FB"/>
<path d="M59.3814 22.1615V23.599L57.1237 24.0782C57.0061 24.6772 56.771 25.3959 56.4064 25.8751L57.5941 27.7917L56.524 28.8699L54.6191 27.672C54.0312 28.0313 53.4315 28.2709 52.8436 28.3907L52.3732 30.6667H50.9504L50.4801 28.3907C49.8921 28.2709 49.1748 28.0313 48.7045 27.672L46.7996 28.8699L45.612 27.9115L46.7996 25.9949C46.4468 25.3959 46.2117 24.797 46.0823 24.198L43.8246 23.7188V22.2813L46.0823 21.8022C46.1999 21.2032 46.4351 20.4845 46.7996 20.0053L45.612 18.0886L46.682 17.0105L48.5869 18.2084C49.1748 17.849 49.7745 17.6095 50.3625 17.4897L50.8328 15.2136H52.2556L52.726 17.4897C53.3139 17.6095 54.0312 17.849 54.5133 18.2084L56.4182 17.0105L57.4882 18.0886L56.3006 20.0053C56.6534 20.6042 56.8886 21.2032 57.0179 21.8022L59.3932 22.1615H59.3814ZM53.796 22.8803C53.796 21.6824 52.8436 20.6042 51.5383 20.6042C50.3507 20.6042 49.2807 21.5626 49.2807 22.8803C49.2807 24.0782 50.2331 25.1563 51.5383 25.1563C52.8436 25.1563 53.796 24.0782 53.796 22.8803Z" fill="#E1F7FB"/>
<path d="M66.5072 27.7917C67.0951 27.7917 67.5772 28.2709 67.5772 28.8699C67.5772 29.4688 67.0951 29.948 66.5072 29.948C65.9192 29.948 65.4371 29.4688 65.4371 28.8699C65.4371 28.2709 65.9192 27.7917 66.5072 27.7917Z" fill="#00AAC8"/>
<path d="M64.955 60.7344C65.543 60.7344 66.0251 61.2135 66.0251 61.8125C66.0251 62.4115 65.543 62.8906 64.955 62.8906C64.3671 62.8906 63.885 62.4115 63.885 61.8125C63.885 61.2135 64.3671 60.7344 64.955 60.7344Z" fill="#00AAC8"/>
<path d="M37.522 62.2917C38.1099 62.2917 38.592 62.7709 38.592 63.3699C38.592 63.9688 38.1099 64.448 37.522 64.448C36.934 64.448 36.4519 63.9688 36.4519 63.3699C36.4519 62.7709 36.934 62.2917 37.522 62.2917Z" fill="#00AAC8"/>
<path d="M34.5588 1.198C35.1467 1.198 35.6288 1.67716 35.6288 2.27612C35.6288 2.87508 35.1467 3.35425 34.5588 3.35425C33.9708 3.35425 33.4887 2.87508 33.4887 2.27612C33.4887 1.67716 33.9708 1.198 34.5588 1.198Z" fill="#00AAC8"/>
<path d="M21.9652 6.10938C22.5532 6.10938 23.0353 6.58854 23.0353 7.1875C23.0353 7.78646 22.5532 8.26563 21.9652 8.26563C21.3773 8.26563 20.8952 7.78646 20.8952 7.1875C20.8952 6.58854 21.3773 6.10938 21.9652 6.10938Z" fill="#00AAC8"/>
<path d="M8.54856 62.2917C9.13649 62.2917 9.6186 62.7709 9.6186 63.3699C9.6186 63.9688 9.13649 64.448 8.54856 64.448C7.96062 64.448 7.47852 63.9688 7.47852 63.3699C7.47852 62.7709 7.96062 62.2917 8.54856 62.2917Z" fill="#00AAC8"/>
<path d="M1.90491 14.375C2.49284 14.375 2.97495 14.8542 2.97495 15.4531C2.97495 16.0521 2.49284 16.5313 1.90491 16.5313C1.31698 16.5313 0.834869 16.0521 0.834869 15.4531C0.834869 14.8542 1.31698 14.375 1.90491 14.375Z" fill="#00AAC8"/>
<path d="M52.3732 31.3853H50.9504C50.5977 31.3853 50.3625 31.1458 50.2331 30.7864L49.7628 29.1093C49.41 28.9895 48.9279 28.8697 48.5752 28.6301L47.0348 29.5885C46.7996 29.828 46.3175 29.7083 46.0823 29.4687L45.0123 28.3905C44.7771 28.151 44.7771 27.7916 44.8947 27.4322L45.8471 25.8749C45.612 25.5155 45.4944 25.1562 45.3768 24.677L43.7188 24.3176C43.3661 24.1978 43.1309 23.9583 43.1309 23.5989V22.1614C43.1309 21.802 43.3661 21.5624 43.7188 21.4426L45.4944 21.0833C45.612 20.7239 45.7296 20.2447 45.9647 19.8853L45.0123 18.328C44.7771 18.0885 44.8947 17.6093 45.1299 17.3697L46.1999 16.2916C46.4351 16.052 46.7878 16.052 47.1524 16.1718L48.6928 17.1301C49.0455 16.8905 49.41 16.7708 49.8804 16.651L50.2331 14.8541C50.3507 14.4947 50.5859 14.2551 50.9504 14.2551H52.3732C52.726 14.2551 52.9612 14.4947 53.0905 14.8541L53.4433 16.651C53.796 16.7708 54.2781 16.8905 54.6309 17.1301L56.1713 16.1718C56.4065 15.9322 56.8886 16.052 57.1237 16.2916L58.1938 17.3697C58.429 17.6093 58.4289 17.9687 58.3114 18.328L57.3589 19.8853C57.5941 20.2447 57.7117 20.6041 57.8293 21.0833L59.6166 21.4426C59.9693 21.5624 60.2045 21.802 60.2045 22.1614V23.5989C60.2045 23.9583 59.9693 24.1978 59.6166 24.3176L57.7117 24.7968C57.5941 25.1562 57.4765 25.6353 57.2413 25.9947L58.1938 27.552C58.429 27.7916 58.3114 28.2708 58.0762 28.5103L57.0061 29.5885C56.771 29.828 56.4182 29.828 56.0537 29.7083L54.5133 28.7499C54.1605 28.9895 53.796 29.1093 53.3257 29.2291L52.9729 31.026C52.9729 31.1458 52.7377 31.3853 52.385 31.3853H52.3732ZM51.5384 29.9478H51.7735L52.1263 28.2708C52.2439 28.0312 52.3615 27.7916 52.7142 27.6718C53.3022 27.552 53.7843 27.3124 54.2546 27.0728C54.4898 26.953 54.8425 26.953 55.0895 27.0728L56.5123 28.0312L56.7475 27.7916L55.795 26.3541C55.6774 26.1145 55.6774 25.7551 55.795 25.5155C56.1478 25.0364 56.2653 24.5572 56.3829 23.9583C56.5005 23.7187 56.6181 23.4791 56.9709 23.3593L58.6288 22.9999V22.7603L56.9709 22.401C56.7357 22.2812 56.5005 22.1614 56.3829 21.802C56.2653 21.203 56.0302 20.7239 55.795 20.2447C55.6774 20.0051 55.6774 19.6458 55.795 19.4062L56.7475 17.9687L56.5123 17.7291L55.0895 18.6874C54.8543 18.8072 54.5015 18.8072 54.2546 18.6874C53.7843 18.328 53.3022 18.2083 52.7142 18.0885C52.4791 17.9687 52.2439 17.8489 52.1263 17.4895L51.7735 15.8124H51.5384L51.1856 17.4895C51.068 17.7291 50.9504 17.9687 50.5977 18.0885C50.0097 18.2083 49.5276 18.4478 49.0573 18.6874C48.8221 18.8072 48.4693 18.8072 48.2224 18.6874L46.7996 17.7291L46.5644 17.9687L47.5169 19.4062C47.6345 19.6458 47.6345 20.0051 47.5169 20.2447C47.1641 20.7239 47.0465 21.203 46.9289 21.802C46.8114 22.0416 46.6938 22.2812 46.341 22.401L44.683 22.7603V22.9999L46.341 23.3593C46.5762 23.4791 46.8114 23.5989 46.9289 23.9583C47.0465 24.5572 47.2817 25.0364 47.5169 25.5155C47.6345 25.7551 47.6345 26.1145 47.5169 26.3541L46.5644 27.7916L46.7996 28.0312L48.2224 27.0728C48.4576 26.953 48.8103 26.953 49.0573 27.0728C49.5276 27.4322 50.0097 27.552 50.5977 27.6718C50.8328 27.7916 51.068 27.9114 51.1856 28.2708L51.5384 29.9478Z" fill="#00AAC8"/>
<path d="M51.6559 25.8751C49.9979 25.8751 48.681 24.5574 48.681 22.8803C48.681 21.2032 49.9862 19.8855 51.6559 19.8855C53.3257 19.8855 54.6191 21.2032 54.6191 22.8803C54.6191 24.5574 53.3139 25.8751 51.6559 25.8751ZM51.6559 21.4428C50.821 21.4428 50.1155 22.1615 50.1155 23.0001C50.1155 23.8386 50.8328 24.4376 51.6559 24.4376C52.479 24.4376 53.0787 23.7188 53.0787 23.0001C53.0787 22.0417 52.479 21.4428 51.6559 21.4428Z" fill="#00AAC8"/>
<path d="M59.499 42.0468H43.707C41.6846 42.0468 40.1442 40.3697 40.1442 38.453V7.427C40.1442 5.39054 41.8021 3.83325 43.707 3.83325H59.499C61.5215 3.83325 63.0619 5.51033 63.0619 7.427V35.2187C63.0619 35.578 62.7091 35.9374 62.3446 35.9374C61.9801 35.9374 61.6273 35.578 61.6273 35.2187V7.427C61.6273 6.22908 60.6748 5.27075 59.4872 5.27075H43.6953C42.5077 5.27075 41.5552 6.22908 41.5552 7.427V38.3332C41.5552 39.5312 42.5077 40.4895 43.6953 40.4895H59.4872C60.6748 40.4895 61.6273 39.5312 61.6273 38.3332C61.6273 37.9739 61.9801 37.6145 62.3446 37.6145C62.7091 37.6145 63.0619 37.9739 63.0619 38.3332C63.1794 40.3697 61.5215 42.0468 59.499 42.0468Z" fill="#00AAC8"/>
<path d="M6.77301 52.4687C6.42024 52.4687 6.05573 52.1093 6.05573 51.7499V18.8072C6.05573 15.0937 9.03067 12.0989 12.7111 12.0989H40.979C41.3318 12.0989 41.6963 12.4583 41.6963 12.8176C41.6963 13.177 41.3436 13.5364 40.8615 13.5364H12.7111C9.86554 13.5364 7.49029 15.9322 7.49029 18.8072V51.7499C7.49029 52.1093 7.13752 52.4687 6.77301 52.4687Z" fill="#00AAC8"/>
<path d="M62.3446 52.4688C61.9918 52.4688 61.6273 52.1094 61.6273 51.75V35.2188C61.6273 34.8594 61.9801 34.5 62.3446 34.5C62.7091 34.5 63.0619 34.8594 63.0619 35.2188V51.75C63.1794 52.1094 62.8267 52.4688 62.3446 52.4688Z" fill="#00AAC8"/>
<path d="M62.3446 48.0364H6.77301C6.42024 48.0364 6.05573 47.677 6.05573 47.3176C6.05573 46.9583 6.40849 46.5989 6.77301 46.5989H62.4739C62.8267 46.5989 63.1912 46.9583 63.1912 47.3176C63.1912 47.677 62.8384 48.0364 62.3563 48.0364H62.3446Z" fill="#00AAC8"/>
<path d="M62.3446 36.7761H40.8497C40.4969 36.7761 40.1324 36.4167 40.1324 36.0574C40.1324 35.698 40.4852 35.3386 40.8497 35.3386H62.3446C62.6973 35.3386 63.0619 35.698 63.0619 36.0574C63.0619 36.4167 62.8267 36.7761 62.3446 36.7761Z" fill="#00AAC8"/>
<path d="M62.3446 10.5417H40.8497C40.4969 10.5417 40.1324 10.1824 40.1324 9.823C40.1324 9.46362 40.4852 9.10425 40.8497 9.10425H62.3446C62.6973 9.10425 63.0619 9.46362 63.0619 9.823C63.0619 10.1824 62.8267 10.5417 62.3446 10.5417Z" fill="#00AAC8"/>
<path d="M61.6391 59.177H7.47853C3.4453 59.177 0 55.8228 0 51.6301C0 51.2708 0.352761 50.9114 0.71728 50.9114H68.2827C68.6355 50.9114 69 51.2708 69 51.6301C69 53.6666 68.1651 55.4635 66.8599 56.901C65.5547 58.4583 63.6498 59.177 61.6391 59.177ZM1.54039 52.4687C1.89315 55.4635 4.38599 57.7395 7.47853 57.7395H61.6273C63.1677 57.7395 64.7081 57.1405 65.7781 55.9426C66.7306 54.9843 67.3185 53.7864 67.4361 52.4687H1.54039Z" fill="#00AAC8"/>
<path d="M29.3379 27.5522C28.8676 27.5522 28.5031 27.073 28.6206 26.7136L29.091 22.8803L25.2929 23.3595C24.9402 23.3595 24.4581 23.1199 24.4581 22.6407C24.4581 22.2813 24.6932 21.8022 25.1753 21.8022L29.9259 21.323C30.161 21.323 30.3962 21.323 30.5138 21.5626C30.6314 21.8022 30.749 21.922 30.749 22.1615L30.2786 26.9532C30.0434 27.3126 29.6789 27.5522 29.3262 27.5522H29.3379Z" fill="#00AAC8"/>
<path d="M23.635 29.1093C23.3998 29.1093 23.2822 28.9895 23.1646 28.8697C22.9295 28.6301 22.9295 28.151 23.1646 27.7916L29.4555 21.4426C29.6907 21.203 30.1728 21.203 30.5256 21.4426C30.7607 21.6822 30.7607 22.1614 30.5256 22.5208L24.2347 28.8697C23.9995 29.1093 23.7643 29.1093 23.6467 29.1093H23.635Z" fill="#00AAC8"/>
<path d="M14.134 38.6927C13.8988 38.6927 13.7812 38.5729 13.6636 38.4531C13.546 38.3333 13.4284 38.0938 13.4284 37.8542L13.8988 33.0625C13.8988 32.7031 14.2515 32.3438 14.7337 32.3438C15.0864 32.3438 15.4509 32.7031 15.4509 33.1823L14.9806 37.1354L18.7786 36.6563C19.1314 36.6563 19.6135 36.8958 19.6135 37.375C19.6135 37.7344 19.3783 38.2135 18.8962 38.2135L14.1457 38.6927H14.134Z" fill="#00AAC8"/>
<path d="M14.1339 38.6928C13.8988 38.6928 13.7812 38.573 13.6636 38.4532C13.4284 38.2136 13.4284 37.7345 13.6636 37.3751L19.9545 31.0261C20.1897 30.7865 20.6718 30.7865 21.0245 31.0261C21.2597 31.2657 21.2597 31.7449 21.0245 32.1042L14.7336 38.4532C14.4985 38.573 14.3809 38.6928 14.1457 38.6928H14.1339Z" fill="#00AAC8"/>
<path d="M12.7111 9.10417C10.2183 9.10417 8.1958 7.06771 8.1958 4.55208C8.1958 2.03646 10.2183 0 12.7111 0C15.204 0 17.2265 2.03646 17.2265 4.55208C17.2265 7.06771 15.0864 9.10417 12.7111 9.10417ZM12.7111 1.55729C11.0532 1.55729 9.73619 2.875 9.73619 4.55208C9.73619 6.22917 11.0414 7.54688 12.7111 7.54688C14.3809 7.54688 15.6743 6.22917 15.6743 4.55208C15.6743 2.875 14.2515 1.55729 12.7111 1.55729Z" fill="#00AAC8"/>
<path d="M52.726 69.0001C50.7035 69.0001 49.0455 67.323 49.0455 65.2865C49.0455 63.2501 50.7035 61.573 52.726 61.573C54.7485 61.573 56.4064 63.2501 56.4064 65.2865C56.4064 67.2032 54.7485 69.0001 52.726 69.0001ZM52.726 63.0105C51.5383 63.0105 50.4683 63.9688 50.4683 65.2865C50.4683 66.4845 51.4208 67.5626 52.726 67.5626C53.9136 67.5626 54.9836 66.6042 54.9836 65.2865C54.9836 63.9688 53.9136 63.0105 52.726 63.0105Z" fill="#00AAC8"/>
</g>
<defs>
<clipPath id="clip0_366_739">
<rect width="69" height="69" fill="white"/>
</clipPath>
</defs>
</svg>
