<svg width="33" height="32" viewBox="0 0 33 32" fill="none" xmlns="http://www.w3.org/2000/svg">
<g clip-path="url(#clip0_29_365)">
<path d="M26.1297 32H6.87026C3.35794 32 0.5 29.1421 0.5 25.6297V6.37026C0.5 2.85794 3.35794 0 6.87026 0H26.1322C29.6445 0 32.5025 2.85794 32.5025 6.37026V25.6322C32.5025 29.1445 29.6445 32.0025 26.1322 32.0025L26.1297 32ZM6.87026 1.1055C3.96522 1.1055 1.6055 3.46522 1.6055 6.37026V25.6322C1.6055 28.5348 3.9677 30.897 6.87026 30.897H26.1322C29.0348 30.897 31.397 28.5348 31.397 25.6322V6.37026C31.397 3.4677 29.0348 1.1055 26.1322 1.1055H6.87026Z" fill="black"/>
<path d="M20.4014 17.1128L20.9294 13.6773H17.6352V11.449C17.6352 10.5096 18.0963 9.59243 19.5711 9.59243H21.0682V6.66757C21.0682 6.66757 19.7074 6.43457 18.4086 6.43457C15.6944 6.43457 13.9197 8.08043 13.9197 11.0573V13.6748H10.9031V17.1103H13.9197V25.414C14.5245 25.5082 15.1441 25.5577 15.7762 25.5577C16.4083 25.5577 17.0279 25.5082 17.6327 25.414V17.1103H20.4014V17.1128Z" fill="black"/>
</g>
<defs>
<clipPath id="clip0_29_365">
<rect width="32" height="32" fill="white" transform="translate(0.5)"/>
</clipPath>
</defs>
</svg>
