<svg width="45" height="49" viewBox="0 0 45 49" fill="none" xmlns="http://www.w3.org/2000/svg">
<path d="M10.3428 18.0945C8.93457 18.0945 7.78809 16.9485 7.78809 15.5398C7.78809 14.1311 8.93457 12.9851 10.3428 12.9851C11.751 12.9851 12.8975 14.1311 12.8975 15.5398C12.8975 16.9485 11.751 18.0945 10.3428 18.0945ZM10.3428 13.9851C9.48535 13.9851 8.78809 14.6824 8.78809 15.5398C8.78809 16.3972 9.48535 17.0945 10.3428 17.0945C11.2002 17.0945 11.8975 16.3972 11.8975 15.5398C11.8975 14.6824 11.2002 13.9851 10.3428 13.9851Z" fill="#F83908"/>
<path d="M18.3955 18.0945C16.9873 18.0945 15.8408 16.9485 15.8408 15.5398C15.8408 14.1311 16.9873 12.9851 18.3955 12.9851C19.8037 12.9851 20.9502 14.1311 20.9502 15.5398C20.9502 16.9485 19.8037 18.0945 18.3955 18.0945ZM18.3955 13.9851C17.5381 13.9851 16.8408 14.6824 16.8408 15.5398C16.8408 16.3972 17.5381 17.0945 18.3955 17.0945C19.2529 17.0945 19.9502 16.3972 19.9502 15.5398C19.9502 14.6824 19.2529 13.9851 18.3955 13.9851Z" fill="#F83908"/>
<path d="M26.4492 18.0945C25.041 18.0945 23.8945 16.9485 23.8945 15.5398C23.8945 14.1311 25.041 12.9851 26.4492 12.9851C27.8574 12.9851 29.0039 14.1311 29.0039 15.5398C29.0039 16.9485 27.8574 18.0945 26.4492 18.0945ZM26.4492 13.9851C25.5918 13.9851 24.8945 14.6824 24.8945 15.5398C24.8945 16.3972 25.5918 17.0945 26.4492 17.0945C27.3066 17.0945 28.0039 16.3972 28.0039 15.5398C28.0039 14.6824 27.3066 13.9851 26.4492 13.9851Z" fill="#F83908"/>
<path d="M2.20085 30.8215C1.79851 30.8215 1.39714 30.8098 0.996751 30.7868C0.821946 30.777 0.664719 30.6765 0.583665 30.5217C0.501633 30.3674 0.506516 30.1808 0.59636 30.0309C1.46062 28.5871 2.17253 27.0641 2.71257 25.5041C3.10124 24.3976 3.41277 23.2541 3.63933 22.1013C2.51531 20.0368 1.94499 17.8161 1.94499 15.4977C1.94499 12.0275 3.29753 8.63007 5.7526 5.93134C5.93913 5.72724 6.25456 5.71259 6.45964 5.89813C6.66374 6.08368 6.67839 6.40009 6.49284 6.60419C4.17156 9.15497 2.94499 12.2307 2.94499 15.4977C2.94499 17.7033 3.50163 19.8146 4.60124 21.7731C4.65788 21.8757 4.67741 21.9953 4.65593 22.1105C4.41765 23.3727 4.08073 24.6252 3.65691 25.8332C3.18523 27.197 2.58562 28.5344 1.87273 29.8185C3.3571 29.8439 4.87566 29.7018 6.37566 29.3976C7.60906 29.1369 8.78874 28.7819 9.87859 28.3439C10.2048 28.2092 10.5163 28.0729 10.7985 27.9372C10.9382 27.8693 11.1032 27.8708 11.2428 27.9426C11.7106 28.1813 12.2057 28.3947 12.7135 28.5768C14.7292 29.3552 16.8796 29.7477 19.1149 29.7477C25.82 29.7477 31.7282 26.1867 34.1676 20.6755C34.5524 19.7995 34.8376 18.8962 35.0153 17.9914C35.1813 17.2116 35.2653 16.3757 35.2653 15.4977C35.2653 15.2214 35.4889 14.9977 35.7653 14.9977C36.0417 14.9977 36.2653 15.2214 36.2653 15.4977C36.2653 16.4455 36.1745 17.3522 35.9948 18.1921C35.8044 19.1603 35.4967 20.1345 35.0827 21.0788C32.4831 26.9528 26.2155 30.7477 19.1149 30.7477C16.7555 30.7477 14.4841 30.3327 12.3649 29.5139C11.9059 29.3493 11.4479 29.1569 11.0094 28.9435C10.7721 29.0519 10.5202 29.1613 10.2555 29.2702C9.10808 29.7311 7.87273 30.1032 6.57878 30.3771C5.12077 30.6725 3.65398 30.8215 2.20085 30.8215Z" fill="black"/>
<path d="M34.4572 10.2649C34.2707 10.2649 34.092 10.1599 34.0061 9.98022C31.4738 4.68188 25.6291 1.25806 19.1144 1.25806C15.3811 1.25806 11.7365 2.40894 8.85175 4.49878C8.63105 4.65991 8.31757 4.61206 8.15351 4.38745C7.9914 4.16382 8.04218 3.85132 8.26582 3.68921C11.3186 1.47681 15.1721 0.258057 19.1144 0.258057C26.0119 0.258057 32.2111 3.90503 34.9084 9.54908C35.0275 9.79858 34.9221 10.0969 34.673 10.2161C34.6037 10.2493 34.5295 10.2649 34.4572 10.2649Z" fill="black"/>
<path d="M42.7715 48.742C41.3076 48.742 39.8467 48.5936 38.4141 48.2977C36.8535 47.972 35.3672 47.492 33.9893 46.8699C33.5771 47.0648 33.1113 47.2733 32.6162 47.4417C31.7158 47.7894 30.7539 48.0716 29.7754 48.2742C29.5088 48.327 29.2402 48.1566 29.1846 47.8856C29.1279 47.6155 29.3018 47.3509 29.5723 47.2947C30.498 47.1033 31.4072 46.8367 32.2754 46.5018C32.7715 46.3328 33.2285 46.1268 33.7686 45.867C33.9043 45.803 34.0625 45.8016 34.1963 45.8646C35.5645 46.5023 37.0518 46.9915 38.6182 47.3187C40.0977 47.6243 41.6094 47.7615 43.125 47.7391C42.417 46.47 41.8154 45.1326 41.334 43.7523C40.918 42.5511 40.585 41.303 40.3438 40.0418C40.3223 39.9271 40.3408 39.8079 40.3975 39.7059C41.4902 37.7313 42.0449 35.616 42.0449 33.4178C42.0449 28.6185 39.3662 24.2283 34.8496 21.5794C32.124 27.1673 26.0127 30.7479 19.1152 30.7479C16.7559 30.7479 14.4844 30.3328 12.3652 29.514C11.9063 29.3494 11.4482 29.157 11.0098 28.9437C10.834 29.0242 10.6504 29.1048 10.459 29.1854C9.97266 30.5389 9.72559 31.9617 9.72559 33.4178C9.72559 34.261 9.80957 35.0989 9.97559 35.908C11.3359 42.723 18.0273 47.6678 25.8857 47.6678C26.1621 47.6678 26.3857 47.8914 26.3857 48.1678C26.3857 48.4442 26.1621 48.6678 25.8857 48.6678C17.5518 48.6678 10.4482 43.3846 8.99512 36.1063C8.81641 35.2332 8.72559 34.3279 8.72559 33.4178C8.72559 31.7679 9.01953 30.1575 9.59766 28.6307C9.64648 28.5013 9.74707 28.3983 9.875 28.3455C10.2051 28.2093 10.5166 28.0731 10.7988 27.9373C10.9385 27.8694 11.1035 27.8709 11.2432 27.9427C11.7109 28.1815 12.2061 28.3948 12.7139 28.577C14.7295 29.3553 16.8799 29.7479 19.1152 29.7479C25.8203 29.7479 31.7285 26.1868 34.168 20.6756C34.2246 20.5477 34.332 20.449 34.4639 20.4041C34.5977 20.3587 34.7422 20.3724 34.8643 20.4388C39.9863 23.2322 43.0449 28.0843 43.0449 33.4178C43.0449 35.7274 42.4785 37.951 41.3604 40.0296C41.5889 41.1839 41.8975 42.325 42.2783 43.4241C42.8301 45.0042 43.5449 46.5272 44.4033 47.9495C44.4941 48.0994 44.5 48.2859 44.418 48.4412C44.3359 48.596 44.1787 48.6971 44.0039 48.7068C43.5928 48.7303 43.1816 48.742 42.7715 48.742Z" fill="black"/>
<path d="M34.6533 38.0178C33.2451 38.0178 32.0986 36.8718 32.0986 35.4631C32.0986 34.0544 33.2451 32.9084 34.6533 32.9084C36.0615 32.9084 37.208 34.0544 37.208 35.4631C37.208 36.8718 36.0615 38.0178 34.6533 38.0178ZM34.6533 33.9084C33.7959 33.9084 33.0986 34.6057 33.0986 35.4631C33.0986 36.3206 33.7959 37.0178 34.6533 37.0178C35.5107 37.0178 36.208 36.3206 36.208 35.4631C36.208 34.6057 35.5107 33.9084 34.6533 33.9084Z" fill="#F83908"/>
<path d="M26.6006 38.0178C25.1924 38.0178 24.0459 36.8718 24.0459 35.4631C24.0459 34.0544 25.1924 32.9084 26.6006 32.9084C28.0088 32.9084 29.1553 34.0544 29.1553 35.4631C29.1553 36.8718 28.0088 38.0178 26.6006 38.0178ZM26.6006 33.9084C25.7432 33.9084 25.0459 34.6057 25.0459 35.4631C25.0459 36.3206 25.7432 37.0178 26.6006 37.0178C27.458 37.0178 28.1553 36.3206 28.1553 35.4631C28.1553 34.6057 27.458 33.9084 26.6006 33.9084Z" fill="#F83908"/>
<path d="M18.5479 38.0178C17.1396 38.0178 15.9932 36.8718 15.9932 35.4631C15.9932 34.0544 17.1396 32.9084 18.5479 32.9084C19.9561 32.9084 21.1025 34.0544 21.1025 35.4631C21.1025 36.8718 19.9561 38.0178 18.5479 38.0178ZM18.5479 33.9084C17.6904 33.9084 16.9932 34.6057 16.9932 35.4631C16.9932 36.3206 17.6904 37.0178 18.5479 37.0178C19.4053 37.0178 20.1025 36.3206 20.1025 35.4631C20.1025 34.6057 19.4053 33.9084 18.5479 33.9084Z" fill="#F83908"/>
</svg>
