<svg width="53" height="53" viewBox="0 0 53 53" fill="none" xmlns="http://www.w3.org/2000/svg">
<path d="M39.8195 8.38867C37.4055 8.38867 35.4414 10.3527 35.4414 12.7667C35.4414 15.1816 37.4055 17.1456 39.8195 17.1456C42.2344 17.1456 44.1984 15.1816 44.1984 12.7667C44.1984 10.3527 42.2344 8.38867 39.8195 8.38867ZM39.8195 16.1456C37.9564 16.1456 36.4414 14.6296 36.4414 12.7667C36.4414 10.9037 37.9564 9.38867 39.8195 9.38867C41.6824 9.38867 43.1984 10.9037 43.1984 12.7667C43.1984 14.6296 41.6824 16.1456 39.8195 16.1456Z" fill="#FC3804"/>
<path d="M8.21094 15.0792H12.0999C12.377 15.0792 12.5999 14.8552 12.5999 14.5792V10.3793C12.5999 10.1033 12.377 9.87927 12.0999 9.87927H8.21094C7.93494 9.87927 7.71094 10.1033 7.71094 10.3793V14.5792C7.71094 14.8552 7.93494 15.0792 8.21094 15.0792ZM8.71094 10.8793H11.5999V14.0793H8.71094V10.8793Z" fill="black"/>
<path d="M17.0781 15.0792H20.9671C21.2431 15.0792 21.4671 14.8552 21.4671 14.5792V10.3793C21.4671 10.1033 21.2431 9.87927 20.9671 9.87927H17.0781C16.8021 9.87927 16.5781 10.1033 16.5781 10.3793V14.5792C16.5781 14.8552 16.8021 15.0792 17.0781 15.0792ZM17.5781 10.8793H20.4671V14.0793H17.5781V10.8793Z" fill="black"/>
<path d="M7.71094 22.6463C7.71094 22.9223 7.93494 23.1463 8.21094 23.1463H12.0999C12.377 23.1463 12.5999 22.9223 12.5999 22.6463V18.4463C12.5999 18.1693 12.377 17.9463 12.0999 17.9463H8.21094C7.93494 17.9463 7.71094 18.1693 7.71094 18.4463V22.6463ZM8.71094 18.9463H11.5999V22.1463H8.71094V18.9463Z" fill="black"/>
<path d="M16.5781 22.6463C16.5781 22.9223 16.8021 23.1463 17.0781 23.1463H20.9671C21.2431 23.1463 21.4671 22.9223 21.4671 22.6463V18.4463C21.4671 18.1693 21.2431 17.9463 20.9671 17.9463H17.0781C16.8021 17.9463 16.5781 18.1693 16.5781 18.4463V22.6463ZM17.5781 18.9463H20.4671V22.1463H17.5781V18.9463Z" fill="black"/>
<path d="M7.71094 30.7122C7.71094 30.9892 7.93494 31.2122 8.21094 31.2122H12.0999C12.377 31.2122 12.5999 30.9892 12.5999 30.7122V26.5132C12.5999 26.2362 12.377 26.0132 12.0999 26.0132H8.21094C7.93494 26.0132 7.71094 26.2362 7.71094 26.5132V30.7122ZM8.71094 27.0132H11.5999V30.2132H8.71094V27.0132Z" fill="black"/>
<path d="M16.5781 30.7122C16.5781 30.9892 16.8021 31.2122 17.0781 31.2122H20.9671C21.2431 31.2122 21.4671 30.9892 21.4671 30.7122V26.5132C21.4671 26.2362 21.2431 26.0132 20.9671 26.0132H17.0781C16.8021 26.0132 16.5781 26.2362 16.5781 26.5132V30.7122ZM17.5781 27.0132H20.4671V30.2132H17.5781V27.0132Z" fill="black"/>
<path d="M34.1342 30.6133C34.1342 30.3363 33.9102 30.1133 33.6342 30.1133H29.7451C29.4691 30.1133 29.2451 30.3363 29.2451 30.6133V34.8123C29.2451 35.0893 29.4691 35.3123 29.7451 35.3123H33.6342C33.9102 35.3123 34.1342 35.0893 34.1342 34.8123V30.6133ZM33.1342 34.3123H30.2452V31.1123H33.1342V34.3123Z" fill="black"/>
<path d="M43.0003 30.6133C43.0003 30.3363 42.7773 30.1133 42.5003 30.1133H38.6123C38.3353 30.1133 38.1123 30.3363 38.1123 30.6133V34.8123C38.1123 35.0893 38.3353 35.3123 38.6123 35.3123H42.5003C42.7773 35.3123 43.0003 35.0893 43.0003 34.8123V30.6133ZM42.0003 34.3123H39.1113V31.1123H42.0003V34.3123Z" fill="black"/>
<path d="M33.6342 38.1792H29.7451C29.4691 38.1792 29.2451 38.4032 29.2451 38.6792V42.8792C29.2451 43.1562 29.4691 43.3792 29.7451 43.3792H33.6342C33.9102 43.3792 34.1342 43.1562 34.1342 42.8792V38.6792C34.1342 38.4032 33.9102 38.1792 33.6342 38.1792ZM33.1342 42.3792H30.2452V39.1792H33.1342V42.3792Z" fill="black"/>
<path d="M42.5003 38.1792H38.6123C38.3353 38.1792 38.1123 38.4032 38.1123 38.6792V42.8792C38.1123 43.1562 38.3353 43.3792 38.6123 43.3792H42.5003C42.7773 43.3792 43.0003 43.1562 43.0003 42.8792V38.6792C43.0003 38.4032 42.7773 38.1792 42.5003 38.1792ZM42.0003 42.3792H39.1113V39.1792H42.0003V42.3792Z" fill="black"/>
<path d="M39.8198 2.71997C38.1128 2.71997 36.4258 3.15601 34.9438 3.98102C34.7018 4.11499 34.6148 4.41998 34.7498 4.66101C34.8828 4.901 35.1868 4.99103 35.4298 4.85498C36.7638 4.11298 38.2818 3.71997 39.8198 3.71997C44.8088 3.71997 48.8668 7.77899 48.8668 12.767C48.8668 14.179 48.1258 16.002 47.0628 17.894C47.0538 17.911 47.0418 17.925 47.0338 17.942C44.7498 21.989 41.0018 26.34 39.8198 27.672C38.0798 25.711 30.7728 17.21 30.7728 12.767C30.7728 11.011 31.2768 9.30798 32.2288 7.84302C32.3798 7.612 32.3138 7.302 32.0818 7.151C31.8508 7 31.5418 7.06702 31.3898 7.29797C30.3318 8.92603 29.7728 10.817 29.7728 12.767C29.7728 13.635 30.0138 14.626 30.4178 15.678H26.7978C26.5358 15.678 26.2898 15.741 26.0678 15.845V7.81299C26.0678 6.85699 25.2898 6.07898 24.3338 6.07898H4.86682C3.9118 6.07898 3.13379 6.85699 3.13379 7.81299V11.846C3.13379 12.123 3.35779 12.346 3.63379 12.346C3.90979 12.346 4.13379 12.123 4.13379 11.846V7.81299C4.13379 7.40802 4.46277 7.07898 4.86682 7.07898H24.3338C24.7378 7.07898 25.0678 7.40802 25.0678 7.81299V17.408V48.158C25.0678 48.776 24.5638 49.28 23.9448 49.28H19.3788V40.88C19.3788 40.603 19.1548 40.38 18.8788 40.38C18.6018 40.38 18.3788 40.603 18.3788 40.88V48.946H10.5778V34.935C10.5778 34.733 10.7428 34.569 10.9448 34.569H18.0118C18.2138 34.569 18.3788 34.733 18.3788 34.935V37.935C18.3788 38.211 18.6018 38.435 18.8788 38.435C19.1548 38.435 19.3788 38.211 19.3788 37.935V34.935C19.3788 34.182 18.7648 33.569 18.0118 33.569H10.9448C10.1918 33.569 9.57782 34.182 9.57782 34.935V49.28H5.25677C4.63678 49.28 4.13379 48.776 4.13379 48.158V15.478C4.13379 15.202 3.90979 14.978 3.63379 14.978C3.35779 14.978 3.13379 15.202 3.13379 15.478V48.158C3.13379 49.327 4.08582 50.28 5.25677 50.28H23.9448C24.5988 50.28 25.1768 49.976 25.5668 49.509C25.9558 49.975 26.5338 50.278 27.1868 50.278H45.8768C47.0458 50.278 47.9968 49.327 47.9968 48.158V36.678C47.9968 36.402 47.7738 36.178 47.4968 36.178C47.2208 36.178 46.9968 36.402 46.9968 36.678V48.158C46.9968 48.776 46.4948 49.278 45.8768 49.278H27.1868C26.5698 49.278 26.0678 48.776 26.0678 48.158V17.408C26.0678 17.006 26.3948 16.678 26.7978 16.678H30.8408C33.2908 22.019 39.1398 28.42 39.4518 28.759C39.5468 28.862 39.6798 28.921 39.8198 28.921C39.9598 28.921 40.0928 28.862 40.1878 28.759C40.4378 28.488 44.2338 24.333 46.9968 19.947V32.808C46.9968 33.085 47.2208 33.308 47.4968 33.308C47.7738 33.308 47.9968 33.085 47.9968 32.808V18.26C49.0988 16.266 49.8668 14.32 49.8668 12.767C49.8668 7.22699 45.3598 2.71997 39.8198 2.71997Z" fill="black"/>
</svg>
