<svg width="53" height="53" viewBox="0 0 53 53" fill="none" xmlns="http://www.w3.org/2000/svg">
<g clip-path="url(#clip0_396_6457)">
<path d="M50.3549 13.385C50.8171 13.385 51.1962 13.7532 51.1962 14.2133C51.1962 14.6735 50.8171 15.0416 50.3549 15.0416C49.8927 15.0416 49.5137 14.6735 49.5137 14.2133C49.5137 13.7532 49.8927 13.385 50.3549 13.385Z" fill="white"/>
<path d="M49.7914 36.3938C50.2537 36.3938 50.6327 36.7619 50.6327 37.2221C50.6327 37.6823 50.2537 38.0504 49.7914 38.0504C49.3292 38.0504 48.9502 37.6823 48.9502 37.2221C48.9502 36.7619 49.3292 36.3938 49.7914 36.3938Z" fill="white"/>
<path d="M41.6752 47.6221C42.1375 47.6221 42.5165 47.9902 42.5165 48.4504C42.5165 48.9106 42.1375 49.2787 41.6752 49.2787C41.213 49.2787 40.834 48.9106 40.834 48.4504C40.834 47.9902 41.213 47.6221 41.6752 47.6221Z" fill="white"/>
<path d="M37.0063 0.5C37.4685 0.5 37.8475 0.868142 37.8475 1.32832C37.8475 1.7885 37.4685 2.15664 37.0063 2.15664C36.5441 2.15664 36.165 1.7885 36.165 1.32832C36.165 0.868142 36.5441 0.5 37.0063 0.5Z" fill="white"/>
<path d="M16.558 49.0947C17.0203 49.0947 17.3993 49.4629 17.3993 49.923C17.3993 50.3832 17.0203 50.7514 16.558 50.7514C16.0958 50.7514 15.7168 50.3832 15.7168 49.923C15.7168 49.4629 16.0958 49.0947 16.558 49.0947Z" fill="white"/>
<path d="M10.1147 1.32837C10.5769 1.32837 10.9559 1.69651 10.9559 2.15669C10.9559 2.61686 10.5769 2.98501 10.1147 2.98501C9.65246 2.98501 9.27344 2.61686 9.27344 2.15669C9.27344 1.69651 9.65246 1.32837 10.1147 1.32837Z" fill="white"/>
<path d="M3.67132 14.5813C4.13354 14.5813 4.51257 14.9494 4.51257 15.4096C4.51257 15.8698 4.13354 16.2379 3.67132 16.2379C3.2091 16.2379 2.83008 15.8698 2.83008 15.4096C2.83008 14.9494 3.2091 14.5813 3.67132 14.5813Z" fill="white"/>
<path d="M3.11664 35.8416C3.57886 35.8416 3.95788 36.2097 3.95788 36.6699C3.95788 37.13 3.57886 37.4982 3.11664 37.4982C2.65441 37.4982 2.27539 37.13 2.27539 36.6699C2.27539 36.2097 2.65441 35.8416 3.11664 35.8416Z" fill="white"/>
<path d="M26.6437 42.4682C24.9613 42.4682 23.3805 41.5479 21.9753 39.9833C20.6718 38.5107 19.6457 36.3939 18.8969 34.001C18.1481 31.608 17.7783 28.847 17.7783 26.0859C17.7783 23.3249 18.1481 20.5638 18.8969 18.1709C19.6457 15.6859 20.6718 13.6611 21.9753 12.1886C23.3805 10.624 24.9613 9.79565 26.6437 9.70361C26.9211 9.70361 27.2077 9.97972 27.2077 10.2558C27.2077 10.5319 26.9303 10.808 26.6437 10.808C23.9351 10.9001 21.3189 13.8452 19.923 18.447C19.2667 20.7479 18.8969 23.4169 18.8969 26.0859C18.8969 28.7549 19.2667 31.424 19.923 33.7248C21.3189 38.4187 23.8427 41.3638 26.6437 41.3638C26.9211 41.3638 27.2077 41.6399 27.2077 41.916C27.2077 42.1921 26.9303 42.4682 26.6437 42.4682Z" fill="white"/>
<path d="M26.8286 42.4682C26.5512 42.4682 26.2646 42.1921 26.2646 41.916C26.2646 41.6399 26.542 41.3638 26.8286 41.3638C29.5372 41.2718 32.1534 38.3266 33.5493 33.7248C34.2056 31.424 34.5754 28.7549 34.5754 26.0859C34.5754 23.4169 34.2056 20.7479 33.5493 18.447C32.1534 13.7532 29.6296 10.808 26.8286 10.808C26.5512 10.808 26.2646 10.5319 26.2646 10.2558C26.2646 9.97972 26.542 9.70361 26.8286 9.70361C28.511 9.70361 30.0918 10.624 31.497 12.1886C32.8005 13.6611 33.8266 15.778 34.5754 18.1709C35.3242 20.5638 35.694 23.3249 35.694 26.0859C35.694 28.847 35.3242 31.608 34.5754 34.001C33.8266 36.4859 32.8005 38.5107 31.497 39.9833C30.1935 41.5479 28.511 42.4682 26.8286 42.4682Z" fill="white"/>
<path d="M26.7356 20.5637C24.027 20.5637 21.5033 19.9195 19.0812 18.723C17.3987 17.8947 15.9104 16.7903 14.5977 15.4097C14.4128 15.2257 14.4128 14.8575 14.5977 14.5814C14.7825 14.3973 15.1616 14.3973 15.4389 14.5814C16.6499 15.8699 18.0551 16.8823 19.5434 17.6186C21.7806 18.723 24.1194 19.2752 26.6432 19.2752C29.1669 19.2752 31.4965 18.723 33.7429 17.6186C35.3329 16.8823 36.6364 15.7779 37.8474 14.5814C38.0323 14.3973 38.4113 14.3973 38.6887 14.5814C38.8736 14.7655 38.8736 15.1336 38.6887 15.4097C37.3852 16.7903 35.8876 17.8027 34.2051 18.723C31.968 19.9195 29.4442 20.5637 26.7356 20.5637Z" fill="white"/>
<path d="M38.4021 37.5902C38.2172 37.5902 38.1248 37.4982 37.9307 37.4061C36.7196 36.1176 35.3145 35.1052 33.8261 34.369C31.589 33.2645 29.2501 32.7123 26.7264 32.7123C24.2027 32.7123 21.8731 33.2645 19.6267 34.369C18.1291 35.1052 16.7332 36.1176 15.5221 37.4061C15.3372 37.5902 14.9582 37.6822 14.6809 37.4061C14.496 37.2221 14.4036 36.8539 14.6809 36.5778C15.9844 35.2893 17.482 34.1849 19.072 33.3566C21.4016 32.1601 24.0178 31.5159 26.7264 31.5159C29.435 31.5159 32.0512 32.1601 34.3808 33.3566C36.0633 34.1849 37.5516 35.2893 38.8644 36.6699C39.0492 36.8539 39.0492 37.2221 38.8644 37.4982C38.6795 37.4982 38.4946 37.5902 38.4021 37.5902Z" fill="white"/>
<path d="M42.8858 26.6381H10.6782C10.4008 26.6381 10.1143 26.362 10.1143 26.0859C10.1143 25.8098 10.3916 25.5337 10.6782 25.5337H42.8858C43.1631 25.5337 43.4497 25.8098 43.4497 26.0859C43.4497 26.362 43.1724 26.6381 42.8858 26.6381Z" fill="white"/>
<path d="M26.7358 42.4682C26.4585 42.4682 26.1719 42.1921 26.1719 41.916V10.1638C26.1719 9.88768 26.4492 9.61157 26.7358 9.61157C27.0224 9.61157 27.2997 9.88768 27.2997 10.1638V41.916C27.2997 42.1921 27.1148 42.4682 26.7358 42.4682Z" fill="white"/>
<path d="M26.7358 42.4682H26.6433C22.0673 42.4682 17.8703 40.6275 14.6903 37.4063C11.7043 34.3691 10.1143 30.3195 10.1143 26.0859C10.1143 21.8523 11.7967 17.8027 14.6903 14.7656C17.8611 11.5443 22.0673 9.70361 26.6433 9.70361H26.9207C31.4967 9.70361 35.6936 11.5443 38.8737 14.7656C41.8597 17.8027 43.4497 21.8523 43.4497 26.0859C43.4497 30.3195 41.7672 34.3691 38.8737 37.4063C35.7029 40.6275 31.4967 42.4682 26.9207 42.4682H26.7358ZM26.7358 41.2718H26.8282C31.0252 41.2718 35.0465 39.5231 37.94 36.5779C40.7411 33.7249 42.2387 29.9514 42.2387 25.9939C42.2387 22.0364 40.7411 18.2629 37.94 15.4098C35.0465 12.3726 31.0344 10.716 26.8282 10.716H26.6433C22.4463 10.716 18.425 12.4647 15.5315 15.4098C12.7304 18.2629 11.2328 22.0364 11.2328 25.9939C11.2328 29.9514 12.7304 33.7249 15.5315 36.5779C18.425 39.6151 22.4371 41.2718 26.6433 41.2718H26.7358Z" fill="white"/>
<path d="M26.7359 47.0699C21.0413 47.0699 15.6241 44.8611 11.612 40.9036C7.59992 36.946 5.35352 31.608 5.35352 25.9938C5.35352 20.3797 7.59067 15.0416 11.612 11.0841C15.6241 7.12657 21.0413 4.91772 26.7359 4.91772C32.4305 4.91772 37.7553 7.12657 41.8598 11.0841C45.8719 15.0416 48.1183 20.3797 48.1183 25.9938C48.1183 31.608 45.8812 36.854 41.8598 40.9036C37.8477 44.8611 32.4305 47.0699 26.7359 47.0699ZM26.7359 6.11418C21.3187 6.11418 16.2804 8.13896 12.4532 11.9124C8.62605 15.6859 6.57378 20.6558 6.57378 25.9938C6.57378 31.3319 8.62605 36.3018 12.4532 40.0752C16.2804 43.8487 21.3187 45.8735 26.7359 45.8735C32.1532 45.8735 37.1914 43.8487 41.0186 40.0752C44.8458 36.3018 46.898 31.3319 46.898 25.9938C46.898 20.6558 44.8458 15.6859 41.0186 11.9124C37.1914 8.231 32.1532 6.11418 26.7359 6.11418Z" fill="white"/>
<path d="M26.7358 6.11424C26.4585 6.11424 26.1719 5.83814 26.1719 5.56203V2.43283C26.1719 2.15672 26.4492 1.88062 26.7358 1.88062C27.0224 1.88062 27.2997 2.15672 27.2997 2.43283V5.56203C27.2997 5.83814 27.1148 6.11424 26.7358 6.11424Z" fill="white"/>
<path d="M26.7358 50.1992C26.4585 50.1992 26.1719 49.9231 26.1719 49.647V46.5178C26.1719 46.2417 26.4492 45.9656 26.7358 45.9656C27.0224 45.9656 27.2997 46.2417 27.2997 46.5178V49.647C27.2997 49.9231 27.1148 50.1992 26.7358 50.1992Z" fill="white"/>
<path d="M41.3971 12.0964C41.2122 12.0964 41.1198 12.0043 41.0273 11.9123C40.8424 11.7282 40.8424 11.3601 41.0273 11.084L43.2645 8.87511C43.4494 8.69104 43.8284 8.69104 44.1057 8.87511C44.2906 9.05918 44.2906 9.42733 44.1057 9.70343L41.8686 11.9123C41.7761 12.0964 41.5912 12.0964 41.4064 12.0964H41.3971Z" fill="white"/>
<path d="M9.83657 43.2965C9.65168 43.2965 9.55924 43.2045 9.46679 43.1125C9.2819 42.9284 9.2819 42.5603 9.46679 42.2842L11.7039 40.0753C11.8888 39.8912 12.2679 39.8912 12.5452 40.0753C12.7301 40.2594 12.7301 40.6275 12.5452 40.9036L10.308 43.1125C10.1231 43.2045 10.0307 43.2965 9.84581 43.2965H9.83657Z" fill="white"/>
<path d="M50.6322 26.6381H47.4614C47.184 26.6381 46.8975 26.362 46.8975 26.0859C46.8975 25.8098 47.1748 25.5337 47.4614 25.5337H50.6322C50.9096 25.5337 51.1961 25.8098 51.1961 26.0859C51.2886 26.362 51.0112 26.6381 50.6322 26.6381Z" fill="white"/>
<path d="M6.01015 26.6381H2.8393C2.56197 26.6381 2.27539 26.362 2.27539 26.0859C2.27539 25.8098 2.55272 25.5337 2.8393 25.5337H6.01015C6.28748 25.5337 6.57406 25.8098 6.57406 26.0859C6.57406 26.362 6.29672 26.6381 6.01015 26.6381Z" fill="white"/>
<path d="M12.0737 12.0964C11.8888 12.0964 11.7964 12.0043 11.7039 11.9123L9.46679 9.70343C9.2819 9.51936 9.2819 9.15122 9.46679 8.87511C9.65168 8.69104 10.0307 8.69104 10.308 8.87511L12.5452 11.084C12.7301 11.268 12.7301 11.6362 12.5452 11.9123C12.3603 12.0964 12.1754 12.0964 12.083 12.0964H12.0737Z" fill="white"/>
<path d="M43.6343 43.2964C43.4494 43.2964 43.3569 43.2044 43.2645 43.1124L41.0273 40.9035L41.3971 40.5354L41.7669 40.1672L44.0041 42.3761C44.1889 42.5602 44.1889 42.9283 44.0041 43.2044C44.0041 43.2044 43.8192 43.2964 43.6343 43.2964Z" fill="white"/>
<path d="M48.959 8.78326C46.9992 8.78326 45.4092 7.21866 45.4092 5.28592C45.4092 3.35318 46.9992 1.78857 48.959 1.78857C50.9189 1.78857 52.5089 3.35318 52.5089 5.28592C52.5089 7.21866 50.8264 8.78326 48.959 8.78326ZM48.959 2.98503C47.6556 2.98503 46.6202 3.99742 46.6202 5.28592C46.6202 6.57441 47.6463 7.5868 48.959 7.5868C50.2718 7.5868 51.2886 6.57441 51.2886 5.28592C51.2886 3.99742 50.1701 2.98503 48.959 2.98503Z" fill="white"/>
<path d="M4.60453 52.5C2.36738 52.5 0.5 50.6593 0.5 48.4504C0.5 46.2416 2.36738 44.4009 4.60453 44.4009C6.84169 44.4009 8.70907 46.2416 8.70907 48.4504C8.70907 50.6593 6.84169 52.5 4.60453 52.5ZM4.60453 45.5973C3.01449 45.5973 1.71102 46.8858 1.71102 48.4504C1.71102 50.015 3.01449 51.3035 4.60453 51.3035C6.19458 51.3035 7.49804 50.015 7.49804 48.4504C7.49804 46.8858 6.19458 45.5973 4.60453 45.5973Z" fill="white"/>
</g>
<defs>
<clipPath id="clip0_396_6457">
<rect width="52" height="52" fill="white" transform="translate(0.5 0.5)"/>
</clipPath>
</defs>
</svg>
