<svg width="53" height="53" viewBox="0 0 53 53" fill="none" xmlns="http://www.w3.org/2000/svg">
<g clip-path="url(#clip0_121_17225)">
<path d="M48.9594 2.43262C50.5494 2.43262 51.8529 3.72111 51.8529 5.28571C51.8529 6.85032 50.5494 8.13881 48.9594 8.13881C47.3693 8.13881 46.0659 6.85032 46.0659 5.28571C46.0659 3.72111 47.2769 2.43262 48.9594 2.43262Z" fill="#E5F4FF"/>
<path d="M4.60452 45.0449C6.50887 45.0449 8.06194 46.5727 8.06194 48.4502C8.06194 50.3278 6.51812 51.8555 4.60452 51.8555C2.69092 51.8555 1.14709 50.3278 1.14709 48.4502C1.14709 46.5727 2.69092 45.0449 4.60452 45.0449Z" fill="#E5F4FF"/>
<path d="M41.3974 11.5444C33.2715 3.53729 20.1074 3.53729 11.9908 11.5444C3.86496 19.5515 3.86496 32.5284 11.9908 40.5355C20.1167 48.5426 33.2808 48.5426 41.3974 40.5355C49.5233 32.5284 49.5233 19.5515 41.3974 11.5444Z" fill="#99D1FF"/>
<path d="M26.8282 10.1641C31.4042 10.1641 35.4162 12.0968 38.4022 15.0419C37.1912 16.3304 35.6936 17.4349 34.1035 18.1711C32.7076 13.4773 29.999 10.2561 26.8189 10.1641H26.8282Z" fill="#E5F4FF"/>
<path d="M26.7357 10.1641V20.0119C24.1195 20.0119 21.605 19.3676 19.3586 18.2632C20.7546 13.4773 23.4632 10.2561 26.6433 10.1641H26.7357Z" fill="#E5F4FF"/>
<path d="M19.3587 18.263C18.7023 20.5639 18.2401 23.2329 18.2401 26.086H10.5857C10.5857 21.8524 12.2682 17.9869 15.0692 15.1338C16.3727 16.3302 17.7779 17.4347 19.3679 18.263H19.3587Z" fill="#E5F4FF"/>
<path d="M35.1389 25.9939H26.7357V19.9196C29.3519 19.9196 31.8664 19.2753 34.1128 18.1709C34.7691 20.5638 35.1389 23.2328 35.1389 25.9939Z" fill="#E5F4FF"/>
<path d="M35.1389 25.9941H42.7933C42.7933 30.2278 41.1108 34.0933 38.3098 36.9464C37.0988 35.6579 35.6012 34.5534 34.0111 33.8171C34.7599 31.5163 35.1297 28.8472 35.1297 25.9941H35.1389Z" fill="#E5F4FF"/>
<path d="M26.7357 32.0684C29.3519 32.0684 31.8664 32.7126 34.1128 33.817C32.7169 38.6029 30.0083 41.8241 26.8282 41.9161H26.7357V32.0684Z" fill="#E5F4FF"/>
<path d="M19.3587 33.8164C20.7546 38.6022 23.4632 41.8235 26.6433 41.9155C22.0673 41.9155 18.0552 39.9828 15.0693 37.0376C16.3727 35.6571 17.7779 34.6447 19.3679 33.8164H19.3587Z" fill="#E5F4FF"/>
<path d="M26.7358 25.9941V32.0685C24.1196 32.0685 21.6051 32.7127 19.3587 33.8171C18.7023 31.5163 18.2401 28.8472 18.2401 25.9941H26.7358Z" fill="#E5F4FF"/>
<path d="M38.4022 36.9458C35.5087 39.983 31.3949 41.8237 26.8282 41.8237C29.9066 41.7317 32.6152 38.5104 34.1128 33.7246C35.7029 34.645 37.1912 35.6574 38.4115 36.9458H38.4022Z" fill="#E5F4FF"/>
<path d="M26.7357 32.0684V41.9161H26.6433C23.5649 41.8241 20.8562 38.6029 19.3586 33.817C21.5958 32.7126 24.1195 32.0684 26.7357 32.0684Z" fill="#E5F4FF"/>
<path d="M26.7358 25.9941H35.139C35.139 28.8472 34.7692 31.5163 34.0204 33.8171C31.7832 32.7127 29.3519 32.0685 26.6433 32.0685L26.7358 25.9941Z" fill="#E5F4FF"/>
<path d="M18.3325 25.9941C18.3325 28.8472 18.7023 31.5163 19.4511 33.8171C17.8611 34.6455 16.4652 35.6579 15.1524 36.9464C12.3514 34.0933 10.6689 30.2278 10.6689 25.9941H18.3233H18.3325Z" fill="#E5F4FF"/>
<path d="M42.8858 25.9942H35.2314C35.2314 23.1411 34.8616 20.4721 34.1128 18.1712C35.7028 17.3429 37.1912 16.2385 38.4115 15.042C41.1201 17.8951 42.895 21.7606 42.895 25.9942H42.8858Z" fill="#E5F4FF"/>
<path d="M26.7357 20.0116V25.9939H18.3325C18.3325 23.1408 18.7023 20.4718 19.4511 18.1709C21.5958 19.3674 24.1195 20.0116 26.7357 20.0116Z" fill="#E5F4FF"/>
<path d="M26.7357 20.0119V10.1641H26.8282C29.9066 10.2561 32.6152 13.4773 34.1128 18.2632C31.8756 19.3676 29.3519 20.0119 26.7357 20.0119Z" fill="#E5F4FF"/>
<path d="M26.6433 10.1641C23.5649 10.2561 20.8563 13.4773 19.3587 18.2632C17.7686 17.4349 16.2803 16.3304 15.06 15.134C18.046 12.0968 22.058 10.1641 26.634 10.1641H26.6433Z" fill="#E5F4FF"/>
<path d="M50.3553 13.3848C50.8175 13.3848 51.1965 13.7529 51.1965 14.2131C51.1965 14.6733 50.8175 15.0414 50.3553 15.0414C49.8931 15.0414 49.514 14.6733 49.514 14.2131C49.514 13.7529 49.8931 13.3848 50.3553 13.3848Z" fill="#006DC6"/>
<path d="M49.7914 36.3936C50.2536 36.3936 50.6326 36.7617 50.6326 37.2219C50.6326 37.6821 50.2536 38.0502 49.7914 38.0502C49.3292 38.0502 48.9501 37.6821 48.9501 37.2219C48.9501 36.7617 49.3292 36.3936 49.7914 36.3936Z" fill="#006DC6"/>
<path d="M41.6747 47.6221C42.137 47.6221 42.516 47.9902 42.516 48.4504C42.516 48.9106 42.137 49.2787 41.6747 49.2787C41.2125 49.2787 40.8335 48.9106 40.8335 48.4504C40.8335 47.9902 41.2125 47.6221 41.6747 47.6221Z" fill="#006DC6"/>
<path d="M37.0063 0.5C37.4685 0.5 37.8475 0.868142 37.8475 1.32832C37.8475 1.7885 37.4685 2.15664 37.0063 2.15664C36.5441 2.15664 36.165 1.7885 36.165 1.32832C36.165 0.868142 36.5441 0.5 37.0063 0.5Z" fill="#006DC6"/>
<path d="M16.5576 49.0947C17.0198 49.0947 17.3989 49.4629 17.3989 49.923C17.3989 50.3832 17.0198 50.7514 16.5576 50.7514C16.0954 50.7514 15.7164 50.3832 15.7164 49.923C15.7164 49.4629 16.0954 49.0947 16.5576 49.0947Z" fill="#006DC6"/>
<path d="M10.1142 1.32812C10.5764 1.32812 10.9554 1.69627 10.9554 2.15644C10.9554 2.61662 10.5764 2.98476 10.1142 2.98476C9.65197 2.98476 9.27295 2.61662 9.27295 2.15644C9.27295 1.69627 9.65197 1.32812 10.1142 1.32812Z" fill="#006DC6"/>
<path d="M3.67083 14.5811C4.13306 14.5811 4.51208 14.9492 4.51208 15.4094C4.51208 15.8696 4.13306 16.2377 3.67083 16.2377C3.20861 16.2377 2.82959 15.8696 2.82959 15.4094C2.82959 14.9492 3.20861 14.5811 3.67083 14.5811Z" fill="#006DC6"/>
<path d="M3.11621 35.8418C3.57843 35.8418 3.95745 36.2099 3.95745 36.6701C3.95745 37.1303 3.57843 37.4984 3.11621 37.4984C2.65399 37.4984 2.27496 37.1303 2.27496 36.6701C2.27496 36.2099 2.65399 35.8418 3.11621 35.8418Z" fill="#006DC6"/>
<path d="M26.6433 42.4677C24.9608 42.4677 23.38 41.5474 21.9749 39.9828C20.6714 38.5102 19.6453 36.3934 18.8965 34.0005C18.1477 31.6075 17.7779 28.8465 17.7779 26.0854C17.7779 23.3244 18.1477 20.5633 18.8965 18.1704C19.6453 15.6854 20.6714 13.6606 21.9749 12.1881C23.38 10.6235 24.9608 9.79516 26.6433 9.70312C26.9206 9.70312 27.2072 9.97923 27.2072 10.2553C27.2072 10.5314 26.9299 10.8075 26.6433 10.8075C23.9347 10.8996 21.3185 13.8447 19.9226 18.4465C19.2662 20.7474 18.8965 23.4164 18.8965 26.0854C18.8965 28.7545 19.2662 31.4235 19.9226 33.7244C21.3185 38.4182 23.8422 41.3633 26.6433 41.3633C26.9206 41.3633 27.2072 41.6394 27.2072 41.9155C27.2072 42.1916 26.9299 42.4677 26.6433 42.4677Z" fill="#006DC6"/>
<path d="M26.8282 42.4677C26.5509 42.4677 26.2643 42.1916 26.2643 41.9155C26.2643 41.6394 26.5416 41.3633 26.8282 41.3633C29.5368 41.2713 32.153 38.3261 33.5489 33.7244C34.2053 31.4235 34.575 28.7545 34.575 26.0854C34.575 23.4164 34.2053 20.7474 33.5489 18.4465C32.153 13.7527 29.6293 10.8075 26.8282 10.8075C26.5509 10.8075 26.2643 10.5314 26.2643 10.2553C26.2643 9.97923 26.5416 9.70312 26.8282 9.70312C28.5107 9.70312 30.0915 10.6235 31.4966 12.1881C32.8001 13.6606 33.8262 15.7775 34.575 18.1704C35.3238 20.5633 35.6936 23.3244 35.6936 26.0854C35.6936 28.8465 35.3238 31.6075 34.575 34.0005C33.8262 36.4854 32.8001 38.5102 31.4966 39.9828C30.1932 41.5474 28.5107 42.4677 26.8282 42.4677Z" fill="#006DC6"/>
<path d="M26.7357 20.5637C24.0271 20.5637 21.5034 19.9195 19.0813 18.723C17.3988 17.8947 15.9105 16.7903 14.5978 15.4097C14.4129 15.2257 14.4129 14.8575 14.5978 14.5814C14.7827 14.3973 15.1617 14.3973 15.439 14.5814C16.65 15.8699 18.0552 16.8823 19.5436 17.6186C21.7807 18.723 24.1196 19.2752 26.6433 19.2752C29.167 19.2752 31.4966 18.723 33.743 17.6186C35.3331 16.8823 36.6365 15.7779 37.8476 14.5814C38.0324 14.3973 38.4115 14.3973 38.6888 14.5814C38.8737 14.7655 38.8737 15.1336 38.6888 15.4097C37.3853 16.7903 35.8877 17.8027 34.2052 18.723C31.9681 19.9195 29.4443 20.5637 26.7357 20.5637Z" fill="#006DC6"/>
<path d="M38.4022 37.59C38.2173 37.59 38.1249 37.4979 37.9307 37.4059C36.7197 36.1174 35.3146 35.105 33.8262 34.3687C31.589 33.2643 29.2502 32.7121 26.7265 32.7121C24.2027 32.7121 21.8731 33.2643 19.6267 34.3687C18.1291 35.105 16.7332 36.1174 15.5222 37.4059C15.3373 37.59 14.9583 37.682 14.681 37.4059C14.4961 37.2218 14.4036 36.8537 14.681 36.5776C15.9844 35.2891 17.482 34.1847 19.0721 33.3563C21.4017 32.1599 24.0178 31.5156 26.7265 31.5156C29.4351 31.5156 32.0513 32.1599 34.3809 33.3563C36.0634 34.1847 37.5517 35.2891 38.8644 36.6696C39.0493 36.8537 39.0493 37.2218 38.8644 37.4979C38.6795 37.4979 38.4946 37.59 38.4022 37.59Z" fill="#006DC6"/>
<path d="M42.8857 26.6376H10.6781C10.4008 26.6376 10.1142 26.3615 10.1142 26.0854C10.1142 25.8093 10.3915 25.5332 10.6781 25.5332H42.8857C43.1631 25.5332 43.4497 25.8093 43.4497 26.0854C43.4497 26.3615 43.1723 26.6376 42.8857 26.6376Z" fill="#006DC6"/>
<path d="M26.7357 42.468C26.4584 42.468 26.1718 42.1919 26.1718 41.9158V10.1635C26.1718 9.88743 26.4491 9.61133 26.7357 9.61133C27.0223 9.61133 27.2996 9.88743 27.2996 10.1635V41.9158C27.2996 42.1919 27.1147 42.468 26.7357 42.468Z" fill="#006DC6"/>
<path d="M26.7357 42.4677H26.6433C22.0673 42.4677 17.8703 40.627 14.6902 37.4058C11.7042 34.3686 10.1142 30.3191 10.1142 26.0854C10.1142 21.8518 11.7967 17.8022 14.6902 14.7651C17.861 11.5438 22.0673 9.70312 26.6433 9.70312H26.9206C31.4966 9.70312 35.6936 11.5438 38.8737 14.7651C41.8596 17.8022 43.4497 21.8518 43.4497 26.0854C43.4497 30.3191 41.7672 34.3686 38.8737 37.4058C35.7028 40.627 31.4966 42.4677 26.9206 42.4677H26.7357ZM26.7357 41.2713H26.8282C31.0251 41.2713 35.0465 39.5226 37.94 36.5775C40.741 33.7244 42.2386 29.9509 42.2386 25.9934C42.2386 22.0359 40.741 18.2624 37.94 15.4093C35.0465 12.3722 31.0344 10.7155 26.8282 10.7155H26.6433C22.4463 10.7155 18.425 12.4642 15.5314 15.4093C12.7304 18.2624 11.2328 22.0359 11.2328 25.9934C11.2328 29.9509 12.7304 33.7244 15.5314 36.5775C18.425 39.6146 22.437 41.2713 26.6433 41.2713H26.7357Z" fill="#006DC6"/>
<path d="M26.7357 47.0702C21.0412 47.0702 15.6239 44.8613 11.6118 40.9038C7.59973 36.9463 5.35333 31.6082 5.35333 25.9941C5.35333 20.3799 7.59049 15.0419 11.6118 11.0843C15.6239 7.12682 21.0412 4.91797 26.7357 4.91797C32.4303 4.91797 37.7551 7.12682 41.8596 11.0843C45.8717 15.0419 48.1181 20.3799 48.1181 25.9941C48.1181 31.6082 45.881 36.8543 41.8596 40.9038C37.8476 44.8613 32.4303 47.0702 26.7357 47.0702ZM26.7357 6.11443C21.3185 6.11443 16.2803 8.13921 12.4531 11.9127C8.62587 15.6861 6.5736 20.656 6.5736 25.9941C6.5736 31.3321 8.62587 36.302 12.4531 40.0755C16.2803 43.8489 21.3185 45.8737 26.7357 45.8737C32.153 45.8737 37.1912 43.8489 41.0184 40.0755C44.8456 36.302 46.8979 31.3321 46.8979 25.9941C46.8979 20.656 44.8456 15.6861 41.0184 11.9127C37.1912 8.23124 32.153 6.11443 26.7357 6.11443Z" fill="#006DC6"/>
<path d="M26.7357 6.11449C26.4584 6.11449 26.1718 5.83838 26.1718 5.56228V2.43307C26.1718 2.15697 26.4491 1.88086 26.7357 1.88086C27.0223 1.88086 27.2996 2.15697 27.2996 2.43307V5.56228C27.2996 5.83838 27.1147 6.11449 26.7357 6.11449Z" fill="#006DC6"/>
<path d="M26.7357 50.1994C26.4584 50.1994 26.1718 49.9233 26.1718 49.6472V46.518C26.1718 46.2419 26.4491 45.9658 26.7357 45.9658C27.0223 45.9658 27.2996 46.2419 27.2996 46.518V49.6472C27.2996 49.9233 27.1147 50.1994 26.7357 50.1994Z" fill="#006DC6"/>
<path d="M41.3974 12.0966C41.2125 12.0966 41.1201 12.0046 41.0276 11.9125C40.8428 11.7285 40.8428 11.3603 41.0276 11.0842L43.2648 8.87536C43.4497 8.69129 43.8287 8.69129 44.106 8.87536C44.2909 9.05943 44.2909 9.42757 44.106 9.70368L41.8689 11.9125C41.7764 12.0966 41.5916 12.0966 41.4067 12.0966H41.3974Z" fill="#006DC6"/>
<path d="M9.83688 43.2968C9.65199 43.2968 9.55954 43.2048 9.4671 43.1127C9.28221 42.9286 9.28221 42.5605 9.4671 42.2844L11.7043 40.0756C11.8891 39.8915 12.2682 39.8915 12.5455 40.0756C12.7304 40.2596 12.7304 40.6278 12.5455 40.9039L10.3083 43.1127C10.1235 43.2048 10.031 43.2968 9.84612 43.2968H9.83688Z" fill="#006DC6"/>
<path d="M50.6326 26.6376H47.4618C47.1845 26.6376 46.8979 26.3615 46.8979 26.0854C46.8979 25.8093 47.1752 25.5332 47.4618 25.5332H50.6326C50.91 25.5332 51.1966 25.8093 51.1966 26.0854C51.289 26.3615 51.0117 26.6376 50.6326 26.6376Z" fill="#006DC6"/>
<path d="M6.00972 26.6376H2.83887C2.56154 26.6376 2.27496 26.3615 2.27496 26.0854C2.27496 25.8093 2.5523 25.5332 2.83887 25.5332H6.00972C6.28705 25.5332 6.57363 25.8093 6.57363 26.0854C6.57363 26.3615 6.2963 26.6376 6.00972 26.6376Z" fill="#006DC6"/>
<path d="M12.074 12.0966C11.8891 12.0966 11.7967 12.0046 11.7043 11.9125L9.4671 9.70368C9.28221 9.51961 9.28221 9.15146 9.4671 8.87536C9.65199 8.69129 10.031 8.69129 10.3083 8.87536L12.5455 11.0842C12.7304 11.2683 12.7304 11.6364 12.5455 11.9125C12.3606 12.0966 12.1757 12.0966 12.0833 12.0966H12.074Z" fill="#006DC6"/>
<path d="M43.6346 43.2962C43.4497 43.2962 43.3572 43.2042 43.2648 43.1121L41.0276 40.9033L41.3974 40.5351L41.7672 40.167L44.0044 42.3758C44.1893 42.5599 44.1893 42.9281 44.0044 43.2042C44.0044 43.2042 43.8195 43.2962 43.6346 43.2962Z" fill="#006DC6"/>
<path d="M48.9593 8.78278C46.9995 8.78278 45.4095 7.21817 45.4095 5.28543C45.4095 3.35269 46.9995 1.78809 48.9593 1.78809C50.9192 1.78809 52.5092 3.35269 52.5092 5.28543C52.5092 7.21817 50.8267 8.78278 48.9593 8.78278ZM48.9593 2.98455C47.6559 2.98455 46.6205 3.99694 46.6205 5.28543C46.6205 6.57393 47.6466 7.58632 48.9593 7.58632C50.2721 7.58632 51.2889 6.57393 51.2889 5.28543C51.2889 3.99694 50.1704 2.98455 48.9593 2.98455Z" fill="#006DC6"/>
<path d="M4.60453 52.5005C2.36738 52.5005 0.5 50.6598 0.5 48.4509C0.5 46.2421 2.36738 44.4014 4.60453 44.4014C6.84169 44.4014 8.70907 46.2421 8.70907 48.4509C8.70907 50.6598 6.84169 52.5005 4.60453 52.5005ZM4.60453 45.5978C3.01449 45.5978 1.71102 46.8863 1.71102 48.4509C1.71102 50.0155 3.01449 51.304 4.60453 51.304C6.19458 51.304 7.49804 50.0155 7.49804 48.4509C7.49804 46.8863 6.19458 45.5978 4.60453 45.5978Z" fill="#006DC6"/>
</g>
<defs>
<clipPath id="clip0_121_17225">
<rect width="52" height="52" fill="white" transform="translate(0.5 0.5)"/>
</clipPath>
</defs>
</svg>
