<svg width="33" height="32" viewBox="0 0 33 32" fill="none" xmlns="http://www.w3.org/2000/svg">
<g clip-path="url(#clip0_29_370)">
<path d="M26.1297 32H6.87026C3.35794 32 0.5 29.1421 0.5 25.6297V6.37026C0.5 2.85794 3.35794 0 6.87026 0H26.1322C29.6445 0 32.5025 2.85794 32.5025 6.37026V25.6322C32.5025 29.1445 29.6445 32.0025 26.1322 32.0025L26.1297 32ZM6.87026 1.1055C3.96522 1.1055 1.6055 3.46522 1.6055 6.37026V25.6322C1.6055 28.5348 3.9677 30.897 6.87026 30.897H26.1322C29.0348 30.897 31.397 28.5348 31.397 25.6322V6.37026C31.397 3.4677 29.0348 1.1055 26.1322 1.1055H6.87026Z" fill="black"/>
<path d="M21.1748 9.97656C20.5676 9.97656 20.0768 10.4673 20.0768 11.0746C20.0768 11.6819 20.5676 12.1727 21.1748 12.1727C21.7821 12.1727 22.2729 11.6819 22.2729 11.0746C22.2729 10.4673 21.7821 9.97656 21.1748 9.97656Z" fill="black"/>
<path d="M16.2893 11.3848C13.7437 11.3848 11.674 13.4545 11.674 16.0001C11.674 18.5457 13.7437 20.6154 16.2893 20.6154C18.835 20.6154 20.9047 18.5457 20.9047 16.0001C20.9047 13.4545 18.835 11.3848 16.2893 11.3848ZM16.2893 18.9572C14.6584 18.9572 13.3323 17.6311 13.3323 16.0001C13.3323 14.3691 14.6584 13.043 16.2893 13.043C17.9203 13.043 19.2464 14.3691 19.2464 16.0001C19.2464 17.6311 17.9203 18.9572 16.2893 18.9572Z" fill="black"/>
<path d="M19.9553 25.3694H12.4721C9.36881 25.3694 6.84302 22.8436 6.84302 19.7402V12.2571C6.84302 9.15372 9.36881 6.62793 12.4721 6.62793H19.9553C23.0587 6.62793 25.5845 9.15372 25.5845 12.2571V19.7402C25.5845 22.8436 23.0587 25.3694 19.9553 25.3694ZM12.4721 8.39276C10.3405 8.39276 8.60537 10.1279 8.60537 12.2595V19.7427C8.60537 21.8744 10.3405 23.6095 12.4721 23.6095H19.9553C22.087 23.6095 23.8221 21.8744 23.8221 19.7427V12.2595C23.8221 10.1279 22.087 8.39276 19.9553 8.39276H12.4721Z" fill="black"/>
</g>
<defs>
<clipPath id="clip0_29_370">
<rect width="32" height="32" fill="white" transform="translate(0.5)"/>
</clipPath>
</defs>
</svg>
