<svg width="55" height="54" viewBox="0 0 55 54" fill="none" xmlns="http://www.w3.org/2000/svg">
<path d="M46.0878 27.2966C46.0878 33.529 42.9297 38.9944 38.0456 42.2544L39.7717 48.1992C32.2037 52.4181 22.8149 52.2263 15.3512 47.6239L17.1721 41.5832C12.8665 38.3232 10.1826 33.1455 10.1826 27.2966C10.1826 17.3247 18.2248 9.27051 28.0973 9.27051C37.9698 9.27051 46.1068 17.3247 46.1068 27.2966H46.0878Z" fill="#F3A5B1"/>
<path d="M49.6347 2.75098C50.9719 2.75098 52.0246 3.80569 52.0246 5.14806C52.0246 6.49043 50.9719 7.54515 49.6347 7.54515C48.2975 7.54515 47.2354 6.49043 47.2354 5.14806C47.2354 3.80569 48.288 2.75098 49.6347 2.75098Z" fill="#FCE8EB"/>
<path d="M4.71095 45.3232C6.66459 45.3232 8.25785 46.9149 8.25785 48.8709C8.25785 50.827 6.67407 52.4186 4.71095 52.4186C2.74784 52.4186 1.16406 50.827 1.16406 48.8709C1.16406 46.9149 2.74784 45.3232 4.71095 45.3232Z" fill="#FCE8EB"/>
<path d="M32.0142 41.6797C33.1617 41.6797 34.1195 42.6385 34.1195 43.7891C34.1195 44.3644 33.9299 44.9397 33.541 45.2274C33.1617 45.6109 32.678 45.8027 32.0995 45.8027H23.0995C21.952 45.8027 20.9941 44.8438 20.9941 43.6932C20.9941 43.1179 21.1838 42.5426 21.5726 42.255C21.952 41.8715 22.4357 41.6797 23.0047 41.6797H32.0047H32.0142Z" fill="#FCE8EB"/>
<path d="M46.0877 27.2969H52.1193C52.1193 36.3099 47.1403 44.0765 39.8569 48.1995L38.1309 42.2547C42.9201 38.9947 46.0782 33.5293 46.0782 27.2969H46.0877Z" fill="#FCE8EB"/>
<path d="M52.0245 27.2966H45.9929C45.9929 22.3106 43.9824 17.8041 40.7295 14.5441L44.9402 10.3252C49.3501 14.64 52.0245 20.6806 52.0245 27.2966Z" fill="#FCE8EB"/>
<path d="M54.4239 42.8302C54.6136 43.3097 54.4239 43.7891 53.9497 43.9808C53.466 44.1726 52.9918 43.9808 52.8022 43.5014C52.6125 43.022 52.8022 42.5426 53.2764 42.3508C53.6557 42.1591 54.2342 42.3508 54.4239 42.8302Z" fill="#D51C38"/>
<path d="M47.2352 51.8432C47.4249 52.3226 47.2352 52.802 46.7611 52.9938C46.2869 53.1856 45.8032 52.9938 45.6135 52.5144C45.4239 52.035 45.6135 51.5556 46.0972 51.3638C46.4766 51.0761 47.0551 51.3638 47.2447 51.8432H47.2352Z" fill="#D51C38"/>
<path d="M45.0352 10.3258L40.8245 14.5447C37.5716 11.2847 33.0668 9.27113 28.0879 9.27113V3.23047C34.698 3.32635 40.7296 6.01109 45.0447 10.3258H45.0352Z" fill="#FCE8EB"/>
<path d="M43.0245 1.50434C43.2141 1.98376 43.0245 2.46317 42.5503 2.65494C42.0761 2.84671 41.5924 2.65494 41.4028 2.17552C41.2131 1.69611 41.4028 1.21669 41.8769 1.02492C42.2563 0.737272 42.8348 1.02492 43.0245 1.50434Z" fill="#D51C38"/>
<path d="M28.0879 23.749C30.0415 23.749 31.6348 25.3407 31.6348 27.2967C31.6348 29.2527 30.051 30.8444 28.0879 30.8444C26.1248 30.8444 24.541 29.2527 24.541 27.2967C24.541 25.3407 26.1248 23.749 28.0879 23.749Z" fill="#FCE8EB"/>
<path d="M28.0879 3.32617V9.27095C23.109 9.27095 18.6043 11.2845 15.3514 14.5445L11.1406 10.3257C15.5505 6.01091 21.4873 3.32617 28.0974 3.32617H28.0879Z" fill="#FCE8EB"/>
<path d="M17.1624 41.4876L15.3415 47.6242C8.63658 43.4053 4.13184 35.8305 4.13184 27.2969H10.1634C10.1634 33.0499 12.8473 38.2276 17.1529 41.4876H17.1624Z" fill="#FCE8EB"/>
<path d="M15.4366 14.5441C12.1838 17.8041 10.1732 22.3106 10.1732 27.2966H4.1416C4.1416 20.6806 6.82548 14.64 11.1311 10.3252L15.4366 14.5441Z" fill="#FCE8EB"/>
<path d="M14.1941 51.8429C14.3838 52.3224 14.1941 52.8018 13.7104 52.9935C13.2363 53.1853 12.7526 52.9935 12.5629 52.5141C12.3732 52.0347 12.5629 51.5553 13.0371 51.3635C13.5208 51.1718 13.995 51.3635 14.1846 51.8429H14.1941Z" fill="#D51C38"/>
<path d="M12.4688 2.07927C12.6585 2.55869 12.4688 3.0381 11.9946 3.22987C11.5204 3.42164 11.0368 3.22987 10.8471 2.75045C10.6574 2.27104 10.8471 1.79162 11.3213 1.59985C11.7955 1.40809 12.2791 1.59985 12.4688 2.07927Z" fill="#D51C38"/>
<path d="M4.14166 11.0922C4.33133 11.5716 4.14166 12.0511 3.66747 12.2428C3.18381 12.4346 2.70962 12.2428 2.51995 11.7634C2.33028 11.284 2.51995 10.8046 2.99413 10.6128C3.37348 10.3252 3.95198 10.6128 4.14166 11.0922Z" fill="#D51C38"/>
<path d="M39.7718 48.7746C39.4872 48.7746 39.2976 48.5828 39.1933 48.3911L37.4672 42.4463C37.3724 42.1586 37.4672 41.9669 37.7517 41.7751C42.6358 38.5151 45.5094 33.1456 45.5094 27.2967C45.5094 22.6943 43.6885 18.2837 40.4356 15.0236C37.1827 11.7636 32.7728 9.9418 28.1732 9.9418C23.5737 9.9418 19.1732 11.7636 15.9108 15.0236C12.6485 18.2837 10.8371 22.6943 10.8371 27.2967C10.8371 32.7621 13.3313 37.748 17.6369 41.1039C17.8265 41.2957 17.9214 41.4875 17.8265 41.7751L16.0057 47.8158C15.9108 48.1034 15.6263 48.2952 15.2375 48.1993C14.953 48.1034 14.7633 47.8158 14.8582 47.4322L16.4894 41.7751C12.0794 38.2274 9.59473 32.9538 9.59473 27.2967C9.59473 22.3108 11.5104 17.7084 15.0573 14.1607C18.6042 10.613 23.1943 8.69531 28.1827 8.69531C33.1711 8.69531 37.7612 10.613 41.3081 14.1607C44.855 17.7084 46.7707 22.3108 46.7707 27.2967C46.7707 33.3374 43.8023 38.9945 38.9182 42.5422L40.5494 48.1034C40.6443 48.3911 40.4546 48.7746 40.1701 48.8705C39.9804 48.7746 39.8856 48.7746 39.7907 48.7746H39.7718Z" fill="#D51C38"/>
<path d="M28.0882 51.8433C23.4887 51.8433 18.9934 50.5009 15.0577 48.1039C11.6056 45.8985 8.74156 42.9261 6.72154 39.3785C4.61616 35.7349 3.56348 31.516 3.56348 27.2971C3.56348 20.7771 6.15252 14.5446 10.7426 9.94224C15.3422 5.33983 21.573 2.75098 28.0882 2.75098C34.6035 2.75098 40.8248 5.33983 45.4244 9.94224C50.024 14.5446 52.6035 20.7771 52.6035 27.2971C52.6035 36.2143 47.8143 44.3644 40.0566 48.775C36.5097 50.7886 32.299 51.8433 28.0882 51.8433ZM28.0882 3.90158C21.867 3.90158 16.0155 6.29867 11.6151 10.7093C7.21469 15.1199 4.81532 20.9688 4.81532 27.2013C4.81532 35.2555 8.93123 42.7344 15.731 47.0491C19.4676 49.3503 23.7732 50.5968 28.1831 50.5968C32.2042 50.5968 36.1304 49.5421 39.5824 47.6244C46.9607 43.5015 51.5508 35.639 51.5508 27.2013C51.5508 20.9688 49.161 15.1199 44.751 10.7093C40.2463 6.29867 34.3095 3.90158 28.0882 3.90158Z" fill="#D51C38"/>
<path d="M35.7413 35.5426C35.5517 35.5426 35.4568 35.4468 35.362 35.3509C35.1723 35.1591 35.1723 34.7756 35.362 34.4879C37.2777 32.5703 38.3304 29.9814 38.3304 27.2967C38.3304 24.6119 37.2777 22.0231 35.362 20.1054C35.1723 19.9136 35.1723 19.5301 35.362 19.2425C35.5517 19.0507 35.9405 19.0507 36.225 19.2425C38.3304 21.3519 39.5822 24.2284 39.5822 27.2967C39.5822 30.3649 38.4347 33.2414 36.225 35.3509C36.0353 35.4468 35.8456 35.5426 35.7508 35.5426H35.7413Z" fill="#D51C38"/>
<path d="M20.5201 35.5426C20.3304 35.5426 20.2355 35.4468 20.1407 35.3509C18.0353 33.2414 16.793 30.3649 16.793 27.2967C16.793 24.2284 17.9405 21.3519 20.1407 19.2425C20.3304 19.0507 20.7192 19.0507 21.0037 19.2425C21.1934 19.4342 21.1934 19.8178 21.0037 20.1054C19.088 22.0231 18.0353 24.6119 18.0353 27.2967C18.0353 29.9814 19.088 32.5703 21.0037 34.4879C21.1934 34.6797 21.1934 35.0632 21.0037 35.3509C20.814 35.4468 20.6244 35.5426 20.5295 35.5426H20.5201Z" fill="#D51C38"/>
<path d="M28.0877 31.5159C25.7927 31.5159 23.877 29.5982 23.877 27.297C23.877 24.9958 25.7927 23.0781 28.0877 23.0781C30.3827 23.0781 32.2984 24.9958 32.2984 27.297C32.2984 29.5982 30.3827 31.5159 28.0877 31.5159ZM28.0877 24.3246C26.4565 24.3246 25.1193 25.667 25.1193 27.297C25.1193 28.927 26.4565 30.2694 28.0877 30.2694C29.7189 30.2694 31.0561 28.927 31.0561 27.297C31.0561 25.667 29.7189 24.3246 28.0877 24.3246Z" fill="#D51C38"/>
<path d="M28.0883 9.94224C27.8038 9.94224 27.5098 9.65458 27.5098 9.36693V3.32628C27.5098 3.03863 27.7943 2.75098 28.0883 2.75098C28.3823 2.75098 28.6668 3.03863 28.6668 3.32628V9.27105C28.6668 9.65458 28.4771 9.94224 28.0883 9.94224Z" fill="#D51C38"/>
<path d="M40.8243 15.1196C40.6347 15.1196 40.5398 15.0237 40.445 14.9278C40.2553 14.736 40.2553 14.3525 40.445 14.0648L44.6557 9.84597C44.8454 9.65421 45.2342 9.65421 45.5188 9.84597C45.7084 10.0377 45.7084 10.4213 45.5188 10.7089L41.2132 15.0237C41.1183 15.1196 40.9287 15.1196 40.8338 15.1196H40.8243Z" fill="#D51C38"/>
<path d="M52.0252 27.8723H45.9935C45.709 27.8723 45.415 27.5846 45.415 27.297C45.415 27.0093 45.6995 26.7217 45.9935 26.7217H52.0252C52.3097 26.7217 52.6037 27.0093 52.6037 27.297C52.6037 27.5846 52.414 27.8723 52.0252 27.8723Z" fill="#D51C38"/>
<path d="M10.1736 27.8723H4.14198C3.85747 27.8723 3.56348 27.5846 3.56348 27.297C3.56348 27.0093 3.84799 26.7217 4.14198 26.7217H10.1736C10.4581 26.7217 10.7521 27.0093 10.7521 27.297C10.7521 27.5846 10.4676 27.8723 10.1736 27.8723Z" fill="#D51C38"/>
<path d="M15.4366 15.1196C15.2469 15.1196 15.1521 15.0237 15.0572 14.9278L10.7516 10.7089C10.562 10.5172 10.562 10.1336 10.7516 9.84597C10.9413 9.65421 11.3301 9.65421 11.6146 9.84597L15.8254 14.0648C16.0151 14.2566 16.0151 14.6401 15.8254 14.9278C15.7306 15.1196 15.5409 15.1196 15.446 15.1196H15.4366Z" fill="#D51C38"/>
<path d="M32.014 46.474H23.014C21.4776 46.474 20.3301 45.2275 20.3301 43.7892C20.3301 43.0222 20.6146 42.351 21.0983 41.8716C21.5724 41.3921 22.2458 41.1045 23.014 41.1045H32.014C33.5503 41.1045 34.6978 42.351 34.6978 43.7892C34.6978 44.5563 34.4133 45.2275 33.9297 45.7069C33.3512 46.1863 32.6873 46.474 32.014 46.474ZM23.0045 42.2551C22.6251 42.2551 22.2363 42.4469 21.9518 42.7345C21.6673 43.0222 21.4776 43.4057 21.4776 43.7892C21.4776 44.6522 22.1509 45.3234 23.014 45.3234H32.014C32.3933 45.3234 32.7821 45.1316 33.0666 44.8439C33.3512 44.5563 33.5408 44.1728 33.5408 43.7892C33.5408 42.9263 32.8675 42.2551 32.0045 42.2551H23.0045Z" fill="#D51C38"/>
<path d="M28.0883 24.3248C27.8038 24.3248 27.5098 24.0371 27.5098 23.7495V14.7364C27.5098 14.4488 27.7943 14.1611 28.0883 14.1611C28.3823 14.1611 28.6668 14.4488 28.6668 14.7364V23.6536C28.6668 24.0371 28.4771 24.3248 28.0883 24.3248Z" fill="#D51C38"/>
<path d="M49.6344 8.12056C48.0032 8.12056 46.666 6.77819 46.666 5.14817C46.666 3.51815 48.0032 2.17578 49.6344 2.17578C51.2656 2.17578 52.6028 3.51815 52.6028 5.14817C52.6028 6.77819 51.2656 8.12056 49.6344 8.12056ZM49.6344 3.32638C48.6766 3.32638 47.8135 4.09345 47.8135 5.14817C47.8135 6.107 48.5817 6.96995 49.6344 6.96995C50.5923 6.96995 51.4553 6.20289 51.4553 5.14817C51.4553 4.09345 50.6871 3.32638 49.6344 3.32638Z" fill="#D51C38"/>
<path d="M4.71075 53.0901C2.4157 53.0901 0.5 51.1724 0.5 48.8712C0.5 46.57 2.4157 44.6523 4.71075 44.6523C7.0058 44.6523 8.9215 46.57 8.9215 48.8712C8.9215 51.1724 7.10063 53.0901 4.71075 53.0901ZM4.71075 45.8988C3.07956 45.8988 1.74236 47.2412 1.74236 48.8712C1.74236 50.5012 3.07956 51.8436 4.71075 51.8436C6.34194 51.8436 7.67914 50.5012 7.67914 48.8712C7.67914 47.2412 6.43678 45.8988 4.71075 45.8988Z" fill="#D51C38"/>
</svg>
