<svg width="55" height="53" viewBox="0 0 55 53" fill="none" xmlns="http://www.w3.org/2000/svg">
<g clip-path="url(#clip0_121_17237)">
<path d="M46.088 26.7966C46.088 33.029 42.93 38.4944 38.0459 41.7544L39.7719 47.6992C32.2039 51.9181 22.8151 51.7263 15.3515 47.1239L17.1723 41.0832C12.8667 37.8232 10.1829 32.6455 10.1829 26.7966C10.1829 16.8247 18.225 8.77051 28.0975 8.77051C37.97 8.77051 46.107 16.8247 46.107 26.7966H46.088Z" fill="#D51C38"/>
<path d="M49.6348 2.25098C50.972 2.25098 52.0247 3.30569 52.0247 4.64806C52.0247 5.99043 50.972 7.04515 49.6348 7.04515C48.2976 7.04515 47.2355 5.99043 47.2355 4.64806C47.2355 3.30569 48.2882 2.25098 49.6348 2.25098Z" fill="#D51C38"/>
<path d="M4.71071 44.8232C6.66435 44.8232 8.2576 46.4149 8.2576 48.3709C8.2576 50.327 6.67383 51.9186 4.71071 51.9186C2.74759 51.9186 1.16382 50.327 1.16382 48.3709C1.16382 46.4149 2.74759 44.8232 4.71071 44.8232Z" fill="#D51C38"/>
<path d="M32.0143 41.1797C33.1618 41.1797 34.1197 42.1385 34.1197 43.2891C34.1197 43.8644 33.93 44.4397 33.5412 44.7274C33.1618 45.1109 32.6781 45.3027 32.0996 45.3027H23.0996C21.9521 45.3027 20.9943 44.3438 20.9943 43.1932C20.9943 42.6179 21.1839 42.0426 21.5728 41.755C21.9521 41.3715 22.4358 41.1797 23.0048 41.1797H32.0048H32.0143Z" fill="#D51C38"/>
<path d="M46.088 26.7969H52.1196C52.1196 35.8099 47.1407 43.5765 39.8573 47.6995L38.1312 41.7547C42.9205 38.4947 46.0785 33.0293 46.0785 26.7969H46.088Z" fill="#D51C38"/>
<path d="M52.0248 26.7966H45.9932C45.9932 21.8106 43.9826 17.3041 40.7297 14.0441L44.9405 9.8252C49.3504 14.14 52.0248 20.1806 52.0248 26.7966Z" fill="#D51C38"/>
<path d="M54.4241 42.3302C54.6138 42.8097 54.4241 43.2891 53.9499 43.4808C53.4663 43.6726 52.9921 43.4808 52.8024 43.0014C52.6127 42.522 52.8024 42.0426 53.2766 41.8508C53.6559 41.6591 54.2345 41.8508 54.4241 42.3302Z" fill="#221F33"/>
<path d="M47.2355 51.3432C47.4252 51.8226 47.2355 52.302 46.7613 52.4938C46.2871 52.6856 45.8035 52.4938 45.6138 52.0144C45.4241 51.535 45.6138 51.0556 46.0974 50.8638C46.4768 50.5761 47.0553 50.8638 47.245 51.3432H47.2355Z" fill="#221F33"/>
<path d="M45.0353 9.82584L40.8246 14.0447C37.5717 10.7847 33.0669 8.77113 28.088 8.77113V2.73047C34.6981 2.82635 40.7297 5.51109 45.0448 9.82584H45.0353Z" fill="#D51C38"/>
<path d="M43.0247 1.00434C43.2144 1.48376 43.0247 1.96317 42.5505 2.15494C42.0763 2.34671 41.5927 2.15494 41.403 1.67552C41.2133 1.19611 41.403 0.71669 41.8772 0.524923C42.2565 0.237272 42.835 0.524923 43.0247 1.00434Z" fill="#221F33"/>
<path d="M28.088 23.249C30.0417 23.249 31.6349 24.8407 31.6349 26.7967C31.6349 28.7527 30.0511 30.3444 28.088 30.3444C26.1249 30.3444 24.5411 28.7527 24.5411 26.7967C24.5411 24.8407 26.1249 23.249 28.088 23.249Z" fill="#D51C38"/>
<path d="M28.0879 2.82617V8.77095C23.109 8.77095 18.6043 10.7845 15.3514 14.0445L11.1406 9.82566C15.5505 5.51091 21.4873 2.82617 28.0974 2.82617H28.0879Z" fill="#D51C38"/>
<path d="M17.1628 40.9876L15.3419 47.1242C8.63694 42.9053 4.1322 35.3305 4.1322 26.7969H10.1638C10.1638 32.5499 12.8477 37.7276 17.1533 40.9876H17.1628Z" fill="#D51C38"/>
<path d="M15.4368 14.0441C12.1839 17.3041 10.1733 21.8106 10.1733 26.7966H4.14172C4.14172 20.1806 6.8256 14.14 11.1312 9.8252L15.4368 14.0441Z" fill="#D51C38"/>
<path d="M14.1945 51.3429C14.3841 51.8224 14.1945 52.3018 13.7108 52.4935C13.2366 52.6853 12.753 52.4935 12.5633 52.0141C12.3736 51.5347 12.5633 51.0553 13.0375 50.8635C13.5211 50.6718 13.9953 50.8635 14.185 51.3429H14.1945Z" fill="#221F33"/>
<path d="M12.4684 1.57927C12.6581 2.05869 12.4684 2.5381 11.9943 2.72987C11.5201 2.92164 11.0364 2.72987 10.8467 2.25045C10.6571 1.77104 10.8467 1.29162 11.3209 1.09985C11.7951 0.908086 12.2788 1.09985 12.4684 1.57927Z" fill="#221F33"/>
<path d="M4.14178 10.5922C4.33145 11.0716 4.14178 11.5511 3.66759 11.7428C3.18393 11.9346 2.70974 11.7428 2.52007 11.2634C2.3304 10.784 2.52007 10.3046 2.99425 10.1128C3.3736 9.82516 3.9521 10.1128 4.14178 10.5922Z" fill="#221F33"/>
<path d="M39.7719 48.2746C39.4874 48.2746 39.2977 48.0828 39.1934 47.8911L37.4673 41.9463C37.3725 41.6586 37.4673 41.4669 37.7519 41.2751C42.6359 38.0151 45.5095 32.6456 45.5095 26.7967C45.5095 22.1943 43.6886 17.7837 40.4357 14.5236C37.1828 11.2636 32.7729 9.4418 28.1734 9.4418C23.5738 9.4418 19.1734 11.2636 15.911 14.5236C12.6486 17.7837 10.8372 22.1943 10.8372 26.7967C10.8372 32.2621 13.3314 37.248 17.637 40.6039C17.8267 40.7957 17.9215 40.9875 17.8267 41.2751L16.0058 47.3158C15.911 47.6034 15.6265 47.7952 15.2376 47.6993C14.9531 47.6034 14.7634 47.3158 14.8583 46.9322L16.4895 41.2751C12.0796 37.7274 9.59485 32.4538 9.59485 26.7967C9.59485 21.8108 11.5105 17.2084 15.0574 13.6607C18.6043 10.113 23.1944 8.19531 28.1828 8.19531C33.1712 8.19531 37.7613 10.113 41.3082 13.6607C44.8551 17.2084 46.7708 21.8108 46.7708 26.7967C46.7708 32.8374 43.8024 38.4945 38.9183 42.0422L40.5495 47.6034C40.6444 47.8911 40.4547 48.2746 40.1702 48.3705C39.9805 48.2746 39.8857 48.2746 39.7908 48.2746H39.7719Z" fill="#221F33"/>
<path d="M28.088 51.3433C23.4884 51.3433 18.9932 50.0009 15.0574 47.6039C11.6054 45.3985 8.74131 42.4261 6.72129 38.8785C4.61592 35.2349 3.56323 31.016 3.56323 26.7971C3.56323 20.2771 6.15227 14.0446 10.7424 9.44224C15.3419 4.83983 21.5727 2.25098 28.088 2.25098C34.6033 2.25098 40.8246 4.83983 45.4241 9.44224C50.0237 14.0446 52.6033 20.2771 52.6033 26.7971C52.6033 35.7143 47.814 43.8644 40.0564 48.275C36.5095 50.2886 32.2987 51.3433 28.088 51.3433ZM28.088 3.40158C21.8667 3.40158 16.0153 5.79867 11.6149 10.2093C7.21444 14.6199 4.81508 20.4688 4.81508 26.7013C4.81508 34.7555 8.93099 42.2344 15.7308 46.5491C19.4673 48.8503 23.7729 50.0968 28.1828 50.0968C32.2039 50.0968 36.1301 49.0421 39.5822 47.1244C46.9605 43.0015 51.5506 35.139 51.5506 26.7013C51.5506 20.4688 49.1607 14.6199 44.7508 10.2093C40.2461 5.79867 34.3093 3.40158 28.088 3.40158Z" fill="#221F33"/>
<path d="M35.7413 35.0426C35.5517 35.0426 35.4568 34.9468 35.362 34.8509C35.1723 34.6591 35.1723 34.2756 35.362 33.9879C37.2777 32.0703 38.3304 29.4814 38.3304 26.7967C38.3304 24.1119 37.2777 21.5231 35.362 19.6054C35.1723 19.4136 35.1723 19.0301 35.362 18.7425C35.5517 18.5507 35.9405 18.5507 36.225 18.7425C38.3304 20.8519 39.5822 23.7284 39.5822 26.7967C39.5822 29.8649 38.4347 32.7414 36.225 34.8509C36.0353 34.9468 35.8456 35.0426 35.7508 35.0426H35.7413Z" fill="#221F33"/>
<path d="M20.5201 35.0426C20.3304 35.0426 20.2355 34.9468 20.1407 34.8509C18.0353 32.7414 16.793 29.8649 16.793 26.7967C16.793 23.7284 17.9405 20.8519 20.1407 18.7425C20.3304 18.5507 20.7192 18.5507 21.0037 18.7425C21.1934 18.9342 21.1934 19.3178 21.0037 19.6054C19.088 21.5231 18.0353 24.1119 18.0353 26.7967C18.0353 29.4814 19.088 32.0703 21.0037 33.9879C21.1934 34.1797 21.1934 34.5632 21.0037 34.8509C20.814 34.9468 20.6244 35.0426 20.5295 35.0426H20.5201Z" fill="#221F33"/>
<path d="M28.0879 31.0159C25.7929 31.0159 23.8772 29.0982 23.8772 26.797C23.8772 24.4958 25.7929 22.5781 28.0879 22.5781C30.383 22.5781 32.2987 24.4958 32.2987 26.797C32.2987 29.0982 30.383 31.0159 28.0879 31.0159ZM28.0879 23.8246C26.4568 23.8246 25.1196 25.167 25.1196 26.797C25.1196 28.427 26.4568 29.7694 28.0879 29.7694C29.7191 29.7694 31.0563 28.427 31.0563 26.797C31.0563 25.167 29.7191 23.8246 28.0879 23.8246Z" fill="#221F33"/>
<path d="M28.088 9.44224C27.8035 9.44224 27.5095 9.15458 27.5095 8.86693V2.82628C27.5095 2.53863 27.794 2.25098 28.088 2.25098C28.382 2.25098 28.6665 2.53863 28.6665 2.82628V8.77105C28.6665 9.15458 28.4769 9.44224 28.088 9.44224Z" fill="#221F33"/>
<path d="M40.8246 14.6196C40.6349 14.6196 40.5401 14.5237 40.4452 14.4278C40.2556 14.236 40.2556 13.8525 40.4452 13.5648L44.656 9.34597C44.8457 9.15421 45.2345 9.15421 45.519 9.34597C45.7087 9.53774 45.7087 9.92127 45.519 10.2089L41.2134 14.5237C41.1186 14.6196 40.9289 14.6196 40.8341 14.6196H40.8246Z" fill="#221F33"/>
<path d="M52.0248 27.3723H45.9932C45.7087 27.3723 45.4147 27.0846 45.4147 26.797C45.4147 26.5093 45.6992 26.2217 45.9932 26.2217H52.0248C52.3093 26.2217 52.6033 26.5093 52.6033 26.797C52.6033 27.0846 52.4136 27.3723 52.0248 27.3723Z" fill="#221F33"/>
<path d="M10.1733 27.3723H4.14174C3.85723 27.3723 3.56323 27.0846 3.56323 26.797C3.56323 26.5093 3.84774 26.2217 4.14174 26.2217H10.1733C10.4579 26.2217 10.7519 26.5093 10.7519 26.797C10.7519 27.0846 10.4673 27.3723 10.1733 27.3723Z" fill="#221F33"/>
<path d="M15.4368 14.6196C15.2471 14.6196 15.1523 14.5237 15.0575 14.4278L10.7519 10.2089C10.5622 10.0172 10.5622 9.63362 10.7519 9.34597C10.9415 9.15421 11.3304 9.15421 11.6149 9.34597L15.8256 13.5648C16.0153 13.7566 16.0153 14.1401 15.8256 14.4278C15.7308 14.6196 15.5411 14.6196 15.4463 14.6196H15.4368Z" fill="#221F33"/>
<path d="M32.0142 45.974H23.0142C21.4778 45.974 20.3303 44.7275 20.3303 43.2892C20.3303 42.5222 20.6148 41.851 21.0985 41.3716C21.5727 40.8921 22.246 40.6045 23.0142 40.6045H32.0142C33.5506 40.6045 34.6981 41.851 34.6981 43.2892C34.6981 44.0563 34.4136 44.7275 33.9299 45.2069C33.3514 45.6863 32.6875 45.974 32.0142 45.974ZM23.0047 41.7551C22.6254 41.7551 22.2365 41.9469 21.952 42.2345C21.6675 42.5222 21.4778 42.9057 21.4778 43.2892C21.4778 44.1522 22.1512 44.8234 23.0142 44.8234H32.0142C32.3935 44.8234 32.7824 44.6316 33.0669 44.3439C33.3514 44.0563 33.5411 43.6728 33.5411 43.2892C33.5411 42.4263 32.8677 41.7551 32.0047 41.7551H23.0047Z" fill="#221F33"/>
<path d="M28.088 23.8248C27.8035 23.8248 27.5095 23.5371 27.5095 23.2495V14.2364C27.5095 13.9488 27.794 13.6611 28.088 13.6611C28.382 13.6611 28.6665 13.9488 28.6665 14.2364V23.1536C28.6665 23.5371 28.4769 23.8248 28.088 23.8248Z" fill="#221F33"/>
<path d="M49.6349 7.62056C48.0037 7.62056 46.6665 6.27819 46.6665 4.64817C46.6665 3.01815 48.0037 1.67578 49.6349 1.67578C51.2661 1.67578 52.6033 3.01815 52.6033 4.64817C52.6033 6.27819 51.2661 7.62056 49.6349 7.62056ZM49.6349 2.82638C48.677 2.82638 47.814 3.59345 47.814 4.64817C47.814 5.607 48.5822 6.46995 49.6349 6.46995C50.5927 6.46995 51.4558 5.70289 51.4558 4.64817C51.4558 3.59345 50.6876 2.82638 49.6349 2.82638Z" fill="#221F33"/>
<path d="M4.71075 52.5901C2.4157 52.5901 0.5 50.6724 0.5 48.3712C0.5 46.07 2.4157 44.1523 4.71075 44.1523C7.0058 44.1523 8.9215 46.07 8.9215 48.3712C8.9215 50.6724 7.10063 52.5901 4.71075 52.5901ZM4.71075 45.3988C3.07956 45.3988 1.74236 46.7412 1.74236 48.3712C1.74236 50.0012 3.07956 51.3436 4.71075 51.3436C6.34194 51.3436 7.67914 50.0012 7.67914 48.3712C7.67914 46.7412 6.43678 45.3988 4.71075 45.3988Z" fill="#221F33"/>
<path d="M46.088 26.7966C46.088 33.029 42.93 38.4944 38.0459 41.7544L39.7719 47.6992C32.2039 51.9181 22.8151 51.7263 15.3515 47.1239L17.1723 41.0832C12.8667 37.8232 10.1829 32.6455 10.1829 26.7966C10.1829 16.8247 18.225 8.77051 28.0975 8.77051C37.97 8.77051 46.107 16.8247 46.107 26.7966H46.088Z" fill="#D51C38"/>
<path d="M49.6348 2.25098C50.972 2.25098 52.0247 3.30569 52.0247 4.64806C52.0247 5.99043 50.972 7.04515 49.6348 7.04515C48.2976 7.04515 47.2355 5.99043 47.2355 4.64806C47.2355 3.30569 48.2882 2.25098 49.6348 2.25098Z" fill="#D51C38"/>
<path d="M4.71071 44.8232C6.66435 44.8232 8.2576 46.4149 8.2576 48.3709C8.2576 50.327 6.67383 51.9186 4.71071 51.9186C2.74759 51.9186 1.16382 50.327 1.16382 48.3709C1.16382 46.4149 2.74759 44.8232 4.71071 44.8232Z" fill="#D51C38"/>
<path d="M32.0143 41.1797C33.1618 41.1797 34.1197 42.1385 34.1197 43.2891C34.1197 43.8644 33.93 44.4397 33.5412 44.7274C33.1618 45.1109 32.6781 45.3027 32.0996 45.3027H23.0996C21.9521 45.3027 20.9943 44.3438 20.9943 43.1932C20.9943 42.6179 21.1839 42.0426 21.5728 41.755C21.9521 41.3715 22.4358 41.1797 23.0048 41.1797H32.0048H32.0143Z" fill="#D51C38"/>
<path d="M46.088 26.7969H52.1196C52.1196 35.8099 47.1407 43.5765 39.8573 47.6995L38.1312 41.7547C42.9205 38.4947 46.0785 33.0293 46.0785 26.7969H46.088Z" fill="#D51C38"/>
<path d="M52.0248 26.7966H45.9932C45.9932 21.8106 43.9826 17.3041 40.7297 14.0441L44.9405 9.8252C49.3504 14.14 52.0248 20.1806 52.0248 26.7966Z" fill="#D51C38"/>
<path d="M54.4241 42.3302C54.6138 42.8097 54.4241 43.2891 53.9499 43.4808C53.4663 43.6726 52.9921 43.4808 52.8024 43.0014C52.6127 42.522 52.8024 42.0426 53.2766 41.8508C53.6559 41.6591 54.2345 41.8508 54.4241 42.3302Z" fill="white"/>
<path d="M47.2355 51.3432C47.4252 51.8226 47.2355 52.302 46.7613 52.4938C46.2871 52.6856 45.8035 52.4938 45.6138 52.0144C45.4241 51.535 45.6138 51.0556 46.0974 50.8638C46.4768 50.5761 47.0553 50.8638 47.245 51.3432H47.2355Z" fill="white"/>
<path d="M45.0353 9.82584L40.8246 14.0447C37.5717 10.7847 33.0669 8.77113 28.088 8.77113V2.73047C34.6981 2.82635 40.7297 5.51109 45.0448 9.82584H45.0353Z" fill="#D51C38"/>
<path d="M43.0247 1.00434C43.2144 1.48376 43.0247 1.96317 42.5505 2.15494C42.0763 2.34671 41.5927 2.15494 41.403 1.67552C41.2133 1.19611 41.403 0.71669 41.8772 0.524923C42.2565 0.237272 42.835 0.524923 43.0247 1.00434Z" fill="white"/>
<path d="M28.088 23.249C30.0417 23.249 31.6349 24.8407 31.6349 26.7967C31.6349 28.7527 30.0511 30.3444 28.088 30.3444C26.1249 30.3444 24.5411 28.7527 24.5411 26.7967C24.5411 24.8407 26.1249 23.249 28.088 23.249Z" fill="#D51C38"/>
<path d="M28.0879 2.82617V8.77095C23.109 8.77095 18.6043 10.7845 15.3514 14.0445L11.1406 9.82566C15.5505 5.51091 21.4873 2.82617 28.0974 2.82617H28.0879Z" fill="#D51C38"/>
<path d="M17.1628 40.9876L15.3419 47.1242C8.63694 42.9053 4.1322 35.3305 4.1322 26.7969H10.1638C10.1638 32.5499 12.8477 37.7276 17.1533 40.9876H17.1628Z" fill="#D51C38"/>
<path d="M15.4368 14.0441C12.1839 17.3041 10.1733 21.8106 10.1733 26.7966H4.14172C4.14172 20.1806 6.8256 14.14 11.1312 9.8252L15.4368 14.0441Z" fill="#D51C38"/>
<path d="M14.1945 51.3429C14.3841 51.8224 14.1945 52.3018 13.7108 52.4935C13.2366 52.6853 12.753 52.4935 12.5633 52.0141C12.3736 51.5347 12.5633 51.0553 13.0375 50.8635C13.5211 50.6718 13.9953 50.8635 14.185 51.3429H14.1945Z" fill="white"/>
<path d="M12.4684 1.57927C12.6581 2.05869 12.4684 2.5381 11.9943 2.72987C11.5201 2.92164 11.0364 2.72987 10.8467 2.25045C10.6571 1.77104 10.8467 1.29162 11.3209 1.09985C11.7951 0.908086 12.2788 1.09985 12.4684 1.57927Z" fill="white"/>
<path d="M4.14178 10.5922C4.33145 11.0716 4.14178 11.5511 3.66759 11.7428C3.18393 11.9346 2.70974 11.7428 2.52007 11.2634C2.3304 10.784 2.52007 10.3046 2.99425 10.1128C3.3736 9.82516 3.9521 10.1128 4.14178 10.5922Z" fill="white"/>
<path d="M39.7719 48.2746C39.4874 48.2746 39.2977 48.0828 39.1934 47.8911L37.4673 41.9463C37.3725 41.6586 37.4673 41.4669 37.7519 41.2751C42.6359 38.0151 45.5095 32.6456 45.5095 26.7967C45.5095 22.1943 43.6886 17.7837 40.4357 14.5236C37.1828 11.2636 32.7729 9.4418 28.1734 9.4418C23.5738 9.4418 19.1734 11.2636 15.911 14.5236C12.6486 17.7837 10.8372 22.1943 10.8372 26.7967C10.8372 32.2621 13.3314 37.248 17.637 40.6039C17.8267 40.7957 17.9215 40.9875 17.8267 41.2751L16.0058 47.3158C15.911 47.6034 15.6265 47.7952 15.2376 47.6993C14.9531 47.6034 14.7634 47.3158 14.8583 46.9322L16.4895 41.2751C12.0796 37.7274 9.59485 32.4538 9.59485 26.7967C9.59485 21.8108 11.5105 17.2084 15.0574 13.6607C18.6043 10.113 23.1944 8.19531 28.1828 8.19531C33.1712 8.19531 37.7613 10.113 41.3082 13.6607C44.8551 17.2084 46.7708 21.8108 46.7708 26.7967C46.7708 32.8374 43.8024 38.4945 38.9183 42.0422L40.5495 47.6034C40.6444 47.8911 40.4547 48.2746 40.1702 48.3705C39.9805 48.2746 39.8857 48.2746 39.7908 48.2746H39.7719Z" fill="white"/>
<path d="M28.088 51.3433C23.4884 51.3433 18.9932 50.0009 15.0574 47.6039C11.6054 45.3985 8.74131 42.4261 6.72129 38.8785C4.61592 35.2349 3.56323 31.016 3.56323 26.7971C3.56323 20.2771 6.15227 14.0446 10.7424 9.44224C15.3419 4.83983 21.5727 2.25098 28.088 2.25098C34.6033 2.25098 40.8246 4.83983 45.4241 9.44224C50.0237 14.0446 52.6033 20.2771 52.6033 26.7971C52.6033 35.7143 47.814 43.8644 40.0564 48.275C36.5095 50.2886 32.2987 51.3433 28.088 51.3433ZM28.088 3.40158C21.8667 3.40158 16.0153 5.79867 11.6149 10.2093C7.21444 14.6199 4.81508 20.4688 4.81508 26.7013C4.81508 34.7555 8.93099 42.2344 15.7308 46.5491C19.4673 48.8503 23.7729 50.0968 28.1828 50.0968C32.2039 50.0968 36.1301 49.0421 39.5822 47.1244C46.9605 43.0015 51.5506 35.139 51.5506 26.7013C51.5506 20.4688 49.1607 14.6199 44.7508 10.2093C40.2461 5.79867 34.3093 3.40158 28.088 3.40158Z" fill="white"/>
<path d="M35.7413 35.0426C35.5517 35.0426 35.4568 34.9468 35.362 34.8509C35.1723 34.6591 35.1723 34.2756 35.362 33.9879C37.2777 32.0703 38.3304 29.4814 38.3304 26.7967C38.3304 24.1119 37.2777 21.5231 35.362 19.6054C35.1723 19.4136 35.1723 19.0301 35.362 18.7425C35.5517 18.5507 35.9405 18.5507 36.225 18.7425C38.3304 20.8519 39.5822 23.7284 39.5822 26.7967C39.5822 29.8649 38.4347 32.7414 36.225 34.8509C36.0353 34.9468 35.8456 35.0426 35.7508 35.0426H35.7413Z" fill="white"/>
<path d="M20.5201 35.0426C20.3304 35.0426 20.2355 34.9468 20.1407 34.8509C18.0353 32.7414 16.793 29.8649 16.793 26.7967C16.793 23.7284 17.9405 20.8519 20.1407 18.7425C20.3304 18.5507 20.7192 18.5507 21.0037 18.7425C21.1934 18.9342 21.1934 19.3178 21.0037 19.6054C19.088 21.5231 18.0353 24.1119 18.0353 26.7967C18.0353 29.4814 19.088 32.0703 21.0037 33.9879C21.1934 34.1797 21.1934 34.5632 21.0037 34.8509C20.814 34.9468 20.6244 35.0426 20.5295 35.0426H20.5201Z" fill="white"/>
<path d="M28.0879 31.0159C25.7929 31.0159 23.8772 29.0982 23.8772 26.797C23.8772 24.4958 25.7929 22.5781 28.0879 22.5781C30.383 22.5781 32.2987 24.4958 32.2987 26.797C32.2987 29.0982 30.383 31.0159 28.0879 31.0159ZM28.0879 23.8246C26.4568 23.8246 25.1196 25.167 25.1196 26.797C25.1196 28.427 26.4568 29.7694 28.0879 29.7694C29.7191 29.7694 31.0563 28.427 31.0563 26.797C31.0563 25.167 29.7191 23.8246 28.0879 23.8246Z" fill="white"/>
<path d="M28.088 9.44224C27.8035 9.44224 27.5095 9.15458 27.5095 8.86693V2.82628C27.5095 2.53863 27.794 2.25098 28.088 2.25098C28.382 2.25098 28.6665 2.53863 28.6665 2.82628V8.77105C28.6665 9.15458 28.4769 9.44224 28.088 9.44224Z" fill="white"/>
<path d="M40.8246 14.6196C40.6349 14.6196 40.5401 14.5237 40.4452 14.4278C40.2556 14.236 40.2556 13.8525 40.4452 13.5648L44.656 9.34597C44.8457 9.15421 45.2345 9.15421 45.519 9.34597C45.7087 9.53774 45.7087 9.92127 45.519 10.2089L41.2134 14.5237C41.1186 14.6196 40.9289 14.6196 40.8341 14.6196H40.8246Z" fill="white"/>
<path d="M52.0248 27.3723H45.9932C45.7087 27.3723 45.4147 27.0846 45.4147 26.797C45.4147 26.5093 45.6992 26.2217 45.9932 26.2217H52.0248C52.3093 26.2217 52.6033 26.5093 52.6033 26.797C52.6033 27.0846 52.4136 27.3723 52.0248 27.3723Z" fill="white"/>
<path d="M10.1733 27.3723H4.14174C3.85723 27.3723 3.56323 27.0846 3.56323 26.797C3.56323 26.5093 3.84774 26.2217 4.14174 26.2217H10.1733C10.4579 26.2217 10.7519 26.5093 10.7519 26.797C10.7519 27.0846 10.4673 27.3723 10.1733 27.3723Z" fill="white"/>
<path d="M15.4368 14.6196C15.2471 14.6196 15.1523 14.5237 15.0575 14.4278L10.7519 10.2089C10.5622 10.0172 10.5622 9.63362 10.7519 9.34597C10.9415 9.15421 11.3304 9.15421 11.6149 9.34597L15.8256 13.5648C16.0153 13.7566 16.0153 14.1401 15.8256 14.4278C15.7308 14.6196 15.5411 14.6196 15.4463 14.6196H15.4368Z" fill="white"/>
<path d="M32.0142 45.974H23.0142C21.4778 45.974 20.3303 44.7275 20.3303 43.2892C20.3303 42.5222 20.6148 41.851 21.0985 41.3716C21.5727 40.8921 22.246 40.6045 23.0142 40.6045H32.0142C33.5506 40.6045 34.6981 41.851 34.6981 43.2892C34.6981 44.0563 34.4136 44.7275 33.9299 45.2069C33.3514 45.6863 32.6875 45.974 32.0142 45.974ZM23.0047 41.7551C22.6254 41.7551 22.2365 41.9469 21.952 42.2345C21.6675 42.5222 21.4778 42.9057 21.4778 43.2892C21.4778 44.1522 22.1512 44.8234 23.0142 44.8234H32.0142C32.3935 44.8234 32.7824 44.6316 33.0669 44.3439C33.3514 44.0563 33.5411 43.6728 33.5411 43.2892C33.5411 42.4263 32.8677 41.7551 32.0047 41.7551H23.0047Z" fill="white"/>
<path d="M28.088 23.8248C27.8035 23.8248 27.5095 23.5371 27.5095 23.2495V14.2364C27.5095 13.9488 27.794 13.6611 28.088 13.6611C28.382 13.6611 28.6665 13.9488 28.6665 14.2364V23.1536C28.6665 23.5371 28.4769 23.8248 28.088 23.8248Z" fill="white"/>
<path d="M49.6349 7.62056C48.0037 7.62056 46.6665 6.27819 46.6665 4.64817C46.6665 3.01815 48.0037 1.67578 49.6349 1.67578C51.2661 1.67578 52.6033 3.01815 52.6033 4.64817C52.6033 6.27819 51.2661 7.62056 49.6349 7.62056ZM49.6349 2.82638C48.677 2.82638 47.814 3.59345 47.814 4.64817C47.814 5.607 48.5822 6.46995 49.6349 6.46995C50.5927 6.46995 51.4558 5.70289 51.4558 4.64817C51.4558 3.59345 50.6876 2.82638 49.6349 2.82638Z" fill="white"/>
<path d="M4.71075 52.5901C2.4157 52.5901 0.5 50.6724 0.5 48.3712C0.5 46.07 2.4157 44.1523 4.71075 44.1523C7.0058 44.1523 8.9215 46.07 8.9215 48.3712C8.9215 50.6724 7.10063 52.5901 4.71075 52.5901ZM4.71075 45.3988C3.07956 45.3988 1.74236 46.7412 1.74236 48.3712C1.74236 50.0012 3.07956 51.3436 4.71075 51.3436C6.34194 51.3436 7.67914 50.0012 7.67914 48.3712C7.67914 46.7412 6.43678 45.3988 4.71075 45.3988Z" fill="white"/>
</g>
<defs>
<clipPath id="clip0_121_17237">
<rect width="54" height="52.1798" fill="white" transform="translate(0.5 0.410156)"/>
</clipPath>
</defs>
</svg>
