<svg width="33" height="32" viewBox="0 0 33 32" fill="none" xmlns="http://www.w3.org/2000/svg">
<g clip-path="url(#clip0_29_383)">
<path d="M26.1297 32H6.87026C3.35794 32 0.5 29.1421 0.5 25.6297V6.37026C0.5 2.85794 3.35794 0 6.87026 0H26.1322C29.6445 0 32.5025 2.85794 32.5025 6.37026V25.6322C32.5025 29.1445 29.6445 32.0025 26.1322 32.0025L26.1297 32ZM6.87026 1.1055C3.96522 1.1055 1.6055 3.46522 1.6055 6.37026V25.6322C1.6055 28.5348 3.9677 30.897 6.87026 30.897H26.1322C29.0348 30.897 31.397 28.5348 31.397 25.6322V6.37026C31.397 3.4677 29.0348 1.1055 26.1322 1.1055H6.87026Z" fill="black"/>
<path d="M24.4566 17.0359V22.9972C24.4566 23.3839 24.1418 23.6987 23.7551 23.6987H21.6507C21.264 23.6987 20.9492 23.3839 20.9492 22.9972V18.0869C20.9492 17.1202 20.1635 16.3345 19.1968 16.3345C18.2301 16.3345 17.4444 17.1202 17.4444 18.0869V22.9972C17.4444 23.3839 17.1296 23.6987 16.7429 23.6987H14.6385C14.2518 23.6987 13.937 23.3839 13.937 22.9972V13.8806C13.937 13.4939 14.2518 13.1791 14.6385 13.1791H16.7429C17.1296 13.1791 17.4444 13.4939 17.4444 13.8806V14.3292C18.1458 13.422 19.3059 12.8296 20.5998 12.8296C22.5356 12.8296 24.4566 14.2325 24.4566 17.0384V17.0359Z" fill="black"/>
<path d="M10.7817 11.7762C11.9439 11.7762 12.8861 10.834 12.8861 9.6718C12.8861 8.50956 11.9439 7.56738 10.7817 7.56738C9.61942 7.56738 8.67725 8.50956 8.67725 9.6718C8.67725 10.834 9.61942 11.7762 10.7817 11.7762Z" fill="black"/>
<path d="M12.0631 13.1792H9.50261C9.24114 13.1792 9.02917 13.3912 9.02917 13.6526V23.2254C9.02917 23.4868 9.24114 23.6988 9.50261 23.6988H12.0631C12.3246 23.6988 12.5365 23.4868 12.5365 23.2254V13.6526C12.5365 13.3912 12.3246 13.1792 12.0631 13.1792Z" fill="black"/>
</g>
<defs>
<clipPath id="clip0_29_383">
<rect width="32" height="32" fill="white" transform="translate(0.5)"/>
</clipPath>
</defs>
</svg>
