<svg width="185" height="28" viewBox="0 0 185 28" fill="none" xmlns="http://www.w3.org/2000/svg">
<g clip-path="url(#clip0_1_20)">
<path d="M86.1148 27.9996C85.5987 27.9156 85.0751 27.8623 84.564 27.7391C82.6172 27.2656 81.1215 26.1087 80.2371 24.0664C79.8437 23.1616 79.6207 22.1979 79.5455 21.1978C79.4954 20.5395 79.4729 19.8755 79.4729 19.2144C79.4654 15.5642 79.4654 11.9168 79.4729 8.26655C79.4729 6.84904 79.6357 5.46235 80.1569 4.14849C80.7757 2.58251 81.7829 1.45635 83.181 0.767201C84.118 0.30497 85.1051 0.0892619 86.1249 0.0416381C86.1975 0.0388367 86.2702 0.0164255 86.3453 0.00241852H104.184C104.294 0.0164255 104.405 0.0360353 104.517 0.0444395C105.419 0.103269 106.301 0.28536 107.143 0.660748C109.205 1.58521 110.38 3.32768 110.861 5.71167C111.037 6.58291 111.089 7.46815 111.089 8.359C111.089 11.8579 111.097 15.3541 111.084 18.853C111.082 19.7495 111.057 20.6487 110.976 21.5396C110.871 22.6826 110.548 23.7667 109.994 24.7444C109.052 26.414 107.659 27.3497 105.958 27.7475C105.447 27.8679 104.926 27.9212 104.407 28.0052H86.1173L86.1148 27.9996ZM95.2748 24.2037C97.7527 24.2037 100.231 24.2093 102.708 24.1981C103.187 24.1981 103.671 24.1561 104.139 24.0636C105.319 23.8283 106.241 23.156 106.775 21.9178C107.146 21.0605 107.228 20.1333 107.228 19.1976C107.228 15.7323 107.233 12.2641 107.223 8.79881C107.223 8.27215 107.183 7.73989 107.096 7.22443C106.875 5.90497 106.264 4.88246 105.151 4.29977C104.395 3.90477 103.585 3.81512 102.761 3.81512C97.7752 3.81512 92.7919 3.81512 87.806 3.82073C87.35 3.82073 86.889 3.85434 86.4406 3.94399C85.2555 4.18211 84.3159 4.83483 83.7672 6.07585C83.3889 6.93028 83.2962 7.85194 83.2962 8.79041C83.2962 12.2726 83.2912 15.7575 83.3012 19.2396C83.3012 19.7411 83.3388 20.2481 83.4215 20.7384C83.6996 22.394 84.5464 23.523 86.0196 23.9516C86.6084 24.1225 87.2323 24.1897 87.8436 24.1953C90.3215 24.2205 92.7994 24.2065 95.2748 24.2065V24.2037Z" fill="#001C33"/>
<path d="M73.302 0.000765764C73.8557 0.241686 73.9659 0.426579 73.9684 1.11012C73.9684 1.61437 73.9684 2.11582 73.9684 2.62008C73.9684 3.53053 73.7179 3.81347 72.9086 3.81347C66.169 3.81347 59.4268 3.81347 52.6871 3.81347C51.9631 3.81347 51.249 3.8723 50.5625 4.15244C49.2622 4.68471 48.5256 5.75484 48.2675 7.24519C48.1823 7.74384 48.1447 8.25929 48.1422 8.76915C48.1322 12.2681 48.1347 15.767 48.1372 19.266C48.1372 20.1764 48.2324 21.0757 48.5957 21.9077C49.1369 23.1515 50.0664 23.8239 51.254 24.0592C51.7376 24.1572 52.2387 24.1965 52.7297 24.1965C59.4318 24.2049 66.1364 24.2021 72.8385 24.2021C73.7505 24.2021 73.9634 24.443 73.9634 25.4655C73.9634 25.9529 73.9584 26.4404 73.9634 26.925C73.9709 27.4405 73.8331 27.8467 73.3421 27.998H50.9534C50.9033 27.9868 50.8531 27.9671 50.803 27.9615C49.8034 27.8887 48.8337 27.6618 47.9168 27.1912C47.0173 26.7289 46.2581 26.065 45.6694 25.1685C44.8852 23.9751 44.5118 22.6137 44.3791 21.1597C44.339 20.7367 44.3189 20.3109 44.2889 19.8879V8.10802C44.3014 8.00156 44.3164 7.89511 44.3264 7.78866C44.3891 7.14994 44.4191 6.50282 44.5194 5.8697C44.7499 4.43538 45.2885 3.15514 46.2206 2.11862C47.2578 0.964447 48.5506 0.381756 49.9762 0.143637C50.3746 0.0764036 50.778 0.0455882 51.1789 -0.00483704H73.297L73.302 0.000765764Z" fill="#001C33"/>
<path d="M185 3.09593C184.835 3.67302 184.454 3.82149 183.948 3.81869C177.023 3.81029 170.095 3.81309 163.17 3.81309C162.426 3.81309 161.692 3.88313 160.988 4.18007C159.715 4.72074 159.003 5.78248 158.745 7.24201C158.66 7.71824 158.63 8.21409 158.62 8.70154C158.603 9.77447 158.615 10.8474 158.615 11.9231C158.615 11.9652 158.62 12.0044 158.628 12.0884H158.938C166.289 12.0884 173.638 12.0884 180.989 12.0884C181.124 12.0884 181.262 12.094 181.395 12.108C181.876 12.1613 182.129 12.4582 182.139 13.0045C182.149 13.6544 182.149 14.3071 182.139 14.9571C182.129 15.5482 181.846 15.8563 181.319 15.8787C181.207 15.8843 181.092 15.8815 180.979 15.8815C173.628 15.8815 166.279 15.8815 158.928 15.8815C158.831 15.8815 158.735 15.8815 158.633 15.8815C158.623 15.932 158.613 15.9656 158.613 15.9964C158.62 17.3074 158.595 18.6185 158.643 19.9268C158.69 21.1874 159.046 22.3304 159.95 23.1764C160.574 23.7591 161.313 24.0364 162.108 24.1345C162.534 24.1877 162.967 24.1961 163.398 24.1961C170.188 24.1989 176.978 24.1961 183.77 24.1961C183.845 24.1961 183.92 24.1961 183.998 24.1961C184.592 24.1961 184.79 24.3474 185.003 24.9525V27.286C184.912 27.6586 184.689 27.8827 184.366 27.9948H161.454C161.374 27.9808 161.291 27.9612 161.211 27.9556C160.349 27.8771 159.507 27.6978 158.703 27.3337C157.139 26.6249 156.039 25.4007 155.401 23.6526C154.937 22.3864 154.794 21.0613 154.792 19.711C154.787 15.8983 154.787 12.0856 154.792 8.27292C154.792 7.21399 154.882 6.16627 155.153 5.14376C155.463 3.96437 155.969 2.91384 156.771 2.05661C157.906 0.840803 159.302 0.291729 160.83 0.101233C161.188 0.0564109 161.549 0.0311983 161.91 -0.00241852H184.186C184.579 0.0592123 184.882 0.252509 185.003 0.706336V3.09033L185 3.09593Z" fill="#001C33"/>
<path d="M141.032 28H118.528C118.172 27.8963 117.972 27.633 117.892 27.238V0.761981C117.984 0.456628 118.097 0.170885 118.408 0.0728364C118.505 0.042021 118.608 0.0252126 118.708 0H140.531C140.704 0.0168084 140.874 0.0392196 141.047 0.0476238C142.202 0.10085 143.324 0.324962 144.399 0.82081C146.323 1.70885 147.591 3.28604 148.26 5.47114C148.656 6.75978 148.789 8.10165 148.789 9.46033C148.789 12.4858 148.789 15.5114 148.789 18.5341C148.789 19.6854 148.691 20.8256 148.423 21.9434C148.095 23.3133 147.534 24.5459 146.634 25.5544C145.424 26.9075 143.911 27.5714 142.245 27.8487C141.844 27.916 141.435 27.9524 141.032 28ZM121.772 24.1985H121.998C127.813 24.1985 133.626 24.1985 139.441 24.1985C140.125 24.1985 140.799 24.1313 141.46 23.9324C142.954 23.4841 144.011 22.484 144.55 20.8424C144.843 19.9516 144.933 19.0215 144.933 18.0802C144.933 15.3573 144.933 12.6371 144.933 9.91416C144.933 9.05693 144.855 8.21091 144.617 7.3929C144.201 5.96418 143.4 4.93327 142.149 4.34777C141.26 3.93037 140.328 3.81551 139.378 3.81551C133.596 3.80991 127.811 3.81551 122.028 3.81551H121.775V24.2013L121.772 24.1985Z" fill="#001C33"/>
<path d="M1.66174 2.10869H15.1855C17.4037 2.10869 17.4037 5.43475 15.1855 5.43475H1.66174C-0.553912 5.43475 -0.553912 2.10869 1.66174 2.10869Z" fill="#F9863D"/>
<path d="M21.5128 2.10869H30.3522C32.5704 2.10869 32.5704 5.43475 30.3522 5.43475H21.5128C19.2946 5.43475 19.2946 2.10869 21.5128 2.10869Z" fill="#D51C38"/>
<path d="M1.66367 9.43475H19.5154C21.7336 9.43475 21.7336 12.7608 19.5154 12.7608H1.66367C-0.554558 12.7608 -0.554558 9.43475 1.66367 9.43475Z" fill="#D51C38"/>
<path d="M25.8428 9.43475H30.3567C32.5749 9.43475 32.5749 12.7608 30.3567 12.7608H25.8428C23.6245 12.7608 23.6245 9.43475 25.8428 9.43475Z" fill="#F9863D"/>
<path d="M1.66367 16.7608H10.3119C12.5302 16.7608 12.5302 20.0869 10.3119 20.0869H1.66367C-0.554558 20.0869 -0.554558 16.7608 1.66367 16.7608Z" fill="#00AAC8"/>
<path d="M16.6393 16.7608H30.3567C32.5749 16.7608 32.5749 20.0869 30.3567 20.0869H16.6393C14.4211 20.0869 14.4211 16.7608 16.6393 16.7608Z" fill="#006EC6"/>
<path d="M1.66367 24.0869H20.3831C22.6013 24.0869 22.6013 27.4129 20.3831 27.4129H1.66367C-0.554558 27.4129 -0.554558 24.0869 1.66367 24.0869Z" fill="#006EC6"/>
<path d="M26.7104 24.0869H30.3541C32.5723 24.0869 32.5723 27.4129 30.3541 27.4129H26.7104C24.4922 27.4129 24.4922 24.0869 26.7104 24.0869Z" fill="#00AAC8"/>
</g>
<defs>
<clipPath id="clip0_1_20">
<rect width="185" height="28" fill="white"/>
</clipPath>
</defs>
</svg>
