<svg width="97" height="96" viewBox="0 0 97 96" fill="none" xmlns="http://www.w3.org/2000/svg">
<path d="M90.7518 49.0237H51.3954C50.8948 49.0237 50.4897 48.6187 50.4897 48.1181V26.7829C50.4897 25.626 50.5897 24.5187 50.786 23.4901C50.8373 23.2221 51.0018 23.0046 51.2212 22.8772C51.1133 22.7286 51.0496 22.5455 51.0496 22.3475C51.0496 22.2501 51.0655 22.1555 51.0956 22.0671C51.1044 22.0343 51.115 22.0016 51.1274 21.9707C51.2654 21.6275 51.6077 21.3984 51.9774 21.3984H90.7518C92.2598 21.3984 93.4874 22.6163 93.4874 24.1128V46.2882C93.4874 47.7961 92.2598 49.0237 90.7518 49.0237ZM52.3011 47.2124H90.7518C91.2613 47.2124 91.6761 46.7976 91.6761 46.2882V24.1128C91.6761 23.6148 91.2613 23.2098 90.7518 23.2098H90.7067C90.6192 23.2381 90.5254 23.2531 90.429 23.2531H52.4841C52.5717 23.4256 52.6044 23.6272 52.5655 23.8315C52.3904 24.7469 52.3011 25.7401 52.3011 26.7829V47.2124Z" fill="#F83908"/>
<path d="M70.3721 39.9438C70.1678 39.9438 69.9635 39.8749 69.7963 39.7378L51.1038 24.3592C50.8951 24.1868 50.7739 23.9303 50.7739 23.6596C50.7739 23.5977 50.7801 23.519 50.7925 23.458L50.8703 23.0697C50.9322 22.7504 50.995 22.4347 51.0746 22.1269C51.179 21.7289 51.5469 21.4141 51.9688 21.4141H90.4594C90.8255 21.4141 91.1563 21.6343 91.296 21.973C91.4367 22.3118 91.3588 22.7009 91.0997 22.9601L91.0634 22.9963L70.9514 39.7342C70.7834 39.874 70.5782 39.9438 70.3721 39.9438ZM52.6702 23.3023L70.3686 37.8628L87.9617 23.2254H52.6852C52.6799 23.251 52.6755 23.2767 52.6702 23.3023Z" fill="#F83908"/>
<path d="M64.0791 57.2782H51.3866C50.886 57.2782 50.481 56.8732 50.481 56.3726V27.349C50.481 17.2824 58.0959 8.88909 67.8176 8.2408C73.1932 7.89233 78.4547 9.85401 82.2516 13.6509C84.6113 15.9814 86.2784 18.9018 87.0691 22.0928C87.1894 22.5775 86.8931 23.0692 86.4075 23.1895C85.9291 23.3071 85.432 23.0153 85.3108 22.5279C84.5998 19.6615 83.1007 17.0356 80.9745 14.9351C77.5438 11.5052 72.8005 9.71515 67.9379 10.0486C59.1643 10.6332 52.2923 18.2323 52.2923 27.349V55.4669H64.0791C64.5797 55.4669 64.9848 55.872 64.9848 56.3726C64.9848 56.8732 64.5797 57.2782 64.0791 57.2782Z" fill="black"/>
<path d="M83.2333 57.2793H70.9989C70.4983 57.2793 70.0933 56.8743 70.0933 56.3737C70.0933 55.8731 70.4983 55.468 70.9989 55.468H83.2333C84.6997 55.468 85.8928 54.2749 85.8928 52.8085V48.1166C85.8928 47.616 86.2979 47.2109 86.7985 47.2109C87.299 47.2109 87.7041 47.616 87.7041 48.1166V52.8085C87.7041 55.2734 85.6982 57.2793 83.2333 57.2793Z" fill="black"/>
<path d="M51.3954 57.2705H13.6937C13.1932 57.2705 12.7881 56.8654 12.7881 56.3648C12.7881 55.8642 13.1932 55.4591 13.6937 55.4591H50.4897V26.7831C50.4897 25.6263 50.5897 24.519 50.786 23.4904C50.8762 23.0172 50.9656 22.5741 51.0761 22.1292C51.0814 22.108 51.0885 22.0877 51.0956 22.0673C51.1044 22.0346 51.115 22.0019 51.1274 21.9709C51.1283 21.9683 51.1301 21.9656 51.131 21.963C52.5664 16.5936 56.2828 12.2996 61.0773 10.0125H46.0605C45.5599 10.0125 45.1548 9.60742 45.1548 9.10683C45.1548 8.60624 45.5599 8.20117 46.0605 8.20117H69.0929C69.5935 8.20117 69.9986 8.60624 69.9986 9.10683C69.9986 9.60742 69.5935 10.0125 69.0929 10.0125C61.4779 10.0125 54.819 15.1263 52.8733 22.4582C52.8627 22.5281 52.8441 22.5971 52.8176 22.6634C52.8123 22.6767 52.807 22.6891 52.8008 22.7024C52.7123 23.0738 52.638 23.4444 52.5637 23.8159C52.3904 24.7472 52.3011 25.7404 52.3011 26.7831V56.3648C52.3011 56.8654 51.896 57.2705 51.3954 57.2705Z" fill="black"/>
<path d="M7.98302 57.2705C5.5181 57.2705 3.51221 55.2646 3.51221 52.7988V26.7831C3.51221 16.537 11.8577 8.20117 22.1154 8.20117H39.8209C40.3215 8.20117 40.7265 8.60624 40.7265 9.10683C40.7265 9.60742 40.3215 10.0125 39.8209 10.0125H22.1154C12.8563 10.0125 5.32353 17.5355 5.32353 26.7831V52.7988C5.32353 54.266 6.51663 55.4591 7.98302 55.4591C8.48361 55.4591 8.88868 55.8642 8.88868 56.3648C8.88868 56.8654 8.48361 57.2705 7.98302 57.2705Z" fill="black"/>
<path d="M44.0327 87.7992C43.5321 87.7992 43.127 87.3941 43.127 86.8935V57.2703H30.3841V86.8935C30.3841 87.3941 29.979 87.7992 29.4784 87.7992C28.9778 87.7992 28.5728 87.3941 28.5728 86.8935V56.3646C28.5728 55.8641 28.9778 55.459 29.4784 55.459H44.0327C44.5332 55.459 44.9383 55.8641 44.9383 56.3646V86.8935C44.9383 87.3941 44.5332 87.7992 44.0327 87.7992Z" fill="black"/>
</svg>
