<svg width="1440" height="225" viewBox="0 0 1440 225" fill="none" xmlns="http://www.w3.org/2000/svg">
<path d="M170.426 112.909C170.426 137.199 165.703 157.689 156.257 174.379C146.811 190.999 134.063 203.605 118.011 212.199C101.96 220.722 84.0625 224.983 64.3182 224.983C44.4318 224.983 26.4631 220.686 10.4119 212.092C-5.56818 203.428 -18.2812 190.786 -27.7273 174.166C-37.1023 157.476 -41.7898 137.057 -41.7898 112.909C-41.7898 88.6193 -37.1023 68.1648 -27.7273 51.5455C-18.2812 34.8551 -5.56818 22.2486 10.4119 13.7258C26.4631 5.13209 44.4318 0.835219 64.3182 0.835219C84.0625 0.835219 101.96 5.13209 118.011 13.7258C134.063 22.2486 146.811 34.8551 156.257 51.5455C165.703 68.1648 170.426 88.6193 170.426 112.909ZM109.489 112.909C109.489 99.8409 107.749 88.8324 104.268 79.8835C100.859 70.8636 95.7813 64.0454 89.0341 59.429C82.358 54.7415 74.1193 52.3977 64.3182 52.3977C54.517 52.3977 46.2429 54.7415 39.4957 59.429C32.8196 64.0454 27.7415 70.8636 24.2614 79.8835C20.8523 88.8324 19.1477 99.8409 19.1477 112.909C19.1477 125.977 20.8523 137.021 24.2614 146.041C27.7415 154.99 32.8196 161.808 39.4957 166.496C46.2429 171.112 54.517 173.42 64.3182 173.42C74.1193 173.42 82.358 171.112 89.0341 166.496C95.7813 161.808 100.859 154.99 104.268 146.041C107.749 137.021 109.489 125.977 109.489 112.909ZM326.951 3.81818H386.184V143.591C386.184 160.21 382.207 174.592 374.252 186.737C366.369 198.811 355.36 208.151 341.227 214.756C327.093 221.29 310.687 224.557 292.008 224.557C273.187 224.557 256.71 221.29 242.576 214.756C228.443 208.151 217.434 198.811 209.551 186.737C201.738 174.592 197.832 160.21 197.832 143.591V3.81818H257.065V138.477C257.065 145.224 258.556 151.261 261.539 156.588C264.522 161.844 268.642 165.963 273.897 168.946C279.224 171.929 285.261 173.42 292.008 173.42C298.826 173.42 304.863 171.929 310.119 168.946C315.375 165.963 319.494 161.844 322.477 156.588C325.46 151.261 326.951 145.224 326.951 138.477V3.81818ZM414.336 222V3.81818H508.512C524.705 3.81818 538.874 6.76562 551.019 12.6605C563.164 18.5554 572.61 27.0426 579.357 38.1222C586.104 49.2017 589.478 62.4829 589.478 77.9659C589.478 93.5909 585.998 106.766 579.038 117.49C572.148 128.214 562.454 136.311 549.954 141.78C537.525 147.249 523.001 149.983 506.381 149.983H450.131V103.96H494.45C501.41 103.96 507.34 103.108 512.241 101.403C517.212 99.6278 521.012 96.8224 523.64 92.9872C526.339 89.152 527.688 84.1449 527.688 77.9659C527.688 71.7159 526.339 66.6378 523.64 62.7315C521.012 58.7543 517.212 55.8423 512.241 53.9957C507.34 52.0781 501.41 51.1193 494.45 51.1193H473.569V222H414.336ZM542.177 121.858L596.722 222H532.376L479.109 121.858H542.177ZM674.492 222V3.81818H769.094C785.714 3.81818 799.67 6.05539 810.962 10.5298C822.326 15.0043 830.884 21.3253 836.637 29.4929C842.461 37.6605 845.373 47.2841 845.373 58.3636C845.373 66.3892 843.597 73.7045 840.046 80.3097C836.566 86.9148 831.665 92.4545 825.344 96.929C819.023 101.332 811.637 104.386 803.185 106.091V108.222C812.56 108.577 821.083 110.956 828.754 115.359C836.424 119.692 842.532 125.693 847.077 133.364C851.623 140.963 853.896 149.912 853.896 160.21C853.896 172.142 850.771 182.76 844.521 192.064C838.342 201.368 829.535 208.683 818.1 214.01C806.665 219.337 793.029 222 777.191 222H674.492ZM733.725 174.699H761.424C771.367 174.699 778.825 172.852 783.796 169.159C788.768 165.395 791.254 159.855 791.254 152.54C791.254 147.426 790.082 143.094 787.738 139.543C785.394 135.991 782.056 133.293 777.724 131.446C773.462 129.599 768.313 128.676 762.276 128.676H733.725V174.699ZM733.725 92.0284H758.015C763.2 92.0284 767.781 91.2116 771.758 89.5781C775.735 87.9446 778.825 85.6009 781.026 82.5469C783.299 79.4219 784.435 75.6222 784.435 71.1477C784.435 64.4006 782.021 59.2514 777.191 55.7003C772.362 52.0781 766.254 50.267 758.867 50.267H733.725V92.0284ZM874.883 222V3.81818H934.116V174.273H1022.33V222H874.883ZM1249.14 112.909C1249.14 137.199 1244.41 157.689 1234.97 174.379C1225.52 190.999 1212.77 203.605 1196.72 212.199C1180.67 220.722 1162.77 224.983 1143.03 224.983C1123.14 224.983 1105.17 220.686 1089.12 212.092C1073.14 203.428 1060.43 190.786 1050.98 174.166C1041.61 157.476 1036.92 137.057 1036.92 112.909C1036.92 88.6193 1041.61 68.1648 1050.98 51.5455C1060.43 34.8551 1073.14 22.2486 1089.12 13.7258C1105.17 5.13209 1123.14 0.835219 1143.03 0.835219C1162.77 0.835219 1180.67 5.13209 1196.72 13.7258C1212.77 22.2486 1225.52 34.8551 1234.97 51.5455C1244.41 68.1648 1249.14 88.6193 1249.14 112.909ZM1188.2 112.909C1188.2 99.8409 1186.46 88.8324 1182.98 79.8835C1179.57 70.8636 1174.49 64.0454 1167.75 59.429C1161.07 54.7415 1152.83 52.3977 1143.03 52.3977C1133.23 52.3977 1124.95 54.7415 1118.21 59.429C1111.53 64.0454 1106.45 70.8636 1102.97 79.8835C1099.56 88.8324 1097.86 99.8409 1097.86 112.909C1097.86 125.977 1099.56 137.021 1102.97 146.041C1106.45 154.99 1111.53 161.808 1118.21 166.496C1124.95 171.112 1133.23 173.42 1143.03 173.42C1152.83 173.42 1161.07 171.112 1167.75 166.496C1174.49 161.808 1179.57 154.99 1182.98 146.041C1186.46 137.021 1188.2 125.977 1188.2 112.909ZM1418.23 75.8352C1417.31 72.071 1415.85 68.7685 1413.87 65.9276C1411.88 63.0156 1409.39 60.5653 1406.41 58.5767C1403.5 56.517 1400.09 54.9901 1396.18 53.9957C1392.35 52.9304 1388.12 52.3977 1383.5 52.3977C1373.56 52.3977 1365.07 54.777 1358.04 59.5355C1351.08 64.294 1345.75 71.1477 1342.06 80.0966C1338.44 89.0455 1336.63 99.8409 1336.63 112.483C1336.63 125.267 1338.37 136.205 1341.85 145.295C1345.33 154.386 1350.51 161.347 1357.4 166.176C1364.29 171.006 1372.85 173.42 1383.08 173.42C1392.1 173.42 1399.59 172.107 1405.56 169.479C1411.59 166.851 1416.1 163.122 1419.09 158.293C1422.07 153.463 1423.56 147.781 1423.56 141.247L1433.79 142.312H1383.93V100.125H1480.66V130.381C1480.66 150.267 1476.44 167.277 1467.98 181.411C1459.6 195.473 1448.03 206.268 1433.25 213.797C1418.55 221.254 1401.69 224.983 1382.65 224.983C1361.42 224.983 1342.77 220.473 1326.72 211.453C1310.67 202.433 1298.13 189.578 1289.11 172.888C1280.17 156.197 1275.69 136.347 1275.69 113.335C1275.69 95.2955 1278.43 79.3153 1283.89 65.3949C1289.43 51.4744 1297.1 39.7202 1306.91 30.1321C1316.71 20.473 1328.03 13.1932 1340.89 8.2926C1353.74 3.32101 1367.52 0.835219 1382.22 0.835219C1395.15 0.835219 1407.15 2.68181 1418.23 6.375C1429.38 9.99715 1439.22 15.1818 1447.74 21.929C1456.34 28.6051 1463.26 36.5241 1468.52 45.6861C1473.77 54.848 1476.97 64.8977 1478.11 75.8352H1418.23Z" fill="url(#paint0_linear_282_1253)"/>
<defs>
<linearGradient id="paint0_linear_282_1253" x1="720" y1="-69" x2="720" y2="294" gradientUnits="userSpaceOnUse">
<stop stop-color="#FDE0CE"/>
<stop offset="0.635" stop-color="#F9FCFF" stop-opacity="0"/>
</linearGradient>
</defs>
</svg>
