<svg width="69" height="70" viewBox="0 0 69 70" fill="none" xmlns="http://www.w3.org/2000/svg">
<g clip-path="url(#clip0_363_1014)">
<path d="M61.4942 18.1663C63.2425 18.1663 64.6189 19.554 64.6189 21.3201C64.6189 23.0863 63.2425 24.474 61.4942 24.474C59.7458 24.474 58.3694 23.0863 58.3694 21.3201C58.3694 19.554 59.8698 18.1663 61.4942 18.1663Z" fill="#F3A5B1"/>
<path d="M6.01786 52.8591C8.5722 52.8591 10.6554 54.9533 10.6554 57.5269C10.6554 60.1004 8.5846 62.1946 6.01786 62.1946C3.45112 62.1946 1.38037 60.1004 1.38037 57.5269C1.38037 54.9533 3.45112 52.8591 6.01786 52.8591Z" fill="#F3A5B1"/>
<path d="M65.0032 57.653C67.508 60.1761 67.508 64.0869 65.0032 66.61C62.4985 69.1331 58.6174 69.1331 56.1127 66.61L46.0937 56.5176L54.9843 47.5605L65.0032 57.653Z" fill="#FCE8EB"/>
<path d="M51.7232 44.2805L54.9843 47.6867L46.2177 56.6437L42.8326 53.2375L51.7232 44.2805Z" fill="#F3A5B1"/>
<path d="M47.8421 40.3697L51.7232 44.2805L42.8326 53.2376L38.9515 49.3268C29.3045 55.0037 16.7808 53.7422 8.52263 45.4159C-1.24834 35.5758 -1.12434 19.1756 8.77062 9.58784C18.5416 4.05312e-05 34.19 4.05312e-05 43.961 9.84015C52.2316 18.0402 53.484 30.7819 47.8421 40.3697Z" fill="#FCE8EB"/>
<path d="M26.1798 8.70483C36.5707 8.70483 44.9653 17.1572 44.9653 27.6281C44.9653 38.099 36.5707 46.5514 26.1798 46.5514C15.7888 46.5514 7.39423 38.099 7.39423 27.6281C7.39423 17.1572 15.9128 8.70483 26.1798 8.70483Z" fill="#F3A5B1"/>
<path d="M25.9194 27.7542L23.7867 29.8988C23.6627 29.6465 23.5387 29.3942 23.4147 29.268L23.2907 29.1419C22.6583 28.5111 21.9143 28.2588 21.0339 28.5111C19.9056 28.7634 19.0252 29.8988 19.0252 31.0342C19.0252 31.7911 19.3972 32.4219 20.0296 32.9265C20.1536 33.0527 20.2775 33.1789 20.5255 33.1789L17.8968 35.8281L13.5197 31.4127C11.635 29.5204 11.635 26.3665 13.5197 24.348L18.0332 19.8064L20.5379 22.3295C20.6619 22.0772 20.7859 21.8249 21.0339 21.5726C22.0383 20.5633 23.5387 20.5633 24.543 21.5726C25.5474 22.5818 25.5474 24.0957 24.543 25.1049C24.2951 25.3572 24.0471 25.4834 23.7867 25.6095L25.9194 27.7542Z" fill="#FCE8EB"/>
<path d="M38.5795 24.8527C40.4519 26.745 40.4519 29.8989 38.5795 31.9174L34.3264 36.2066L31.3257 33.1789V33.3051C30.5693 34.8189 28.573 35.0712 27.4446 33.9359C26.4402 32.9266 26.4402 31.4127 27.4446 30.4035C27.6926 30.1512 27.9406 30.025 28.201 29.8989L25.9442 27.7542L28.077 25.6096C28.201 25.9881 28.325 26.3665 28.6969 26.6188C29.7013 27.6281 31.2017 27.5019 32.2061 26.6188C33.2104 25.6096 33.2104 24.0957 32.2061 23.0865C31.9581 22.8342 31.5861 22.5819 31.2017 22.4557L33.7064 19.9326L38.5919 24.8527H38.5795Z" fill="#FCE8EB"/>
<path d="M31.3133 33.1788L34.314 36.2066L29.8005 40.7481C27.9282 42.6405 24.791 42.6405 22.7823 40.7481L17.8968 35.8281L20.5255 33.1788C20.4015 33.0527 20.1535 33.0527 20.0295 32.9265C19.4096 32.5481 19.1492 31.7911 19.0252 31.0342C18.9012 29.7726 19.7815 28.7634 21.0339 28.5111C21.7903 28.3849 22.6583 28.6372 23.2907 29.1419L23.4147 29.268C23.5387 29.5203 23.7867 29.6465 23.7867 29.8988L25.9194 27.7542L28.0522 29.8988C27.8042 30.0249 27.5562 30.1511 27.2958 30.4034C26.2914 31.4127 26.2914 32.9265 27.2958 33.9358C28.4241 35.0712 30.5569 34.6927 31.3009 33.1788C31.1769 33.1788 31.1769 33.305 31.3009 33.1788C31.2182 33.1788 31.2182 33.1788 31.3009 33.1788H31.3133Z" fill="#FCE8EB"/>
<path d="M33.694 19.9326L31.1893 22.4557C31.5613 22.5818 31.9457 22.708 32.1937 23.0865C33.198 24.0957 33.074 25.6096 32.1937 26.6188C31.1893 27.6281 29.6889 27.6281 28.6845 26.6188C28.4365 26.3665 28.1886 25.988 28.0646 25.6096L25.9318 27.7542L23.7991 25.6096C24.0471 25.4834 24.295 25.3573 24.5554 25.1049C25.5598 24.0957 25.5598 22.5818 24.5554 21.5726C23.5511 20.5634 22.0507 20.5634 21.0463 21.5726C20.7983 21.8249 20.6743 22.0772 20.5503 22.3295L18.0456 19.8064L22.2987 15.5171C24.1834 13.6248 27.3082 13.6248 29.3169 15.5171L33.694 19.9326Z" fill="#FCE8EB"/>
<path d="M67.3716 12.6155C67.9916 12.6155 68.5 13.1201 68.5 13.7509C68.5 14.3817 67.9916 14.8863 67.3716 14.8863C66.7516 14.8863 66.2432 14.3817 66.2432 13.7509C66.2432 13.1201 66.7516 12.6155 67.3716 12.6155Z" fill="#D51C38"/>
<path d="M61.1098 36.3328C61.7297 36.3328 62.2381 36.8374 62.2381 37.4682C62.2381 38.0989 61.7297 38.6036 61.1098 38.6036C60.4898 38.6036 59.9814 38.0989 59.9814 37.4682C59.9814 36.8374 60.4898 36.3328 61.1098 36.3328Z" fill="#D51C38"/>
<path d="M54.1039 0C54.7239 0 55.2323 0.504621 55.2323 1.1354C55.2323 1.76617 54.7239 2.2708 54.1039 2.2708C53.4839 2.2708 52.9755 1.76617 52.9755 1.1354C52.9755 0.504621 53.4839 0 54.1039 0Z" fill="#D51C38"/>
<path d="M43.2046 59.9238C43.8246 59.9238 44.333 60.4285 44.333 61.0592C44.333 61.69 43.8246 62.1946 43.2046 62.1946C42.5846 62.1946 42.0762 61.69 42.0762 61.0592C42.0762 60.4285 42.5846 59.9238 43.2046 59.9238Z" fill="#D51C38"/>
<path d="M16.5328 56.7698C17.1528 56.7698 17.6612 57.2744 17.6612 57.9052C17.6612 58.536 17.1528 59.0406 16.5328 59.0406C15.9128 59.0406 15.4044 58.536 15.4044 57.9052C15.4044 57.2744 15.9128 56.7698 16.5328 56.7698Z" fill="#D51C38"/>
<path d="M4.00911 4.03687C4.6291 4.03687 5.13748 4.54149 5.13748 5.17226C5.13748 5.80304 4.6291 6.30766 4.00911 6.30766C3.38913 6.30766 2.88074 5.80304 2.88074 5.17226C2.88074 4.54149 3.38913 4.03687 4.00911 4.03687Z" fill="#D51C38"/>
<path d="M60.4898 69.2593C58.7415 69.2593 56.8567 68.6285 55.4804 67.2408L42.3367 53.8683L38.8275 50.336C28.6846 56.013 16.1609 54.2468 7.89027 45.9206C3.00479 41.0005 0.376047 34.4404 0.500044 27.3757C0.500044 20.311 3.26518 13.751 8.27466 8.95706C13.1477 4.16316 19.67 1.5139 26.4278 1.64005C33.3097 1.64005 39.6955 4.41547 44.581 9.20937C52.7152 17.4095 54.476 30.1511 48.8341 40.2436L65.6109 57.1484C66.9873 58.5361 67.6197 60.3023 67.6197 62.1946C67.6197 64.0869 66.8633 65.8531 65.6109 67.2408C64.1105 68.5023 62.3498 69.2593 60.4774 69.2593H60.4898ZM43.3286 52.6068L56.6087 65.9792C57.6131 66.9885 58.9895 67.6193 60.4898 67.6193C61.9902 67.6193 63.3666 66.9885 64.3709 65.9792C65.3753 64.97 65.9953 63.5823 65.9953 62.0684C65.9953 60.5546 65.3753 59.1669 64.3709 58.1576L47.2097 41.0005C46.9618 40.7482 46.9618 40.3697 47.0857 39.9913C52.7152 30.4035 51.2149 18.1664 43.3286 10.3448C33.9421 0.883118 18.6656 0.883118 9.26664 10.0925C4.62915 14.634 2.00041 20.8157 2.00041 27.3757C2.00041 33.9358 4.38115 40.2436 9.01864 44.7852C16.9049 52.7329 28.9326 54.2468 38.5672 48.5698C38.8151 48.4437 39.3235 48.4437 39.5715 48.696L43.3286 52.6068Z" fill="#D51C38"/>
<path d="M42.8326 53.9944C42.4606 53.9944 42.0762 53.616 42.0762 53.2375C42.0762 52.9852 42.2002 52.859 42.3242 52.6067L51.0908 43.6497C51.3388 43.3974 51.8472 43.3974 52.2192 43.6497C52.4672 43.902 52.4672 44.4066 52.2192 44.7851L43.3286 53.7421C43.2046 53.9944 43.0806 53.9944 42.8326 53.9944Z" fill="#D51C38"/>
<path d="M46.2177 57.4007C45.9697 57.4007 45.8457 57.2745 45.7217 57.1484C45.4737 56.896 45.4737 56.3914 45.7217 56.013L54.6123 47.0559C54.8603 46.8036 55.3687 46.8036 55.7407 47.0559C55.9887 47.3082 55.9887 47.8129 55.7407 48.1913L46.8501 57.1484C46.6021 57.2745 46.3541 57.4007 46.2177 57.4007Z" fill="#D51C38"/>
<path d="M26.1798 47.3082C15.4045 47.3082 6.65027 38.4773 6.65027 27.628C6.65027 16.7786 15.4169 7.94775 26.1798 7.94775C36.9428 7.94775 45.7094 16.7786 45.7094 27.628C45.7094 38.4773 37.0668 47.3082 26.1798 47.3082ZM26.1798 9.46162C16.2848 9.46162 8.15063 17.5356 8.15063 27.628C8.15063 37.7204 16.1608 45.7943 26.1798 45.7943C36.1988 45.7943 44.209 37.7204 44.209 27.628C44.209 17.5356 36.1988 9.46162 26.1798 9.46162Z" fill="#D51C38"/>
<path d="M6.01787 63.0777C3.00474 63.0777 0.5 60.5546 0.5 57.5269C0.5 54.4992 3.00474 51.9761 6.00547 51.9761C9.0062 51.9761 11.5109 54.4992 11.5109 57.5269C11.5109 60.5546 9.0062 63.0777 6.00547 63.0777H6.01787ZM6.01787 53.6161C3.88512 53.6161 2.13676 55.3823 2.13676 57.5269C2.13676 59.6715 3.88512 61.4377 6.01787 61.4377C8.15062 61.4377 9.89898 59.6715 9.89898 57.5269C9.89898 55.3823 8.15062 53.6161 6.01787 53.6161Z" fill="#D51C38"/>
<path d="M61.4941 25.2311C59.3614 25.2311 57.613 23.4649 57.613 21.3202C57.613 19.1756 59.3614 17.4094 61.4941 17.4094C63.6269 17.4094 65.3753 19.1756 65.3753 21.3202C65.3753 23.4649 63.7509 25.2311 61.4941 25.2311ZM61.4941 18.9233C60.2418 18.9233 59.1134 19.9325 59.1134 21.3202C59.1134 22.5818 60.1178 23.7172 61.4941 23.7172C62.7465 23.7172 63.8749 22.7079 63.8749 21.3202C63.8749 19.9325 62.8705 18.9233 61.4941 18.9233Z" fill="#D51C38"/>
<path d="M34.314 36.9635C34.066 36.9635 33.942 36.8373 33.818 36.7111L31.4372 34.3142C30.9413 34.8188 30.3089 35.1973 29.5525 35.3234C28.5481 35.4496 27.4197 35.1973 26.7998 34.4403C26.1798 33.8096 25.7954 33.0526 25.7954 32.1696C25.7954 31.2865 26.1674 30.5295 26.7998 29.8988L25.9194 28.8895L24.419 30.4034C24.295 30.5295 23.923 30.6557 23.6626 30.6557C23.4022 30.6557 23.1666 30.4034 23.0426 30.1511C22.9186 30.0249 22.9186 29.8988 22.7947 29.6464C22.4227 29.268 21.7903 29.0157 21.2943 29.1418C20.5379 29.268 19.9179 30.0249 19.9179 30.908C19.9179 31.4126 20.1659 31.9172 20.5379 32.1696C20.6619 32.2957 20.7859 32.2957 20.9099 32.2957C21.1579 32.4219 21.2819 32.6742 21.4059 32.9265C21.4059 33.1788 21.4059 33.4311 21.1579 33.6834L18.5292 36.3327C18.2812 36.585 17.7728 36.585 17.4008 36.3327C17.1528 36.0804 17.1528 35.5757 17.4008 35.1973L19.4095 33.1788C18.7895 32.6742 18.4052 31.7911 18.4052 31.0342C18.2812 29.3941 19.4095 28.0064 21.0339 27.628C22.0383 27.3756 23.1666 27.7541 23.9106 28.511L25.411 26.9972C25.535 26.871 25.783 26.7449 25.907 26.7449C26.031 26.7449 26.279 26.871 26.403 26.9972L28.5357 29.1418C28.6597 29.268 28.7837 29.6464 28.7837 29.8988C28.7837 30.1511 28.5357 30.4034 28.2877 30.5295C28.1637 30.6557 27.9157 30.7818 27.7917 30.908C27.4197 31.2865 27.2957 31.6649 27.2957 32.0434C27.2957 32.548 27.4197 32.9265 27.7917 33.1788C28.1637 33.5573 28.6721 33.6834 29.2921 33.6834C29.7881 33.5573 30.2965 33.3049 30.5445 32.8003C30.6685 32.548 30.9165 32.4219 31.1645 32.2957C31.4124 32.2957 31.6604 32.2957 31.9208 32.548L34.9216 35.5757C35.1696 35.8281 35.1696 36.3327 34.9216 36.7111C34.6736 36.8373 34.4256 36.9635 34.3016 36.9635H34.314Z" fill="#D51C38"/>
<path d="M25.9194 28.5111C25.6714 28.5111 25.5474 28.3849 25.4234 28.2587L23.2907 26.1141C23.1667 25.9879 23.0427 25.6095 23.0427 25.3572C23.0427 25.1049 23.2907 24.8525 23.5387 24.7264C23.6627 24.6002 23.9107 24.4741 24.0346 24.3479C24.4066 23.9695 24.5306 23.591 24.5306 23.2125C24.5306 22.7079 24.4066 22.3294 24.0346 22.0771C23.6627 21.6987 23.2783 21.5725 22.9063 21.5725C22.5343 21.5725 22.0259 21.6987 21.7779 22.0771C21.6539 22.2033 21.5299 22.3294 21.4059 22.5818C21.2819 22.8341 21.0339 22.9602 20.7859 23.0864C20.5379 23.0864 20.2899 23.0864 20.0295 22.8341L17.5248 20.311C17.2768 20.0586 17.2768 19.554 17.5248 19.1756C17.7728 18.9233 18.2812 18.9233 18.6532 19.1756L20.5255 21.0679C21.1455 20.4371 21.9019 20.0586 22.7823 20.0586C23.6627 20.0586 24.4066 20.4371 25.039 21.0679C25.6714 21.6987 26.0434 22.4556 26.0434 23.3387C26.0434 24.2218 25.6714 24.9787 25.039 25.6095L25.9194 26.4926L27.5438 24.8526C27.7918 24.6002 28.0398 24.6002 28.3001 24.6002C28.5481 24.7264 28.7961 24.8525 28.7961 25.1049C28.9201 25.3572 29.0441 25.6095 29.1681 25.8618C29.7881 26.4926 30.9165 26.4926 31.5489 25.8618C32.1689 25.231 32.3053 24.0956 31.5489 23.4648C31.3009 23.2125 31.1769 23.0864 30.7925 23.0864C30.5445 22.9602 30.2965 22.8341 30.2965 22.5818C30.1725 22.3294 30.2965 22.0771 30.5445 21.8248L33.0492 19.3017C33.2972 19.0494 33.8056 19.0494 34.1776 19.3017C34.4256 19.554 34.4256 20.0586 34.1776 20.4371L32.4293 22.2033C32.5532 22.3294 32.6772 22.3294 32.6772 22.4556C33.9296 23.7172 33.9296 25.8618 32.6772 27.1233C31.4249 28.3849 29.2921 28.3849 28.0398 27.1233C27.9571 27.0392 27.8744 26.9551 27.7918 26.871L26.4154 28.2587C26.2914 28.5111 26.1674 28.5111 25.9194 28.5111Z" fill="#D51C38"/>
<path d="M26.3038 43.0189C24.8034 43.0189 23.4271 42.5142 22.2987 41.3789L13.0361 32.0434C11.9077 30.908 11.4117 29.5203 11.4117 28.0064C11.4117 26.4925 12.0441 24.9787 13.0361 23.9694L21.8027 15.1386C22.9311 14.0032 24.3074 13.4985 25.8078 13.4985C27.3082 13.4985 28.8085 14.1293 29.8129 15.1386L39.0755 24.474C40.2039 25.6094 40.6999 26.9972 40.6999 28.511C40.6999 30.0249 40.0675 31.5387 39.0755 32.548L30.3089 41.3789C29.1805 42.3881 27.8042 43.0189 26.3038 43.0189ZM25.7954 14.8862C24.667 14.8862 23.6627 15.2647 22.9187 16.1478L14.1521 24.9787C13.3957 25.7356 12.8997 26.871 12.8997 27.8802C12.8997 29.0156 13.2717 30.0249 14.1521 30.7818L23.4147 40.1173C25.039 41.7573 27.6678 41.7573 29.3045 40.1173L33.818 35.5757L38.0711 31.2864C38.8275 30.5295 39.3235 29.3941 39.3235 28.3849C39.3235 27.2495 38.9515 26.2402 38.0711 25.4833L28.8085 16.1478C28.0522 15.2647 26.9362 14.8862 25.8078 14.8862H25.7954Z" fill="#D51C38"/>
</g>
<defs>
<clipPath id="clip0_363_1014">
<rect width="68" height="69.2593" fill="white" transform="translate(0.5)"/>
</clipPath>
</defs>
</svg>
