<svg width="33" height="32" viewBox="0 0 33 32" fill="none" xmlns="http://www.w3.org/2000/svg">
<g clip-path="url(#clip0_29_378)">
<path d="M26.1297 32H6.87026C3.35794 32 0.5 29.1421 0.5 25.6297V6.37026C0.5 2.85794 3.35794 0 6.87026 0H26.1322C29.6445 0 32.5025 2.85794 32.5025 6.37026V25.6322C32.5025 29.1445 29.6445 32.0025 26.1322 32.0025L26.1297 32ZM6.87026 1.1055C3.96522 1.1055 1.6055 3.46522 1.6055 6.37026V25.6322C1.6055 28.5348 3.9677 30.897 6.87026 30.897H26.1322C29.0348 30.897 31.397 28.5348 31.397 25.6322V6.37026C31.397 3.4677 29.0348 1.1055 26.1322 1.1055H6.87026Z" fill="black"/>
<path d="M18.4037 15.259L23.7254 9.56543H21.7028L17.5262 14.0345L14.3262 9.56543H8.79871L14.3956 17.3832L8.79871 23.3693H10.8213L15.2731 18.6077L18.6813 23.3693H24.2088L18.4012 15.259H18.4037ZM21.3608 21.9044H19.4323L11.6467 11.0279H13.5752" fill="url(#paint0_linear_29_378)"/>
</g>
<defs>
<linearGradient id="paint0_linear_29_378" x1="11.3419" y1="11.5459" x2="22.32" y2="22.5241" gradientUnits="userSpaceOnUse">
<stop stop-color="#202226"/>
<stop offset="0.99"/>
</linearGradient>
<clipPath id="clip0_29_378">
<rect width="32" height="32" fill="white" transform="translate(0.5)"/>
</clipPath>
</defs>
</svg>
